Perun-Medium.ufo
<glyph name="exclam" format="2">
	<unicode hex="0021"/>
	<advance width="276"/>
	<outline>
		<contour>
			<point x="188.333" y="240.667" type="line"/>
			<point x="113" y="63.6667" type="line"/>
			<point x="80.3333" y="127" type="line"/>
			<point x="138.333" y="304" type="line"/>
		</contour>
		<contour>
			<point x="186.667" y="481.333" type="line"/>
			<point x="130" y="112.667" type="line"/>
			<point x="88" y="151" type="line"/>
			<point x="118" y="519.667" type="line"/>
		</contour>
	</outline>
</glyph>
<glyph name="numbersign" format="2">
	<unicode hex="0023"/>
	<advance width="735"/>
	<outline>
		<contour>
			<point x="281.333" y="300" type="line"/>
			<point x="410.333" y="300" type="line"/>
			<point x="455.333" y="449" type="line"/>
			<point x="327" y="449" type="line"/>
		</contour>
		<contour>
			<point x="109.333" y="0" type="line"/>
			<point x="177.333" y="227.333" type="line"/>
			<point x="48.3333" y="227.333" type="line"/>
			<point x="71.3333" y="300" type="line"/>
			<point x="199.333" y="300" type="line"/>
			<point x="244.667" y="449" type="line"/>
			<point x="116" y="449" type="line"/>
			<point x="139" y="521.667" type="line"/>
			<point x="266.333" y="521.667" type="line"/>
			<point x="327" y="722" type="line"/>
			<point x="410.333" y="722" type="line"/>
			<point x="349" y="521.667" type="line"/>
			<point x="477" y="521.667" type="line"/>
			<point x="537.667" y="722" type="line"/>
			<point x="620.333" y="722" type="line"/>
			<point x="559.667" y="521.667" type="line"/>
			<point x="688" y="521.667" type="line"/>
			<point x="665" y="449" type="line"/>
			<point x="537" y="449" type="line"/>
			<point x="492" y="300" type="line"/>
			<point x="620.333" y="300" type="line"/>
			<point x="597.333" y="227.333" type="line"/>
			<point x="470" y="227.333" type="line"/>
			<point x="402.667" y="-0.333333" type="line"/>
			<point x="320" y="-0.333333" type="line"/>
			<point x="387.667" y="227.333" type="line"/>
			<point x="260" y="227.333" type="line"/>
			<point x="192" y="0" type="line"/>
		</contour>
	</outline>
</glyph>
<glyph name="dollar" format="2">
	<unicode hex="0024"/>
	<advance width="563"/>
	<outline>
		<contour>
			<point x="309.333" y="84.3333" type="line"/>
			<point x="378.667" y="87"/>
			<point x="419.667" y="127.667"/>
			<point x="419.667" y="196.333" type="curve" smooth="yes"/>
			<point x="419.667" y="255.333"/>
			<point x="389" y="287.667"/>
			<point x="309.333" y="310.667" type="curve"/>
		</contour>
		<contour>
			<point x="45" y="530.333" type="curve" smooth="yes"/>
			<point x="45" y="634.333"/>
			<point x="137.333" y="718.333"/>
			<point x="253.667" y="722.667" type="curve"/>
			<point x="253.667" y="796.333" type="line"/>
			<point x="309.333" y="796.333" type="line"/>
			<point x="309.333" y="723.333" type="line"/>
			<point x="438.667" y="720.667"/>
			<point x="505.667" y="652.333"/>
			<point x="505.667" y="523.667" type="curve"/>
			<point x="393.333" y="523.667" type="line"/>
			<point x="393.333" y="590.667"/>
			<point x="366.333" y="624.667"/>
			<point x="309.333" y="627.333" type="curve"/>
			<point x="309.333" y="413.667" type="line"/>
			<point x="438.667" y="378.667"/>
			<point x="531" y="334"/>
			<point x="531" y="198.667" type="curve" smooth="yes"/>
			<point x="531" y="76"/>
			<point x="443.333" y="-7.66667"/>
			<point x="309.333" y="-12" type="curve"/>
			<point x="309.333" y="-103" type="line"/>
			<point x="253.667" y="-103" type="line"/>
			<point x="253.667" y="-12" type="line"/>
			<point x="115.333" y="-8.66667"/>
			<point x="33" y="76"/>
			<point x="33" y="215.667" type="curve"/>
			<point x="145.333" y="215.667" type="line"/>
			<point x="145.333" y="129"/>
			<point x="180.333" y="86.6667"/>
			<point x="253.667" y="83.6667" type="curve"/>
			<point x="253.667" y="318.333" type="line"/>
			<point x="102.667" y="360.667"/>
			<point x="45" y="419"/>
		</contour>
		<contour>
			<point x="253.667" y="428.667" type="curve"/>
			<point x="253.667" y="627.333" type="line"/>
			<point x="195.333" y="623"/>
			<point x="156.333" y="584"/>
			<point x="156.333" y="531" type="curve" smooth="yes"/>
			<point x="156.333" y="483.333"/>
			<point x="188" y="450.333"/>
		</contour>
	</outline>
</glyph>
<glyph name="percent" format="2">
	<unicode hex="0025"/>
	<advance width="951"/>
	<outline>
		<contour>
			<point x="227.667" y="-14" type="line"/>
			<point x="653.333" y="736" type="line"/>
			<point x="733.333" y="736" type="line"/>
			<point x="306.333" y="-14" type="line"/>
		</contour>
		<contour>
			<point x="46" y="529.995" type="curve" smooth="yes"/>
			<point x="46" y="645.714"/>
			<point x="118" y="727"/>
			<point x="231.333" y="727" type="curve" smooth="yes"/>
			<point x="345.333" y="727"/>
			<point x="416" y="645.053"/>
			<point x="416" y="529.333" type="curve" smooth="yes"/>
			<point x="416" y="413.28"/>
			<point x="345.667" y="332.333"/>
			<point x="233.333" y="332.333" type="curve" smooth="yes"/>
			<point x="124.667" y="332.333"/>
			<point x="46" y="408.984"/>
		</contour>
		<contour>
			<point x="138" y="529.667" type="curve" smooth="yes"/>
			<point x="138" y="455.392"/>
			<point x="159.333" y="400.667"/>
			<point x="231" y="400.667" type="curve" smooth="yes"/>
			<point x="303" y="400.667"/>
			<point x="324" y="455.063"/>
			<point x="324" y="528.672" type="curve" smooth="yes"/>
			<point x="324" y="603.275"/>
			<point x="302" y="658.667"/>
			<point x="230.333" y="658.667" type="curve" smooth="yes"/>
			<point x="159" y="658.667"/>
			<point x="138" y="603.942"/>
		</contour>
		<contour>
			<point x="535" y="190.989" type="curve" smooth="yes"/>
			<point x="535" y="305.763"/>
			<point x="606.333" y="387"/>
			<point x="721" y="387" type="curve" smooth="yes"/>
			<point x="830" y="387"/>
			<point x="906.333" y="312.333"/>
			<point x="906.333" y="191.323" type="curve" smooth="yes"/>
			<point x="906.333" y="70.9787"/>
			<point x="829.667" y="-5"/>
			<point x="720.333" y="-5" type="curve" smooth="yes"/>
			<point x="605.667" y="-5"/>
			<point x="535" y="76.5493"/>
		</contour>
		<contour>
			<point x="626" y="191" type="curve" smooth="yes"/>
			<point x="626" y="117.456"/>
			<point x="647.333" y="63.3333"/>
			<point x="720.333" y="63.3333" type="curve" smooth="yes"/>
			<point x="793.333" y="63.3333"/>
			<point x="814.333" y="117.456"/>
			<point x="814.333" y="191" type="curve" smooth="yes"/>
			<point x="814.333" y="264.544"/>
			<point x="793.333" y="318.667"/>
			<point x="720.333" y="318.667" type="curve" smooth="yes"/>
			<point x="647.333" y="318.667"/>
			<point x="626" y="264.544"/>
		</contour>
	</outline>
</glyph>
<glyph name="ampersand" format="2">
  <advance width="773"/>
  <unicode hex="0026"/>
  <outline>
    <contour>
      <point x="266" y="352.333" type="curve"/>
      <point x="219.667" y="334"/>
      <point x="170.667" y="269"/>
      <point x="170.667" y="211.667" type="curve" smooth="yes"/>
      <point x="170.667" y="129.667"/>
      <point x="250" y="77"/>
      <point x="326.667" y="77" type="curve" smooth="yes"/>
      <point x="382.333" y="77"/>
      <point x="440.333" y="94"/>
      <point x="480" y="130.333" type="curve"/>
      <point x="403.667" y="196.667"/>
      <point x="332.333" y="271"/>
    </contour>
    <contour>
      <point x="321.667" y="652.333" type="curve" smooth="yes"/>
      <point x="278.333" y="652.333"/>
      <point x="239.333" y="626.667"/>
      <point x="239.333" y="579.667" type="curve" smooth="yes"/>
      <point x="239.333" y="547.333"/>
      <point x="259.667" y="508.333"/>
      <point x="300.333" y="461.333" type="curve"/>
      <point x="345.667" y="484.333"/>
      <point x="412" y="525.333"/>
      <point x="412" y="579.333" type="curve" smooth="yes"/>
      <point x="412" y="623"/>
      <point x="368" y="652.333"/>
    </contour>
    <contour>
      <point x="533.667" y="213.667" type="curve"/>
      <point x="549.333" y="257"/>
      <point x="556.667" y="289.667"/>
      <point x="556.667" y="326" type="curve" smooth="yes"/>
      <point x="556.667" y="350"/>
      <point x="553.333" y="379.667"/>
      <point x="549" y="408.333" type="curve"/>
      <point x="665" y="408.333" type="line"/>
      <point x="665" y="316.333"/>
      <point x="656" y="221.333"/>
      <point x="607.333" y="141.333" type="curve"/>
      <point x="654" y="84.3333"/>
      <point x="698.333" y="47.3333"/>
      <point x="760.333" y="-0.333333" type="curve"/>
      <point x="615.667" y="-0.333333" type="line"/>
      <point x="592" y="16.6667"/>
      <point x="567" y="39.6667"/>
      <point x="543.333" y="64.6667" type="curve"/>
      <point x="493.667" y="19.3333"/>
      <point x="401.333" y="-13.6667"/>
      <point x="314.333" y="-13.6667" type="curve" smooth="yes"/>
      <point x="174.667" y="-13.6667"/>
      <point x="58" y="66.6667"/>
      <point x="58" y="204.333" type="curve" smooth="yes"/>
      <point x="58" y="324.333"/>
      <point x="127.667" y="374.667"/>
      <point x="212.667" y="418" type="curve"/>
      <point x="166.333" y="464.667"/>
      <point x="129" y="527.667"/>
      <point x="129" y="586" type="curve" smooth="yes"/>
      <point x="129" y="677.333"/>
      <point x="221" y="735.667"/>
      <point x="325" y="735.667" type="curve" smooth="yes"/>
      <point x="413.333" y="735.667"/>
      <point x="508" y="693.333"/>
      <point x="508" y="593" type="curve" smooth="yes"/>
      <point x="508" y="497"/>
      <point x="437.333" y="445.667"/>
      <point x="354.667" y="404" type="curve"/>
      <point x="404.333" y="341.333"/>
      <point x="468" y="277"/>
    </contour>
  </outline>
</glyph>
<glyph name="quotesingle" format="2">
	<unicode hex="0027"/>
	<advance width="287"/>
	<outline>
		<contour>
			<point x="100.667" y="433.333" type="line"/>
			<point x="76.6667" y="722" type="line"/>
			<point x="197.333" y="722" type="line"/>
			<point x="173.333" y="433.333" type="line"/>
		</contour>
	</outline>
</glyph>
<glyph name="parenleft" format="2">
  <advance width="368"/>
  <unicode hex="0028"/>
  <outline>
    <contour>
      <point x="197.667" y="-132.667" type="line"/>
      <point x="126.667" y="5"/>
      <point x="91" y="149.333"/>
      <point x="91" y="301.667" type="curve" smooth="yes"/>
      <point x="91" y="454.333"/>
      <point x="126.667" y="599.333"/>
      <point x="197.667" y="736.333" type="curve"/>
      <point x="277" y="736.333" type="line"/>
      <point x="222" y="583"/>
      <point x="195" y="438.667"/>
      <point x="195" y="303.667" type="curve" smooth="yes"/>
      <point x="195" y="170"/>
      <point x="222" y="23.6667"/>
      <point x="277" y="-132.667" type="curve"/>
    </contour>
  </outline>
</glyph>
<glyph name="plus" format="2">
	<unicode hex="002B"/>
	<advance width="800"/>
	<outline>
		<contour>
			<point x="100" y="269" type="line"/>
			<point x="100" y="331" type="line"/>
			<point x="369" y="331" type="line"/>
			<point x="369" y="600" type="line"/>
			<point x="431" y="600" type="line"/>
			<point x="431" y="331" type="line"/>
			<point x="700" y="331" type="line"/>
			<point x="700" y="269" type="line"/>
			<point x="431" y="269" type="line"/>
			<point x="431" y="0" type="line"/>
			<point x="369" y="0" type="line"/>
			<point x="369" y="269" type="line"/>
		</contour>
	</outline>
</glyph>
<glyph name="comma" format="2">
	<unicode hex="002C"/>
	<advance width="287"/>
	<outline>
		<contour>
			<point x="48" y="-127.667" type="line"/>
			<point x="114.333" y="123" type="line"/>
			<point x="239.667" y="123" type="line"/>
			<point x="126.333" y="-127.667" type="line"/>
		</contour>
	</outline>
</glyph>
<glyph name="period" format="2">
	<unicode hex="002E"/>
	<advance width="281"/>
	<outline>
		<contour>
			<point x="98" y="0" type="line"/>
			<point x="98" y="126" type="line"/>
			<point x="212" y="126" type="line"/>
			<point x="212" y="0" type="line"/>
		</contour>
	</outline>
</glyph>
<glyph name="slash" format="2">
	<unicode hex="002F"/>
	<advance width="406"/>
	<outline>
		<contour>
			<point x="46" y="-52" type="line"/>
			<point x="282" y="736" type="line"/>
			<point x="361" y="736" type="line"/>
			<point x="125" y="-52" type="line"/>
		</contour>
	</outline>
</glyph>
<glyph name="zero" format="2">
	<unicode hex="0030"/>
	<advance width="563"/>
	<outline>
		<contour>
			<point x="455.667" y="369" type="curve" smooth="yes"/>
			<point x="455.667" y="401.333"/>
			<point x="429.667" y="428.667"/>
			<point x="284.667" y="428.667" type="curve" smooth="yes"/>
			<point x="155.667" y="428.667"/>
			<point x="110.333" y="377"/>
			<point x="110.333" y="374.333" type="curve" smooth="yes"/>
			<point x="110.333" y="357.667"/>
			<point x="146.333" y="290.667"/>
			<point x="280.333" y="290.667" type="curve" smooth="yes"/>
			<point x="433" y="290.667"/>
			<point x="455.667" y="338"/>
		</contour>
		<contour>
			<point x="471.667" y="369.667" type="curve" smooth="yes"/>
			<point x="471.667" y="263.667"/>
			<point x="441.333" y="202.667"/>
			<point x="287" y="202.667" type="curve" smooth="yes"/>
			<point x="124.667" y="202.667"/>
			<point x="94.3333" y="279.333"/>
			<point x="94.3333" y="371.667" type="curve" smooth="yes"/>
			<point x="94.3333" y="473.333"/>
			<point x="130.667" y="519.333"/>
			<point x="280.667" y="519.333" type="curve" smooth="yes"/>
			<point x="438.333" y="519.333"/>
			<point x="471.667" y="461.333"/>
		</contour>
	</outline>
</glyph>
<glyph name="one" format="2">
	<unicode hex="0031"/>
	<advance width="563"/>
	<outline>
		<contour>
			<point x="281" y="0" type="line"/>
			<point x="281" y="594.333" type="line"/>
			<point x="239.333" y="563"/>
			<point x="185.333" y="534.667"/>
			<point x="120" y="508.333" type="curve"/>
			<point x="120" y="604.667" type="line"/>
			<point x="176.333" y="633.667"/>
			<point x="251" y="688"/>
			<point x="279.667" y="722" type="curve"/>
			<point x="388" y="722" type="line"/>
			<point x="388" y="0" type="line"/>
		</contour>
	</outline>
</glyph>
<glyph name="three" format="2">
	<unicode hex="0033"/>
	<advance width="563"/>
	<outline>
		<contour>
			<point x="355.333" y="672.333" type="curve"/>
			<point x="437.333" y="642"/>
			<point x="485.667" y="575.333"/>
			<point x="458.667" y="490.333" type="curve"/>
			<point x="488.333" y="428.333"/>
			<point x="475" y="368.667"/>
			<point x="423" y="323" type="curve"/>
			<point x="476.333" y="263.333"/>
			<point x="477.667" y="198.667"/>
			<point x="440" y="130.667" type="curve"/>
			<point x="384" y="40.6667"/>
			<point x="285.333" y="10"/>
			<point x="196.667" y="58.3333" type="curve"/>
			<point x="119.657" y="58.3333"/>
			<point x="84.885" y="110.333"/>
			<point x="93.6667" y="194.333" type="curve"/>
			<point x="110.096" y="168.667"/>
			<point x="166.718" y="158.667"/>
			<point x="197.333" y="158.667" type="curve"/>
			<point x="217" y="102"/>
			<point x="262.667" y="89.6667"/>
			<point x="314" y="113.667" type="curve"/>
			<point x="357.333" y="147"/>
			<point x="379.667" y="187"/>
			<point x="354.333" y="230.333" type="curve"/>
			<point x="353.247" y="297.667"/>
			<point x="307.064" y="331"/>
			<point x="219" y="331" type="curve"/>
			<point x="213.667" y="367.667" type="line"/>
			<point x="219.333" y="421" type="line"/>
			<point x="243.773" y="421"/>
			<point x="268.053" y="426.667"/>
			<point x="269.333" y="453.667" type="curve"/>
			<point x="341.333" y="472"/>
			<point x="380.333" y="508"/>
			<point x="362.333" y="570.667" type="curve" smooth="yes"/>
			<point x="346" y="624.667"/>
			<point x="295" y="636.333"/>
			<point x="254.333" y="616.667" type="curve"/>
			<point x="200.147" y="616.667"/>
			<point x="143.79" y="588"/>
			<point x="123.667" y="532" type="curve"/>
			<point x="111.213" y="576.667"/>
			<point x="104.383" y="600"/>
			<point x="139" y="600" type="curve"/>
			<point x="191" y="682"/>
			<point x="268" y="711.333"/>
		</contour>
	</outline>
</glyph>
<glyph name="four" format="2">
  <advance width="563"/>
  <unicode hex="0034"/>
  <outline>
    <contour>
      <point x="121.667" y="263.667" type="line"/>
      <point x="340.333" y="263.667" type="line"/>
      <point x="340.333" y="604.667" type="line"/>
    </contour>
    <contour>
      <point x="27.3333" y="170" type="line"/>
      <point x="27.3333" y="283.333" type="line"/>
      <point x="315.667" y="722" type="line"/>
      <point x="447.333" y="722" type="line"/>
      <point x="447.333" y="263.667" type="line"/>
      <point x="536.667" y="263.667" type="line"/>
      <point x="536.667" y="170" type="line"/>
      <point x="447.333" y="170" type="line"/>
      <point x="447.333" y="0" type="line"/>
      <point x="340.333" y="0" type="line"/>
      <point x="340.333" y="170" type="line"/>
    </contour>
  </outline>
</glyph>
<glyph name="five" format="2">
  <advance width="563"/>
  <unicode hex="0035"/>
  <outline>
    <contour>
      <point x="216" y="274.333" type="curve"/>
      <point x="258.333" y="226.333"/>
      <point x="316.667" y="174"/>
      <point x="364.667" y="131" type="curve"/>
      <point x="418" y="80.3333"/>
      <point x="413.333" y="93.3333"/>
      <point x="357" y="152" type="curve"/>
      <point x="315" y="228"/>
      <point x="259.333" y="288.333"/>
      <point x="205.667" y="332" type="curve"/>
      <point x="173.119" y="332"/>
      <point x="171.937" y="308.667"/>
      <point x="160.667" y="262.667" type="curve"/>
      <point x="150.832" y="243.667"/>
      <point x="132.513" y="233.333"/>
      <point x="142" y="233.333" type="curve"/>
      <point x="171.333" y="288.927"/>
      <point x="183.333" y="484.53"/>
      <point x="183.333" y="563.667" type="curve"/>
      <point x="240.897" y="590.667"/>
      <point x="380.096" y="604.333"/>
      <point x="405" y="604.333" type="curve"/>
      <point x="385.667" y="593.6"/>
      <point x="372.667" y="547.523"/>
      <point x="365.667" y="523.333" type="curve"/>
      <point x="133" y="523.333" type="line"/>
      <point x="139.667" y="515.333" type="line"/>
      <point x="179.973" y="538.667"/>
      <point x="298.828" y="560.667"/>
      <point x="380.333" y="560.667" type="curve"/>
      <point x="455.667" y="554.026"/>
      <point x="502.333" y="481.756"/>
      <point x="502.333" y="373.667" type="curve"/>
      <point x="483.1" y="273.667"/>
      <point x="349.822" y="193.667"/>
      <point x="260" y="193.667" type="curve"/>
      <point x="169.278" y="181.39"/>
      <point x="99.0234" y="183.064"/>
      <point x="98.3333" y="257.333" type="curve"/>
      <point x="118.516" y="267.667"/>
      <point x="180.847" y="274.333"/>
    </contour>
  </outline>
</glyph>
<glyph name="six" format="2">
  <advance width="563"/>
  <unicode hex="0036"/>
  <outline>
    <contour>
      <point x="169.667" y="216.333" type="curve" smooth="yes"/>
      <point x="169.667" y="132.333"/>
      <point x="204.333" y="73"/>
      <point x="286.333" y="73" type="curve" smooth="yes"/>
      <point x="369" y="73"/>
      <point x="404.667" y="133.333"/>
      <point x="404.667" y="220.667" type="curve" smooth="yes"/>
      <point x="404.667" y="306"/>
      <point x="371.667" y="366"/>
      <point x="290.333" y="366" type="curve" smooth="yes"/>
      <point x="210.333" y="366"/>
      <point x="169.667" y="307.333"/>
    </contour>
    <contour>
      <point x="42.3333" y="339.667" type="curve" smooth="yes"/>
      <point x="42.3333" y="569.333"/>
      <point x="102" y="736.333"/>
      <point x="302" y="736.333" type="curve" smooth="yes"/>
      <point x="422.667" y="736.333"/>
      <point x="503.667" y="658.667"/>
      <point x="503.667" y="547.333" type="curve"/>
      <point x="391.667" y="547.333" type="line"/>
      <point x="391.667" y="601.667"/>
      <point x="355.333" y="648"/>
      <point x="300.333" y="648" type="curve" smooth="yes"/>
      <point x="170" y="648"/>
      <point x="154.333" y="478.333"/>
      <point x="154.333" y="360.667" type="curve"/>
      <point x="184" y="415.667"/>
      <point x="247" y="451"/>
      <point x="308" y="451" type="curve" smooth="yes"/>
      <point x="447.667" y="451"/>
      <point x="521.333" y="362"/>
      <point x="521.333" y="222" type="curve" smooth="yes"/>
      <point x="521.333" y="83"/>
      <point x="428.333" y="-14.3333"/>
      <point x="275.667" y="-14.3333" type="curve" smooth="yes"/>
      <point x="65.6667" y="-14.3333"/>
      <point x="42.3333" y="169.667"/>
    </contour>
  </outline>
</glyph>
<glyph name="seven" format="2">
	<unicode hex="0037"/>
	<advance width="563"/>
	<outline>
		<contour>
			<point x="144" y="0" type="line"/>
			<point x="406.333" y="630.333" type="line"/>
			<point x="53" y="630.333" type="line"/>
			<point x="53" y="722" type="line"/>
			<point x="511" y="722" type="line"/>
			<point x="511" y="608.667" type="line"/>
			<point x="272.667" y="0" type="line"/>
		</contour>
	</outline>
</glyph>
<glyph name="eight" format="2">
  <advance width="563"/>
  <unicode hex="0038"/>
  <outline>
    <contour>
      <point x="151" y="203" type="curve" smooth="yes"/>
      <point x="151" y="122"/>
      <point x="199" y="74.3333"/>
      <point x="279.667" y="74.3333" type="curve" smooth="yes"/>
      <point x="360.333" y="74.3333"/>
      <point x="408.333" y="123"/>
      <point x="408.333" y="203.667" type="curve" smooth="yes"/>
      <point x="408.333" y="286"/>
      <point x="358.667" y="337.667"/>
      <point x="280.333" y="337.667" type="curve" smooth="yes"/>
      <point x="201.667" y="337.667"/>
      <point x="151" y="285.333"/>
    </contour>
    <contour>
      <point x="280.333" y="426.333" type="curve" smooth="yes"/>
      <point x="347" y="426.333"/>
      <point x="392.667" y="472"/>
      <point x="392.667" y="540.333" type="curve" smooth="yes"/>
      <point x="392.667" y="607"/>
      <point x="349.333" y="648.667"/>
      <point x="280.333" y="648.667" type="curve" smooth="yes"/>
      <point x="211" y="648.667"/>
      <point x="167.667" y="606.333"/>
      <point x="167.667" y="540.333" type="curve" smooth="yes"/>
      <point x="167.667" y="473"/>
      <point x="213.667" y="426.333"/>
    </contour>
    <contour>
      <point x="522.667" y="188" type="curve" smooth="yes"/>
      <point x="522.667" y="64.3333"/>
      <point x="429" y="-13.3333"/>
      <point x="280" y="-13.3333" type="curve" smooth="yes"/>
      <point x="131.667" y="-13.3333"/>
      <point x="38.6667" y="64.3333"/>
      <point x="38.6667" y="189" type="curve" smooth="yes"/>
      <point x="38.6667" y="284"/>
      <point x="89" y="354.667"/>
      <point x="179.333" y="384.667" type="curve"/>
      <point x="103.333" y="413"/>
      <point x="57.3333" y="477.333"/>
      <point x="57.3333" y="554.667" type="curve" smooth="yes"/>
      <point x="57.3333" y="663"/>
      <point x="148" y="737.333"/>
      <point x="281" y="737.333" type="curve" smooth="yes"/>
      <point x="414" y="737.333"/>
      <point x="505" y="662"/>
      <point x="505" y="552.333" type="curve" smooth="yes"/>
      <point x="505" y="477.667"/>
      <point x="462" y="421.667"/>
      <point x="377.333" y="385.333" type="curve"/>
      <point x="473.333" y="356"/>
      <point x="522.667" y="290"/>
    </contour>
  </outline>
</glyph>
<glyph name="nine" format="2">
	<unicode hex="0039"/>
	<advance width="563"/>
	<outline>
		<contour>
			<point x="276.667" y="355.667" type="curve" smooth="yes"/>
			<point x="362.333" y="355.667"/>
			<point x="394.333" y="413.667"/>
			<point x="394.333" y="502.333" type="curve" smooth="yes"/>
			<point x="394.333" y="591"/>
			<point x="363" y="648"/>
			<point x="276.667" y="648" type="curve" smooth="yes"/>
			<point x="190.333" y="648"/>
			<point x="159.667" y="591"/>
			<point x="159.667" y="502.333" type="curve" smooth="yes"/>
			<point x="159.667" y="413.667"/>
			<point x="190.333" y="355.667"/>
		</contour>
		<contour>
			<point x="171" y="174.667" type="line"/>
			<point x="171" y="107.333"/>
			<point x="206" y="73"/>
			<point x="273" y="73" type="curve" smooth="yes"/>
			<point x="400.333" y="73"/>
			<point x="410.667" y="264.667"/>
			<point x="410.667" y="361" type="curve"/>
			<point x="379" y="305.333"/>
			<point x="319.333" y="271"/>
			<point x="242.333" y="271" type="curve" smooth="yes"/>
			<point x="109.667" y="271"/>
			<point x="43.3333" y="373.333"/>
			<point x="43.3333" y="497" type="curve" smooth="yes"/>
			<point x="43.3333" y="631.667"/>
			<point x="122.667" y="736.667"/>
			<point x="278.333" y="736.667" type="curve" smooth="yes"/>
			<point x="497" y="736.667"/>
			<point x="521.333" y="574"/>
			<point x="521.333" y="384.333" type="curve" smooth="yes"/>
			<point x="521.333" y="180.333"/>
			<point x="471.667" y="-14"/>
			<point x="263.333" y="-14" type="curve" smooth="yes"/>
			<point x="134.333" y="-14"/>
			<point x="60.3333" y="60.3333"/>
			<point x="60.3333" y="174.667" type="curve"/>
		</contour>
	</outline>
</glyph>
<glyph name="less" format="2">
	<unicode hex="003C"/>
	<advance width="800"/>
	<outline>
		<contour>
			<point x="80" y="249" type="line"/>
			<point x="80" y="351" type="line"/>
			<point x="700" y="581" type="line"/>
			<point x="700" y="499" type="line"/>
			<point x="164" y="300" type="line"/>
			<point x="700" y="101" type="line"/>
			<point x="700" y="19" type="line"/>
		</contour>
	</outline>
</glyph>
<glyph name="question" format="2">
	<unicode hex="003F"/>
	<advance width="524"/>
	<outline>
		<contour>
			<point x="276" y="-1" type="line"/>
			<point x="169.333" y="-1" type="line"/>
			<point x="169.333" y="99.6667" type="line"/>
			<point x="276" y="99.6667" type="line"/>
		</contour>
		<contour>
			<point x="353.667" y="554.667" type="curve" smooth="yes"/>
			<point x="353.667" y="607"/>
			<point x="311.667" y="643.333"/>
			<point x="239.667" y="643.333" type="curve" smooth="yes"/>
			<point x="170" y="643.333"/>
			<point x="129.333" y="608.667"/>
			<point x="99.3333" y="552.667" type="curve"/>
			<point x="24.3333" y="601" type="line"/>
			<point x="68.6667" y="686"/>
			<point x="148.667" y="736"/>
			<point x="246.667" y="736" type="curve" smooth="yes"/>
			<point x="354.667" y="736"/>
			<point x="467.333" y="675.333"/>
			<point x="467.333" y="548.667" type="curve" smooth="yes"/>
			<point x="467.333" y="452.333"/>
			<point x="414" y="420"/>
			<point x="361.667" y="389.333" type="curve" smooth="yes"/>
			<point x="313.333" y="360.333"/>
			<point x="266.667" y="332.667"/>
			<point x="266.667" y="256.333" type="curve" smooth="yes"/>
			<point x="266.667" y="170.333" type="line"/>
			<point x="180" y="170.333" type="line"/>
			<point x="180" y="267.333" type="line" smooth="yes"/>
			<point x="180" y="336"/>
			<point x="219.667" y="367"/>
			<point x="261.667" y="399" type="curve" smooth="yes"/>
			<point x="307" y="433.667"/>
			<point x="353.667" y="469.667"/>
		</contour>
	</outline>
</glyph>
<glyph name="at" format="2">
	<unicode hex="0040"/>
	<advance width="1013"/>
	<outline>
		<contour>
			<point x="488.667" y="101.667" type="curve" smooth="yes"/>
			<point x="567" y="101.667"/>
			<point x="600" y="187.667"/>
			<point x="600" y="268" type="curve" smooth="yes"/>
			<point x="600" y="342"/>
			<point x="572" y="416"/>
			<point x="496.667" y="416" type="curve" smooth="yes"/>
			<point x="419.333" y="416"/>
			<point x="388.333" y="337.667"/>
			<point x="388.333" y="262" type="curve" smooth="yes"/>
			<point x="388.333" y="164"/>
			<point x="423" y="101.667"/>
		</contour>
		<contour>
			<point x="708.333" y="-166.667" type="line"/>
			<point x="655" y="-182"/>
			<point x="588.333" y="-189.667"/>
			<point x="528.333" y="-189.667" type="curve" smooth="yes"/>
			<point x="233.667" y="-189.667"/>
			<point x="54" y="-7.66667"/>
			<point x="54" y="278.333" type="curve" smooth="yes"/>
			<point x="54" y="545.333"/>
			<point x="247.667" y="722"/>
			<point x="508.333" y="722" type="curve" smooth="yes"/>
			<point x="769.667" y="722"/>
			<point x="960" y="576"/>
			<point x="960" y="299.333" type="curve" smooth="yes"/>
			<point x="960" y="167.667"/>
			<point x="893.333" y="16"/>
			<point x="753.333" y="16" type="curve" smooth="yes"/>
			<point x="691.667" y="16"/>
			<point x="646.333" y="45.6667"/>
			<point x="617" y="106.333" type="curve"/>
			<point x="585.667" y="55"/>
			<point x="541" y="20.6667"/>
			<point x="469" y="20.6667" type="curve" smooth="yes"/>
			<point x="350.667" y="20.6667"/>
			<point x="277" y="137.667"/>
			<point x="277" y="264.667" type="curve" smooth="yes"/>
			<point x="277" y="383.333"/>
			<point x="341.667" y="497"/>
			<point x="463" y="497" type="curve" smooth="yes"/>
			<point x="537.333" y="497"/>
			<point x="568.333" y="473"/>
			<point x="604" y="431.333" type="curve"/>
			<point x="604" y="487" type="line"/>
			<point x="709.333" y="487" type="line"/>
			<point x="709.333" y="189.333" type="line" smooth="yes"/>
			<point x="709.333" y="151.333"/>
			<point x="723" y="107"/>
			<point x="760.667" y="107" type="curve" smooth="yes"/>
			<point x="826" y="107"/>
			<point x="850" y="237.333"/>
			<point x="850" y="289.333" type="curve" smooth="yes"/>
			<point x="850" y="510.333"/>
			<point x="733" y="623.333"/>
			<point x="512.333" y="623.333" type="curve" smooth="yes"/>
			<point x="301.667" y="623.333"/>
			<point x="163.333" y="486.667"/>
			<point x="163.333" y="276.333" type="curve" smooth="yes"/>
			<point x="163.333" y="51.6667"/>
			<point x="293" y="-90"/>
			<point x="525.333" y="-90" type="curve" smooth="yes"/>
			<point x="603.667" y="-90"/>
			<point x="650" y="-84.6667"/>
			<point x="708.333" y="-68.3333" type="curve"/>
		</contour>
	</outline>
</glyph>
<glyph name="A" format="2">
	<unicode hex="0041"/>
	<advance width="736"/>
	<outline>
		<contour>
			<point x="241.333" y="275" type="line"/>
			<point x="490.333" y="275" type="line"/>
			<point x="365.667" y="594.333" type="line"/>
		</contour>
		<contour>
			<point x="13.3333" y="0" type="line"/>
			<point x="305.667" y="721.333" type="line"/>
			<point x="428.667" y="721.333" type="line"/>
			<point x="723.333" y="0" type="line"/>
			<point x="604.333" y="0" type="line"/>
			<point x="532.333" y="180" type="line"/>
			<point x="201.333" y="180" type="line"/>
			<point x="130.333" y="0" type="line"/>
		</contour>
	</outline>
	<anchor name="bottom" x="368.333" y="-75"/>
	<anchor name="ogonekUC" x="636.333" y="10"/>
	<anchor name="top" x="368.333" y="797"/>
</glyph>
<glyph name="B" format="2">
	<unicode hex="0042"/>
	<advance width="653"/>
	<outline>
		<contour>
			<point x="180" y="96.3333" type="line"/>
			<point x="320.333" y="96.3333" type="line" smooth="yes"/>
			<point x="423.333" y="96.3333"/>
			<point x="487" y="142"/>
			<point x="487" y="215.667" type="curve" smooth="yes"/>
			<point x="487" y="287.333"/>
			<point x="427.667" y="329"/>
			<point x="324" y="329" type="curve" smooth="yes"/>
			<point x="180" y="329" type="line"/>
		</contour>
		<contour>
			<point x="180" y="422.333" type="line"/>
			<point x="309" y="422.333" type="line" smooth="yes"/>
			<point x="408.667" y="422.333"/>
			<point x="461" y="457.333"/>
			<point x="461" y="523.667" type="curve" smooth="yes"/>
			<point x="461" y="588.333"/>
			<point x="411.667" y="625.333"/>
			<point x="322" y="625.333" type="curve" smooth="yes"/>
			<point x="180" y="625.333" type="line"/>
		</contour>
		<contour>
			<point x="63.3333" y="0" type="line"/>
			<point x="63.3333" y="721.667" type="line"/>
			<point x="355.667" y="721.667" type="line" smooth="yes"/>
			<point x="488.667" y="721.667"/>
			<point x="573" y="653.667"/>
			<point x="573" y="545.333" type="curve" smooth="yes"/>
			<point x="573" y="466"/>
			<point x="528" y="410.667"/>
			<point x="442.667" y="385.667" type="curve"/>
			<point x="442.667" y="381" type="line"/>
			<point x="542" y="359.667"/>
			<point x="601.667" y="292.333"/>
			<point x="601.667" y="201.667" type="curve" smooth="yes"/>
			<point x="601.667" y="86"/>
			<point x="506.667" y="0"/>
			<point x="376.333" y="0" type="curve" smooth="yes"/>
		</contour>
	</outline>
	<anchor name="top" x="277" y="797"/>
</glyph>
<glyph name="C" format="2">
	<unicode hex="0043"/>
	<advance width="682"/>
	<outline>
		<contour>
			<point x="51.6667" y="354.667" type="curve" smooth="yes"/>
			<point x="51.6667" y="597.667"/>
			<point x="157.667" y="735.667"/>
			<point x="363" y="735.667" type="curve" smooth="yes"/>
			<point x="524.667" y="735.667"/>
			<point x="625.333" y="649.667"/>
			<point x="625.333" y="515.667" type="curve"/>
			<point x="509.667" y="515.667" type="line"/>
			<point x="509.667" y="590.333"/>
			<point x="452" y="644"/>
			<point x="361" y="644" type="curve" smooth="yes"/>
			<point x="231.333" y="644"/>
			<point x="169" y="537"/>
			<point x="169" y="351.667" type="curve" smooth="yes"/>
			<point x="169" y="176"/>
			<point x="221" y="78"/>
			<point x="361.333" y="78" type="curve" smooth="yes"/>
			<point x="452" y="78"/>
			<point x="511.333" y="134.333"/>
			<point x="511.333" y="211.333" type="curve"/>
			<point x="629" y="211.333" type="line"/>
			<point x="629" y="78"/>
			<point x="532" y="-13.6667"/>
			<point x="364" y="-13.6667" type="curve" smooth="yes"/>
			<point x="166.667" y="-13.6667"/>
			<point x="51.6667" y="111.667"/>
		</contour>
	</outline>
	<anchor name="bottom" x="363.333" y="10"/>
	<anchor name="top" x="343.667" y="797"/>
</glyph>
<glyph name="D" format="2">
	<unicode hex="0044"/>
	<advance width="703"/>
	<outline>
		<contour>
			<point x="63.3333" y="0" type="line"/>
			<point x="63.3333" y="721.333" type="line"/>
			<point x="285.667" y="721.333" type="line" smooth="yes"/>
			<point x="514.333" y="721.333"/>
			<point x="651.333" y="595"/>
			<point x="651.333" y="363.667" type="curve" smooth="yes"/>
			<point x="651.333" y="131"/>
			<point x="514" y="0"/>
			<point x="285.667" y="0" type="curve" smooth="yes"/>
		</contour>
		<contour>
			<point x="180" y="96" type="line"/>
			<point x="287" y="96" type="line" smooth="yes"/>
			<point x="447" y="96"/>
			<point x="534" y="195.667"/>
			<point x="534" y="361.667" type="curve" smooth="yes"/>
			<point x="534" y="527.667"/>
			<point x="447.667" y="625"/>
			<point x="287" y="625" type="curve" smooth="yes"/>
			<point x="180" y="625" type="line"/>
		</contour>
	</outline>
	<anchor name="top" x="254" y="797"/>
</glyph>
<glyph name="E" format="2">
	<unicode hex="0045"/>
	<advance width="593"/>
	<outline>
		<contour>
			<point x="63.3333" y="0" type="line"/>
			<point x="63.3333" y="722" type="line"/>
			<point x="520.333" y="722" type="line"/>
			<point x="520.333" y="625.667" type="line"/>
			<point x="180" y="625.667" type="line"/>
			<point x="180" y="418.333" type="line"/>
			<point x="507" y="418.333" type="line"/>
			<point x="507" y="323.667" type="line"/>
			<point x="180" y="323.667" type="line"/>
			<point x="180" y="96.3333" type="line"/>
			<point x="530.333" y="96.3333" type="line"/>
			<point x="530.333" y="0" type="line"/>
		</contour>
	</outline>
	<anchor name="top" x="290.667" y="797"/>
</glyph>
<glyph name="F" format="2">
  <advance width="554"/>
  <unicode hex="0046"/>
  <anchor x="284" y="797" name="top"/>
  <outline>
    <contour>
      <point x="63.3333" y="0" type="line"/>
      <point x="63.3333" y="722" type="line"/>
      <point x="496.333" y="722" type="line"/>
      <point x="496.333" y="625.667" type="line"/>
      <point x="180" y="625.667" type="line"/>
      <point x="180" y="418.667" type="line"/>
      <point x="476.333" y="418.667" type="line"/>
      <point x="476.333" y="322.333" type="line"/>
      <point x="180" y="322.333" type="line"/>
      <point x="180" y="0" type="line"/>
    </contour>
  </outline>
</glyph>
<glyph name="G" format="2">
	<unicode hex="0047"/>
	<advance width="748"/>
	<outline>
		<contour>
			<point x="51.3333" y="376" type="curve" smooth="yes"/>
			<point x="51.3333" y="585.333"/>
			<point x="196" y="736"/>
			<point x="407" y="736" type="curve" smooth="yes"/>
			<point x="568.667" y="736"/>
			<point x="688" y="656"/>
			<point x="688" y="526.333" type="curve"/>
			<point x="570.333" y="526.333" type="line"/>
			<point x="570.333" y="595"/>
			<point x="498" y="639.667"/>
			<point x="411" y="639.667" type="curve" smooth="yes"/>
			<point x="249.333" y="639.667"/>
			<point x="170" y="530.333"/>
			<point x="170" y="377.667" type="curve" smooth="yes"/>
			<point x="170" y="190"/>
			<point x="255.667" y="83"/>
			<point x="413" y="83" type="curve" smooth="yes"/>
			<point x="463.333" y="83"/>
			<point x="514.333" y="89.6667"/>
			<point x="564.667" y="104" type="curve"/>
			<point x="564.667" y="286.333" type="line"/>
			<point x="412" y="286.333" type="line"/>
			<point x="412" y="384" type="line"/>
			<point x="682" y="384" type="line"/>
			<point x="682" y="34.3333" type="line"/>
			<point x="594.333" y="1.66667"/>
			<point x="509.667" y="-14"/>
			<point x="425.667" y="-14" type="curve" smooth="yes"/>
			<point x="181.667" y="-14"/>
			<point x="51.3333" y="119.333"/>
		</contour>
	</outline>
	<anchor name="top" x="378" y="797"/>
</glyph>
<glyph name="H" format="2">
	<unicode hex="0048"/>
	<advance width="691"/>
	<outline>
		<contour>
			<point x="66.6667" y="0" type="line"/>
			<point x="66.6667" y="722" type="line"/>
			<point x="181.667" y="722" type="line"/>
			<point x="181.667" y="420.333" type="line"/>
			<point x="509.333" y="420.333" type="line"/>
			<point x="509.333" y="722" type="line"/>
			<point x="624.333" y="722" type="line"/>
			<point x="624.333" y="0" type="line"/>
			<point x="509.333" y="0" type="line"/>
			<point x="509.333" y="324" type="line"/>
			<point x="181.667" y="324" type="line"/>
			<point x="181.667" y="0" type="line"/>
		</contour>
	</outline>
	<anchor name="bottom" x="339.333" y="-75"/>
	<anchor name="cedilla.bottom" x="123.333" y="10"/>
	<anchor name="left" x="16.6667" y="361"/>
	<anchor name="top" x="339.333" y="797"/>
</glyph>
<glyph name="L" format="2">
	<unicode hex="004C"/>
	<advance width="520"/>
	<outline>
		<contour>
			<point x="63.3333" y="0" type="line"/>
			<point x="63.3333" y="722" type="line"/>
			<point x="180" y="722" type="line"/>
			<point x="180" y="96.3333" type="line"/>
			<point x="502" y="96.3333" type="line"/>
			<point x="502" y="0" type="line"/>
		</contour>
	</outline>
	<anchor name="top" x="116.667" y="797"/>
</glyph>
<glyph name="M" format="2">
	<unicode hex="004D"/>
	<advance width="882"/>
	<outline>
		<contour>
			<point x="63.3333" y="0" type="line"/>
			<point x="63.3333" y="722" type="line"/>
			<point x="246" y="722" type="line"/>
			<point x="440.333" y="160" type="line"/>
			<point x="636" y="723.333" type="line"/>
			<point x="818.667" y="723.333" type="line"/>
			<point x="818.667" y="0" type="line"/>
			<point x="702" y="0" type="line"/>
			<point x="702" y="618" type="line"/>
			<point x="708" y="618" type="line"/>
			<point x="491" y="0" type="line"/>
			<point x="389.667" y="0" type="line"/>
			<point x="174" y="614.667" type="line"/>
			<point x="180" y="614.667" type="line"/>
			<point x="180" y="0" type="line"/>
		</contour>
	</outline>
	<anchor name="top" x="405" y="797"/>
</glyph>
<glyph name="N" format="2">
  <advance width="711"/>
  <unicode hex="004E"/>
  <anchor x="358" y="797" name="top"/>
  <outline>
    <contour>
      <point x="63.3333" y="0" type="line"/>
      <point x="63.3333" y="722" type="line"/>
      <point x="228" y="722" type="line"/>
      <point x="534.667" y="135" type="line"/>
      <point x="534.667" y="722" type="line"/>
      <point x="648" y="722" type="line"/>
      <point x="648" y="0" type="line"/>
      <point x="482.667" y="0" type="line"/>
      <point x="176.667" y="587" type="line"/>
      <point x="176.667" y="0" type="line"/>
    </contour>
  </outline>
</glyph>
<glyph name="O" format="2">
	<unicode hex="004F"/>
	<advance width="767"/>
	<outline>
		<contour>
			<point x="52" y="368" type="curve" smooth="yes"/>
			<point x="52" y="585"/>
			<point x="165" y="735.333"/>
			<point x="384.667" y="735.333" type="curve" smooth="yes"/>
			<point x="603.667" y="735.333"/>
			<point x="715.667" y="584.667"/>
			<point x="715.667" y="368" type="curve" smooth="yes"/>
			<point x="715.667" y="152.667"/>
			<point x="605.667" y="-14"/>
			<point x="384.667" y="-14" type="curve" smooth="yes"/>
			<point x="163" y="-14"/>
			<point x="52" y="153"/>
		</contour>
		<contour>
			<point x="171" y="366" type="curve" smooth="yes"/>
			<point x="171" y="200.667"/>
			<point x="230" y="82.6667"/>
			<point x="383.667" y="82.6667" type="curve" smooth="yes"/>
			<point x="544.333" y="82.6667"/>
			<point x="596.667" y="210"/>
			<point x="596.667" y="367.667" type="curve" smooth="yes"/>
			<point x="596.667" y="522.667"/>
			<point x="546" y="639.333"/>
			<point x="384.667" y="639.333" type="curve" smooth="yes"/>
			<point x="234" y="639.333"/>
			<point x="171" y="534.667"/>
		</contour>
	</outline>
	<anchor name="top" x="374" y="797"/>
</glyph>
<glyph name="P" format="2">
	<unicode hex="0050"/>
	<advance width="614"/>
	<outline>
		<contour>
			<point x="178" y="392" type="line"/>
			<point x="283" y="392" type="line" smooth="yes"/>
			<point x="379" y="392"/>
			<point x="445.667" y="412"/>
			<point x="445.667" y="507.333" type="curve" smooth="yes"/>
			<point x="445.667" y="604.667"/>
			<point x="375.667" y="625.333"/>
			<point x="272.667" y="625.333" type="curve" smooth="yes"/>
			<point x="178" y="625.333" type="line"/>
		</contour>
		<contour>
			<point x="63" y="0" type="line"/>
			<point x="63" y="721.667" type="line"/>
			<point x="262" y="721.667" type="line" smooth="yes"/>
			<point x="423.333" y="721.667"/>
			<point x="560.667" y="686.667"/>
			<point x="560.667" y="510.333" type="curve" smooth="yes"/>
			<point x="560.667" y="344"/>
			<point x="440.333" y="295"/>
			<point x="283" y="295" type="curve" smooth="yes"/>
			<point x="178" y="295" type="line"/>
			<point x="178" y="0" type="line"/>
		</contour>
	</outline>
	<anchor name="top" x="254.333" y="797"/>
</glyph>
<glyph name="Q" format="2">
	<unicode hex="0051"/>
	<advance width="815"/>
	<outline>
		<contour>
			<point x="169.667" y="366" type="curve" smooth="yes"/>
			<point x="169.667" y="184"/>
			<point x="246.667" y="83"/>
			<point x="384" y="83" type="curve" smooth="yes"/>
			<point x="526.667" y="83"/>
			<point x="595.333" y="192.667"/>
			<point x="595.333" y="366.333" type="curve" smooth="yes"/>
			<point x="595.333" y="532"/>
			<point x="532" y="639"/>
			<point x="383.333" y="639" type="curve" smooth="yes"/>
			<point x="234.333" y="639"/>
			<point x="169.667" y="530.333"/>
		</contour>
		<contour>
			<point x="51.3333" y="368" type="curve" smooth="yes"/>
			<point x="51.3333" y="588"/>
			<point x="178.667" y="736"/>
			<point x="382.667" y="736" type="curve" smooth="yes"/>
			<point x="589.667" y="736"/>
			<point x="715.667" y="584"/>
			<point x="715.667" y="378" type="curve" smooth="yes"/>
			<point x="715.667" y="263.667"/>
			<point x="676.667" y="148.333"/>
			<point x="605" y="78" type="curve"/>
			<point x="639.667" y="87.3333"/>
			<point x="721" y="96"/>
			<point x="770" y="97" type="curve"/>
			<point x="770" y="0" type="line"/>
			<point x="583.667" y="0" type="line" smooth="yes"/>
			<point x="554.667" y="0"/>
			<point x="496.333" y="-2.66667"/>
			<point x="475" y="-7" type="curve" smooth="yes"/>
			<point x="467.667" y="-8.33333" type="line" smooth="yes"/>
			<point x="451.333" y="-11.6667"/>
			<point x="420" y="-14"/>
			<point x="395.333" y="-14" type="curve" smooth="yes"/>
			<point x="178.333" y="-14"/>
			<point x="51.3333" y="149.333"/>
		</contour>
	</outline>
	<anchor name="top" x="380" y="800.333"/>
</glyph>
<glyph name="R" format="2">
  <advance width="639"/>
  <unicode hex="0052"/>
  <anchor x="282" y="797" name="top"/>
  <outline>
    <contour>
      <point x="61.6667" y="0" type="line"/>
      <point x="61.6667" y="722.333" type="line"/>
      <point x="307.667" y="722.333" type="line" smooth="yes"/>
      <point x="474" y="722.333"/>
      <point x="573.667" y="672.333"/>
      <point x="573.667" y="526.333" type="curve" smooth="yes"/>
      <point x="573.667" y="449"/>
      <point x="519.333" y="389.333"/>
      <point x="430.667" y="363.667" type="curve"/>
      <point x="430.667" y="367.667" type="line"/>
      <point x="518.667" y="352.333"/>
      <point x="535.333" y="299"/>
      <point x="547.667" y="221" type="curve" smooth="yes"/>
      <point x="559.333" y="143.667" type="line" smooth="yes"/>
      <point x="567.333" y="91"/>
      <point x="580" y="36.3333"/>
      <point x="593" y="0" type="curve"/>
      <point x="472.333" y="0" type="line"/>
      <point x="462.667" y="33"/>
      <point x="454.333" y="81.3333"/>
      <point x="447" y="138" type="curve" smooth="yes"/>
      <point x="443" y="167" type="line" smooth="yes"/>
      <point x="429.667" y="272.667"/>
      <point x="399" y="317"/>
      <point x="301.667" y="317" type="curve" smooth="yes"/>
      <point x="178.333" y="317" type="line"/>
      <point x="178.333" y="0" type="line"/>
    </contour>
    <contour>
      <point x="178.333" y="412.667" type="line"/>
      <point x="302.333" y="412.667" type="line" smooth="yes"/>
      <point x="404.333" y="412.667"/>
      <point x="456.333" y="448"/>
      <point x="456.333" y="518.333" type="curve" smooth="yes"/>
      <point x="456.333" y="591"/>
      <point x="409.667" y="625.333"/>
      <point x="305.667" y="625.333" type="curve" smooth="yes"/>
      <point x="178.333" y="625.333" type="line"/>
    </contour>
  </outline>
</glyph>
<glyph name="S" format="2">
	<unicode hex="0053"/>
	<advance width="655"/>
	<outline>
		<contour>
			<point x="51" y="219.333" type="curve"/>
			<point x="167.667" y="219.333" type="line"/>
			<point x="167.667" y="133.667"/>
			<point x="239.333" y="83"/>
			<point x="331" y="83" type="curve" smooth="yes"/>
			<point x="424" y="83"/>
			<point x="488" y="119.667"/>
			<point x="488" y="194.333" type="curve" smooth="yes"/>
			<point x="488" y="270.333"/>
			<point x="420" y="301.667"/>
			<point x="307" y="324.333" type="curve" smooth="yes"/>
			<point x="150.333" y="356"/>
			<point x="63.6667" y="407"/>
			<point x="63.6667" y="529.333" type="curve" smooth="yes"/>
			<point x="63.6667" y="657.667"/>
			<point x="167" y="737"/>
			<point x="319.667" y="737" type="curve" smooth="yes"/>
			<point x="476.333" y="737"/>
			<point x="577.667" y="668.667"/>
			<point x="577.667" y="533.333" type="curve"/>
			<point x="461" y="533.333" type="line"/>
			<point x="461" y="607"/>
			<point x="412" y="642"/>
			<point x="313.667" y="642" type="curve" smooth="yes"/>
			<point x="225" y="642"/>
			<point x="181" y="606"/>
			<point x="181" y="541.333" type="curve" smooth="yes"/>
			<point x="181" y="454"/>
			<point x="267.667" y="434"/>
			<point x="347.667" y="417.333" type="curve" smooth="yes"/>
			<point x="465" y="392.333"/>
			<point x="603" y="362.333"/>
			<point x="603" y="208.667" type="curve" smooth="yes"/>
			<point x="603" y="64.3333"/>
			<point x="505.333" y="-14"/>
			<point x="324.333" y="-14" type="curve" smooth="yes"/>
			<point x="168" y="-14"/>
			<point x="51" y="73"/>
		</contour>
	</outline>
	<anchor name="top" x="317" y="797"/>
</glyph>
<glyph name="T" format="2">
	<unicode hex="0054"/>
	<advance width="626"/>
	<outline>
		<contour>
			<point x="596.667" y="625.667" type="line"/>
			<point x="368.333" y="625.667" type="line"/>
			<point x="368.333" y="0" type="line"/>
			<point x="251.667" y="0" type="line"/>
			<point x="251.667" y="625.667" type="line"/>
			<point x="23.3333" y="625.667" type="line"/>
			<point x="23.3333" y="722" type="line"/>
			<point x="596.667" y="722" type="line"/>
		</contour>
	</outline>
	<anchor name="top" x="309.333" y="797"/>
</glyph>
<glyph name="U" format="2">
	<unicode hex="0055"/>
	<advance width="717"/>
	<outline>
		<contour>
			<point x="64" y="314.333" type="curve" smooth="yes"/>
			<point x="64" y="722" type="line"/>
			<point x="179" y="722" type="line"/>
			<point x="179" y="314.333" type="line" smooth="yes"/>
			<point x="179" y="167.667"/>
			<point x="223.333" y="83"/>
			<point x="357.333" y="83" type="curve" smooth="yes"/>
			<point x="491.667" y="83"/>
			<point x="536.333" y="169.667"/>
			<point x="536.333" y="314.333" type="curve" smooth="yes"/>
			<point x="536.333" y="722" type="line"/>
			<point x="651.333" y="722" type="line"/>
			<point x="651.333" y="314.333" type="line" smooth="yes"/>
			<point x="651.333" y="87.3333"/>
			<point x="567.667" y="-13.6667"/>
			<point x="356.333" y="-13.6667" type="curve" smooth="yes"/>
			<point x="145" y="-13.6667"/>
			<point x="64" y="101.667"/>
		</contour>
	</outline>
	<anchor name="bottom" x="358" y="-62.6667"/>
	<anchor name="top" x="350" y="797"/>
</glyph>
<glyph name="V" format="2">
	<unicode hex="0056"/>
	<advance width="682"/>
	<outline>
		<contour>
			<point x="668.667" y="722" type="line"/>
			<point x="405.667" y="0" type="line"/>
			<point x="273" y="0" type="line"/>
			<point x="13.3333" y="722" type="line"/>
			<point x="142" y="722" type="line"/>
			<point x="341" y="142.333" type="line"/>
			<point x="540" y="722" type="line"/>
		</contour>
	</outline>
	<anchor name="top" x="371" y="797"/>
</glyph>
<glyph name="W" format="2">
  <advance width="981"/>
  <unicode hex="0057"/>
  <anchor x="488.667" y="797" name="top"/>
  <outline>
    <contour>
      <point x="968" y="722" type="line"/>
      <point x="765.333" y="0" type="line"/>
      <point x="648.667" y="0" type="line"/>
      <point x="490.667" y="581.667" type="line"/>
      <point x="332.667" y="0" type="line"/>
      <point x="216" y="0" type="line"/>
      <point x="13.3333" y="722" type="line"/>
      <point x="137.333" y="722" type="line"/>
      <point x="276" y="160" type="line"/>
      <point x="424.333" y="722" type="line"/>
      <point x="557" y="722" type="line"/>
      <point x="705.333" y="160" type="line"/>
      <point x="844" y="722" type="line"/>
    </contour>
  </outline>
</glyph>
<glyph name="X" format="2">
  <advance width="687"/>
  <unicode hex="0058"/>
  <anchor x="365.667" y="797" name="top"/>
  <outline>
    <contour>
      <point x="673.667" y="0" type="line"/>
      <point x="531.667" y="0" type="line"/>
      <point x="334.667" y="300.667" type="line"/>
      <point x="142" y="0" type="line"/>
      <point x="13.3333" y="0" type="line"/>
      <point x="274" y="382" type="line"/>
      <point x="43" y="722" type="line"/>
      <point x="185" y="722" type="line"/>
      <point x="351" y="463.667" type="line"/>
      <point x="513.333" y="722" type="line"/>
      <point x="643.667" y="722" type="line"/>
      <point x="411.333" y="382" type="line"/>
    </contour>
  </outline>
</glyph>
<glyph name="Z" format="2">
	<unicode hex="005A"/>
	<advance width="628"/>
	<outline>
		<contour>
			<point x="580" y="0" type="line"/>
			<point x="48.3333" y="0" type="line"/>
			<point x="48.3333" y="115" type="line"/>
			<point x="439.667" y="625.667" type="line"/>
			<point x="69" y="625.667" type="line"/>
			<point x="69" y="722" type="line"/>
			<point x="570.667" y="722" type="line"/>
			<point x="570.667" y="607" type="line"/>
			<point x="179.333" y="96.3333" type="line"/>
			<point x="580" y="96.3333" type="line"/>
		</contour>
	</outline>
	<anchor name="top" x="319.667" y="797"/>
</glyph>
<glyph name="backslash" format="2">
	<unicode hex="005C"/>
	<advance width="406"/>
	<outline>
		<contour>
			<point x="374.333" y="-52" type="line"/>
			<point x="282" y="-52" type="line"/>
			<point x="46" y="736" type="line"/>
			<point x="138.333" y="736" type="line"/>
		</contour>
	</outline>
</glyph>
<glyph name="asciicircum" format="2">
	<unicode hex="005E"/>
	<advance width="748"/>
	<outline>
		<contour>
			<point x="635" y="10" type="line"/>
			<point x="573" y="10" type="line"/>
			<point x="374" y="546" type="line"/>
			<point x="175" y="10" type="line"/>
			<point x="113" y="10" type="line"/>
			<point x="343" y="610" type="line"/>
			<point x="405" y="610" type="line"/>
		</contour>
	</outline>
</glyph>
<glyph name="grave" format="2">
	<unicode hex="0060"/>
	<advance width="236"/>
	<outline>
		<contour>
			<point x="182.667" y="600" type="line"/>
			<point x="118.667" y="600" type="line"/>
			<point x="-25" y="774" type="line"/>
			<point x="85.6667" y="774" type="line"/>
		</contour>
	</outline>
</glyph>
<glyph name="c" format="2">
  <advance width="540"/>
  <unicode hex="0063"/>
  <anchor x="271" y="586.667" name="top"/>
  <outline>
    <contour>
      <point x="54.6667" y="241" type="curve" smooth="yes"/>
      <point x="54.6667" y="401.333"/>
      <point x="132.667" y="512.667"/>
      <point x="284.333" y="512.667" type="curve" smooth="yes"/>
      <point x="400.667" y="512.667"/>
      <point x="477" y="455.667"/>
      <point x="482.333" y="335.333" type="curve"/>
      <point x="375" y="335.333" type="line"/>
      <point x="370" y="394.333"/>
      <point x="342.667" y="440.667"/>
      <point x="279" y="440.667" type="curve" smooth="yes"/>
      <point x="182" y="440.667"/>
      <point x="163" y="335"/>
      <point x="163" y="246.667" type="curve" smooth="yes"/>
      <point x="163" y="132"/>
      <point x="192" y="58.6667"/>
      <point x="277.333" y="58.6667" type="curve" smooth="yes"/>
      <point x="344" y="58.6667"/>
      <point x="376.667" y="103"/>
      <point x="376.667" y="174" type="curve"/>
      <point x="485" y="174" type="line"/>
      <point x="481" y="58.3333"/>
      <point x="403.333" y="-12.6667"/>
      <point x="278" y="-12.6667" type="curve" smooth="yes"/>
      <point x="135.667" y="-12.6667"/>
      <point x="54.6667" y="77.6667"/>
    </contour>
  </outline>
</glyph>
<glyph name="d" format="2">
	<unicode hex="0064"/>
	<advance width="609"/>
	<outline>
		<contour>
			<point x="159.667" y="247" type="curve" smooth="yes"/>
			<point x="159.667" y="157"/>
			<point x="204" y="62"/>
			<point x="299.667" y="62" type="curve" smooth="yes"/>
			<point x="386.667" y="62"/>
			<point x="431" y="141"/>
			<point x="431" y="247" type="curve" smooth="yes"/>
			<point x="431" y="334.667"/>
			<point x="400.667" y="442"/>
			<point x="295.333" y="442" type="curve" smooth="yes"/>
			<point x="192.333" y="442"/>
			<point x="159.667" y="337.667"/>
		</contour>
		<contour>
			<point x="54.6667" y="252.667" type="curve" smooth="yes"/>
			<point x="54.6667" y="414"/>
			<point x="149.333" y="513.333"/>
			<point x="280" y="513.333" type="curve" smooth="yes"/>
			<point x="355" y="513.333"/>
			<point x="399.667" y="484"/>
			<point x="431" y="441.667" type="curve"/>
			<point x="431" y="722" type="line"/>
			<point x="536" y="722" type="line"/>
			<point x="536" y="-0.333333" type="line"/>
			<point x="431" y="-0.333333" type="line"/>
			<point x="431" y="60.6667" type="line"/>
			<point x="404.333" y="29.6667"/>
			<point x="346.333" y="-13.3333"/>
			<point x="285.333" y="-13.3333" type="curve" smooth="yes"/>
			<point x="134.667" y="-13.3333"/>
			<point x="54.6667" y="103.333"/>
		</contour>
	</outline>
</glyph>
<glyph name="e" format="2">
	<unicode hex="0065"/>
	<advance width="567"/>
	<outline>
		<contour>
			<point x="54.6667" y="247" type="curve" smooth="yes"/>
			<point x="54.6667" y="403.333"/>
			<point x="129.667" y="512.667"/>
			<point x="287.667" y="512.667" type="curve" smooth="yes"/>
			<point x="436" y="512.667"/>
			<point x="511.333" y="415.667"/>
			<point x="511.333" y="275" type="curve" smooth="yes"/>
			<point x="511.333" y="231.667" type="line"/>
			<point x="164" y="231.667" type="line"/>
			<point x="164" y="140"/>
			<point x="200" y="58"/>
			<point x="291" y="58" type="curve" smooth="yes"/>
			<point x="357" y="58"/>
			<point x="394.333" y="101.333"/>
			<point x="400.333" y="158.667" type="curve"/>
			<point x="509.667" y="158.667" type="line"/>
			<point x="492.667" y="51"/>
			<point x="416" y="-14"/>
			<point x="285.667" y="-14" type="curve" smooth="yes"/>
			<point x="123.333" y="-14"/>
			<point x="54.6667" y="97.6667"/>
		</contour>
		<contour>
			<point x="164" y="303.333" type="curve"/>
			<point x="402" y="303.333" type="line"/>
			<point x="402" y="365.667"/>
			<point x="377.333" y="441"/>
			<point x="285.667" y="441" type="curve" smooth="yes"/>
			<point x="211.333" y="441"/>
			<point x="164" y="391"/>
		</contour>
	</outline>
	<anchor name="top" x="281" y="586.667"/>
</glyph>
<glyph name="f" format="2">
  <advance width="348"/>
  <unicode hex="0066"/>
  <anchor x="197" y="774.667" name="top"/>
  <outline>
    <contour>
      <point x="116" y="575" type="line" smooth="yes"/>
      <point x="116" y="688.333"/>
      <point x="160" y="733"/>
      <point x="263.424" y="733" type="curve" smooth="yes"/>
      <point x="293.835" y="733"/>
      <point x="322.667" y="729"/>
      <point x="348.333" y="720.333" type="curve"/>
      <point x="348.333" y="642.667" type="line"/>
      <point x="331.358" y="652.158"/>
      <point x="311.391" y="655.333"/>
      <point x="292.576" y="655.333" type="curve" smooth="yes"/>
      <point x="238.002" y="655.333"/>
      <point x="221" y="629"/>
      <point x="221" y="572.667" type="curve" smooth="yes"/>
      <point x="221" y="500" type="line"/>
      <point x="336.333" y="500" type="line"/>
      <point x="336.333" y="428.333" type="line"/>
      <point x="221" y="428.333" type="line"/>
      <point x="221" y="0" type="line"/>
      <point x="116" y="0" type="line"/>
      <point x="116" y="428.333" type="line"/>
      <point x="19.3333" y="428.333" type="line"/>
      <point x="19.3333" y="500" type="line"/>
      <point x="116" y="500" type="line"/>
    </contour>
  </outline>
</glyph>
<glyph name="h" format="2">
	<unicode hex="0068"/>
	<advance width="591"/>
	<outline>
		<contour>
			<point x="343.667" y="512.667" type="curve" smooth="yes"/>
			<point x="459.667" y="512.667"/>
			<point x="517.333" y="449.333"/>
			<point x="517.333" y="319.667" type="curve" smooth="yes"/>
			<point x="517.333" y="-0.333333" type="line"/>
			<point x="412.333" y="-0.333333" type="line"/>
			<point x="412.333" y="309" type="line" smooth="yes"/>
			<point x="412.333" y="387.333"/>
			<point x="377" y="440.667"/>
			<point x="312.333" y="440.667" type="curve" smooth="yes"/>
			<point x="245" y="440.667"/>
			<point x="178.333" y="381.333"/>
			<point x="178.333" y="296.667" type="curve" smooth="yes"/>
			<point x="178.333" y="-0.333333" type="line"/>
			<point x="73.3333" y="-0.333333" type="line"/>
			<point x="73.3333" y="722" type="line"/>
			<point x="178.333" y="722" type="line"/>
			<point x="178.333" y="438.667" type="line"/>
			<point x="210.783" y="484.58"/>
			<point x="267.307" y="512.667"/>
		</contour>
	</outline>
	<anchor name="bottom" x="297.667" y="-75.3333"/>
	<anchor name="cedilla.bottom" x="124.333" y="6.66667"/>
	<anchor name="top" x="297.667" y="796.667"/>
</glyph>
<glyph name="l" format="2">
	<unicode hex="006C"/>
	<advance width="252"/>
	<outline>
		<contour>
			<point x="73.3333" y="0" type="line"/>
			<point x="73.3333" y="722" type="line"/>
			<point x="178.333" y="722" type="line"/>
			<point x="178.333" y="0" type="line"/>
		</contour>
	</outline>
	<anchor name="top" x="121.333" y="773.667"/>
</glyph>
<glyph name="m" format="2">
	<unicode hex="006D"/>
	<advance width="908"/>
	<outline>
		<contour>
			<point x="73.3333" y="0" type="line"/>
			<point x="73.3333" y="500" type="line"/>
			<point x="178.333" y="500" type="line"/>
			<point x="178.333" y="429.667" type="line"/>
			<point x="218.333" y="485.667"/>
			<point x="265.667" y="512.667"/>
			<point x="326.667" y="512.667" type="curve" smooth="yes"/>
			<point x="419" y="512.667"/>
			<point x="454" y="488"/>
			<point x="491" y="422.333" type="curve"/>
			<point x="532.667" y="483"/>
			<point x="580.333" y="512.667"/>
			<point x="654" y="512.667" type="curve" smooth="yes"/>
			<point x="774" y="512.667"/>
			<point x="834.333" y="446"/>
			<point x="834.333" y="326.333" type="curve" smooth="yes"/>
			<point x="834.333" y="0" type="line"/>
			<point x="729.333" y="0" type="line"/>
			<point x="729.333" y="321.333" type="line" smooth="yes"/>
			<point x="729.333" y="391.667"/>
			<point x="694.667" y="442"/>
			<point x="625.333" y="442" type="curve" smooth="yes"/>
			<point x="556.333" y="442"/>
			<point x="506.667" y="368.333"/>
			<point x="506.667" y="312" type="curve" smooth="yes"/>
			<point x="506.667" y="0" type="line"/>
			<point x="401.667" y="0" type="line"/>
			<point x="401.667" y="322" type="line" smooth="yes"/>
			<point x="401.667" y="394.667"/>
			<point x="362" y="442.333"/>
			<point x="298.667" y="442.333" type="curve" smooth="yes"/>
			<point x="226.333" y="442.333"/>
			<point x="178.333" y="368.333"/>
			<point x="178.333" y="311.667" type="curve" smooth="yes"/>
			<point x="178.333" y="0" type="line"/>
		</contour>
	</outline>
</glyph>
<glyph name="n" format="2">
	<unicode hex="006E"/>
	<advance width="592"/>
	<outline>
		<contour>
			<point x="73.3333" y="0" type="line"/>
			<point x="73.3333" y="500" type="line"/>
			<point x="178.333" y="500" type="line"/>
			<point x="178.333" y="435" type="line"/>
			<point x="214" y="485.333"/>
			<point x="270.333" y="513.333"/>
			<point x="336.333" y="513.333" type="curve" smooth="yes"/>
			<point x="456" y="513.333"/>
			<point x="518.667" y="451.667"/>
			<point x="518.667" y="332.333" type="curve" smooth="yes"/>
			<point x="518.667" y="0" type="line"/>
			<point x="413.667" y="0" type="line"/>
			<point x="413.667" y="307" type="line" smooth="yes"/>
			<point x="413.667" y="402"/>
			<point x="378.333" y="446"/>
			<point x="301.667" y="446" type="curve" smooth="yes"/>
			<point x="229" y="446"/>
			<point x="178.333" y="389.333"/>
			<point x="178.333" y="308.333" type="curve" smooth="yes"/>
			<point x="178.333" y="0" type="line"/>
		</contour>
	</outline>
</glyph>
<glyph name="o" format="2">
  <advance width="615"/>
  <unicode hex="006F"/>
  <anchor x="302.667" y="586.667" name="top"/>
  <outline>
    <contour>
      <point x="54.6667" y="250" type="curve" smooth="yes"/>
      <point x="54.6667" y="409.333"/>
      <point x="154.667" y="512.667"/>
      <point x="308.333" y="512.667" type="curve" smooth="yes"/>
      <point x="462" y="512.667"/>
      <point x="560" y="409.333"/>
      <point x="560" y="250" type="curve" smooth="yes"/>
      <point x="560" y="90.3333"/>
      <point x="461.667" y="-12.6667"/>
      <point x="308.333" y="-12.6667" type="curve" smooth="yes"/>
      <point x="154.667" y="-12.6667"/>
      <point x="54.6667" y="90.6667"/>
    </contour>
    <contour>
      <point x="162.333" y="250" type="curve" smooth="yes"/>
      <point x="162.333" y="123"/>
      <point x="214.333" y="59.3333"/>
      <point x="307.333" y="59.3333" type="curve" smooth="yes"/>
      <point x="400.333" y="59.3333"/>
      <point x="452.333" y="123"/>
      <point x="452.333" y="250" type="curve" smooth="yes"/>
      <point x="452.333" y="377"/>
      <point x="400.333" y="440.667"/>
      <point x="307.333" y="440.667" type="curve" smooth="yes"/>
      <point x="214.333" y="440.667"/>
      <point x="162.333" y="377"/>
    </contour>
  </outline>
</glyph>
<glyph name="q" format="2">
	<unicode hex="0071"/>
	<advance width="616"/>
	<outline>
		<contour>
			<point x="54.6667" y="252.333" type="curve" smooth="yes"/>
			<point x="54.6667" y="404.667"/>
			<point x="127" y="513.333"/>
			<point x="286" y="513.333" type="curve" smooth="yes"/>
			<point x="350" y="513.333"/>
			<point x="400.337" y="484.305"/>
			<point x="437.333" y="435" type="curve"/>
			<point x="437.333" y="500" type="line"/>
			<point x="542.333" y="500" type="line"/>
			<point x="542.333" y="-200" type="line"/>
			<point x="436" y="-200" type="line"/>
			<point x="436" y="50" type="line"/>
			<point x="383.667" y="9.33333"/>
			<point x="331.667" y="-13.3333"/>
			<point x="281.667" y="-13.3333" type="curve" smooth="yes"/>
			<point x="124.333" y="-13.3333"/>
			<point x="54.6667" y="96.3333"/>
		</contour>
		<contour>
			<point x="163.333" y="252.333" type="curve" smooth="yes"/>
			<point x="163.333" y="155.667"/>
			<point x="202" y="58"/>
			<point x="302.333" y="58" type="curve" smooth="yes"/>
			<point x="399.333" y="58"/>
			<point x="437.667" y="154"/>
			<point x="437.667" y="251" type="curve" smooth="yes"/>
			<point x="437.667" y="351.667"/>
			<point x="393" y="441"/>
			<point x="301.333" y="441" type="curve" smooth="yes"/>
			<point x="203" y="441"/>
			<point x="163.333" y="349"/>
		</contour>
	</outline>
</glyph>
<glyph name="r" format="2">
  <advance width="373"/>
  <unicode hex="0072"/>
  <outline>
    <contour>
      <point x="73.3333" y="0" type="line"/>
      <point x="73.3333" y="500" type="line"/>
      <point x="178.333" y="500" type="line"/>
      <point x="178.333" y="429" type="line"/>
      <point x="209.667" y="487.333"/>
      <point x="249.333" y="504.667"/>
      <point x="356.667" y="504.667" type="curve"/>
      <point x="356.667" y="413" type="line"/>
      <point x="242" y="413"/>
      <point x="178.333" y="366.667"/>
      <point x="178.333" y="272" type="curve" smooth="yes"/>
      <point x="178.333" y="0" type="line"/>
    </contour>
  </outline>
</glyph>
<glyph name="s" format="2">
	<unicode hex="0073"/>
	<advance width="521"/>
	<outline>
		<contour>
			<point x="54.6667" y="147.333" type="curve"/>
			<point x="161" y="147.333" type="line"/>
			<point x="161" y="86"/>
			<point x="193.333" y="57.3333"/>
			<point x="257.333" y="57.3333" type="curve" smooth="yes"/>
			<point x="312.333" y="57.3333"/>
			<point x="362" y="85.6667"/>
			<point x="362" y="137.333" type="curve" smooth="yes"/>
			<point x="362" y="188.333"/>
			<point x="311.333" y="202.333"/>
			<point x="263.667" y="212" type="curve" smooth="yes"/>
			<point x="139.333" y="237.333"/>
			<point x="68.6667" y="270.333"/>
			<point x="68.6667" y="361.333" type="curve" smooth="yes"/>
			<point x="68.6667" y="454"/>
			<point x="138" y="512.667"/>
			<point x="263.333" y="512.667" type="curve" smooth="yes"/>
			<point x="377.333" y="512.667"/>
			<point x="456.333" y="479.333"/>
			<point x="456.333" y="362" type="curve"/>
			<point x="350" y="362" type="line"/>
			<point x="349" y="416.667"/>
			<point x="318" y="440.333"/>
			<point x="254.667" y="440.333" type="curve" smooth="yes"/>
			<point x="210.667" y="440.333"/>
			<point x="172.667" y="416"/>
			<point x="172.667" y="372.333" type="curve" smooth="yes"/>
			<point x="172.667" y="332.667"/>
			<point x="203.333" y="314.333"/>
			<point x="289.667" y="297" type="curve" smooth="yes"/>
			<point x="373" y="280"/>
			<point x="466" y="258.333"/>
			<point x="466" y="148.333" type="curve" smooth="yes"/>
			<point x="466" y="32"/>
			<point x="362.667" y="-14"/>
			<point x="251" y="-14" type="curve" smooth="yes"/>
			<point x="137.333" y="-14"/>
			<point x="54.6667" y="32"/>
		</contour>
	</outline>
</glyph>
<glyph name="t" format="2">
	<unicode hex="0074"/>
	<advance width="369"/>
	<outline>
		<contour>
			<point x="224.333" y="138.333" type="line" smooth="yes"/>
			<point x="224.333" y="91.6667"/>
			<point x="241.667" y="62.3333"/>
			<point x="283" y="62.3333" type="curve" smooth="yes"/>
			<point x="302.333" y="62.3333"/>
			<point x="322" y="65.3333"/>
			<point x="340.333" y="71.3333" type="curve"/>
			<point x="340.333" y="0.333333" type="line"/>
			<point x="311.333" y="-9.33333"/>
			<point x="280" y="-13.3333"/>
			<point x="248.333" y="-13.3333" type="curve" smooth="yes"/>
			<point x="162.333" y="-13.3333"/>
			<point x="119.333" y="36"/>
			<point x="119.333" y="127.667" type="curve" smooth="yes"/>
			<point x="119.333" y="428.333" type="line"/>
			<point x="26" y="428.333" type="line"/>
			<point x="26" y="500" type="line"/>
			<point x="119.333" y="500" type="line"/>
			<point x="119.333" y="591.667" type="line"/>
			<point x="224.333" y="639.667" type="line"/>
			<point x="224.333" y="500" type="line"/>
			<point x="337.333" y="500" type="line"/>
			<point x="337.333" y="428.333" type="line"/>
			<point x="224.333" y="428.333" type="line"/>
		</contour>
	</outline>
	<anchor name="top" x="178" y="714.667"/>
</glyph>
<glyph name="v" format="2">
	<unicode hex="0076"/>
	<advance width="551"/>
	<outline>
		<contour>
			<point x="531.333" y="500" type="line"/>
			<point x="331.667" y="0" type="line"/>
			<point x="220.333" y="0" type="line"/>
			<point x="20" y="500" type="line"/>
			<point x="138" y="500" type="line"/>
			<point x="279.333" y="123.667" type="line"/>
			<point x="420" y="500" type="line"/>
		</contour>
	</outline>
</glyph>
<glyph name="w" format="2">
	<unicode hex="0077"/>
	<advance width="841"/>
	<outline>
		<contour>
			<point x="821.333" y="500" type="line"/>
			<point x="657.667" y="0" type="line"/>
			<point x="544.333" y="0" type="line"/>
			<point x="420.667" y="393.333" type="line"/>
			<point x="297" y="0" type="line"/>
			<point x="183.667" y="0" type="line"/>
			<point x="20" y="500" type="line"/>
			<point x="130.333" y="500" type="line"/>
			<point x="241" y="130" type="line"/>
			<point x="354.667" y="500" type="line"/>
			<point x="486.667" y="500" type="line"/>
			<point x="600.333" y="130" type="line"/>
			<point x="711" y="500" type="line"/>
		</contour>
	</outline>
</glyph>
<glyph name="z" format="2">
	<unicode hex="007A"/>
	<advance width="494"/>
	<outline>
		<contour>
			<point x="439.333" y="0" type="line"/>
			<point x="54.6667" y="0" type="line"/>
			<point x="54.6667" y="90.3333" type="line"/>
			<point x="320.333" y="425" type="line"/>
			<point x="69.6667" y="425" type="line"/>
			<point x="69.6667" y="500" type="line"/>
			<point x="435" y="500" type="line"/>
			<point x="435" y="409.667" type="line"/>
			<point x="168" y="75" type="line"/>
			<point x="439.333" y="75" type="line"/>
		</contour>
	</outline>
</glyph>
<glyph name="asciitilde" format="2">
  <advance width="600"/>
  <unicode hex="007E"/>
  <outline>
    <contour>
      <point x="565.667" y="315" type="line"/>
      <point x="549.333" y="245.333"/>
      <point x="491" y="198"/>
      <point x="414.333" y="198" type="curve" smooth="yes"/>
      <point x="381.333" y="198"/>
      <point x="326" y="207.667"/>
      <point x="283.667" y="220" type="curve" smooth="yes"/>
      <point x="246" y="231"/>
      <point x="216.667" y="238"/>
      <point x="198" y="238" type="curve" smooth="yes"/>
      <point x="157.667" y="238"/>
      <point x="129.333" y="221.333"/>
      <point x="123.667" y="195" type="curve"/>
      <point x="32.6667" y="195" type="line"/>
      <point x="54.6667" y="271.667"/>
      <point x="112.667" y="313"/>
      <point x="194.333" y="313" type="curve" smooth="yes"/>
      <point x="227.667" y="313"/>
      <point x="274.667" y="303.333"/>
      <point x="319.333" y="290.333" type="curve" smooth="yes"/>
      <point x="356" y="280"/>
      <point x="385.667" y="273"/>
      <point x="404.333" y="273" type="curve" smooth="yes"/>
      <point x="435.333" y="273"/>
      <point x="468" y="285"/>
      <point x="477.667" y="315" type="curve"/>
    </contour>
  </outline>
</glyph>
<glyph name="sterling" format="2">
	<unicode hex="00A3"/>
	<advance width="563"/>
	<outline>
		<contour>
			<point x="118.333" y="545.333" type="line" smooth="yes"/>
			<point x="118.333" y="676"/>
			<point x="218.333" y="736"/>
			<point x="332" y="736" type="curve" smooth="yes"/>
			<point x="444" y="736"/>
			<point x="545.667" y="685.333"/>
			<point x="545.667" y="573.667" type="curve"/>
			<point x="441.333" y="573.667" type="line"/>
			<point x="441.333" y="632"/>
			<point x="388.333" y="665"/>
			<point x="332.667" y="665" type="curve" smooth="yes"/>
			<point x="275.333" y="665"/>
			<point x="222.667" y="629"/>
			<point x="222.667" y="544" type="curve" smooth="yes"/>
			<point x="222.667" y="454.333" type="line"/>
			<point x="377.667" y="454.333" type="line"/>
			<point x="377.667" y="383.667" type="line"/>
			<point x="222.667" y="383.667" type="line"/>
			<point x="222.667" y="71" type="line"/>
			<point x="532" y="71" type="line"/>
			<point x="532" y="0" type="line"/>
			<point x="48" y="0" type="line"/>
			<point x="48" y="71" type="line"/>
			<point x="118.333" y="71" type="line"/>
			<point x="118.333" y="383.667" type="line"/>
			<point x="48" y="383.667" type="line"/>
			<point x="48" y="454.333" type="line"/>
			<point x="118.333" y="454.333" type="line"/>
		</contour>
	</outline>
</glyph>
<glyph name="currency" format="2">
	<unicode hex="00A4"/>
	<advance width="616"/>
	<outline>
		<contour>
			<point x="77.9" y="426.7" type="curve"/>
			<point x="77.9" y="298.84"/>
			<point x="184.825" y="194.6"/>
			<point x="311.758" y="194.6" type="curve" smooth="yes"/>
			<point x="441.61" y="194.6"/>
			<point x="541.608" y="302.768"/>
			<point x="542.1" y="429.8" type="curve" smooth="yes"/>
			<point x="542.59" y="554.38"/>
			<point x="436.557" y="659.9"/>
			<point x="312.854" y="659.9" type="curve" smooth="yes"/>
			<point x="180.437" y="659.9"/>
			<point x="77.9" y="557.943"/>
		</contour>
		<contour>
			<point x="161.467" y="427.017" type="curve" smooth="yes"/>
			<point x="161.467" y="510.15"/>
			<point x="228.83" y="576.85"/>
			<point x="311.591" y="576.85" type="curve" smooth="yes"/>
			<point x="391.465" y="576.85"/>
			<point x="457.867" y="507.25"/>
			<point x="457.867" y="427.983" type="curve" smooth="yes"/>
			<point x="457.867" y="347.75"/>
			<point x="391.465" y="278.15"/>
			<point x="311.591" y="278.15" type="curve" smooth="yes"/>
			<point x="229.793" y="278.15"/>
			<point x="161.467" y="344.85"/>
		</contour>
		<contour>
			<point x="199.748" y="602.002" type="line"/>
			<point x="77.8667" y="721.067" type="line"/>
			<point x="18.6" y="661.8" type="line"/>
			<point x="140.637" y="542.735" type="line"/>
		</contour>
		<contour>
			<point x="481.821" y="544.171" type="line"/>
			<point x="597.553" y="661.766" type="line"/>
			<point x="538.067" y="721.081" type="line"/>
			<point x="420.328" y="601.038" type="line"/>
		</contour>
		<contour>
			<point x="426.96" y="250.087" type="line"/>
			<point x="539.354" y="137.548" type="line"/>
			<point x="598.535" y="197.69" type="line"/>
			<point x="485.995" y="310.229" type="line"/>
		</contour>
		<contour>
			<point x="137.368" y="315.773" type="line"/>
			<point x="14.5196" y="195.71" type="line"/>
			<point x="75.7862" y="137.777" type="line"/>
			<point x="198.518" y="257.84" type="line"/>
		</contour>
	</outline>
</glyph>
<glyph name="yen" format="2">
  <advance width="563"/>
  <unicode hex="00A5"/>
  <outline>
    <contour>
      <point x="561.333" y="722" type="line"/>
      <point x="456.333" y="513" type="line"/>
      <point x="551" y="513" type="line"/>
      <point x="551" y="457" type="line"/>
      <point x="429.333" y="457" type="line"/>
      <point x="371.333" y="338" type="line"/>
      <point x="551" y="338" type="line"/>
      <point x="551" y="282" type="line"/>
      <point x="338.667" y="282" type="line"/>
      <point x="338.667" y="0" type="line"/>
      <point x="226" y="0" type="line"/>
      <point x="226" y="282" type="line"/>
      <point x="13.6667" y="282" type="line"/>
      <point x="13.6667" y="338" type="line"/>
      <point x="194.667" y="338" type="line"/>
      <point x="136.667" y="457" type="line"/>
      <point x="13.6667" y="457" type="line"/>
      <point x="13.6667" y="513" type="line"/>
      <point x="109.333" y="513" type="line"/>
      <point x="3.33333" y="722" type="line"/>
      <point x="123" y="722" type="line"/>
      <point x="283" y="383" type="line"/>
      <point x="441.667" y="722" type="line"/>
    </contour>
  </outline>
</glyph>
<glyph name="section" format="2">
	<unicode hex="00A7"/>
	<advance width="467"/>
	<outline>
		<contour>
			<point x="35.0951" y="274.516" type="curve" smooth="yes"/>
			<point x="35.0951" y="218.438"/>
			<point x="80.3269" y="178.805"/>
			<point x="110.417" y="161.293" type="curve" smooth="yes"/>
			<point x="256.656" y="73.6737" type="line" smooth="yes"/>
			<point x="305.005" y="43.7062"/>
			<point x="315.333" y="24.383"/>
			<point x="315.333" y="-4.33333" type="curve" smooth="yes"/>
			<point x="315.333" y="-60.604"/>
			<point x="264.335" y="-97"/>
			<point x="186.333" y="-97" type="curve" smooth="yes"/>
			<point x="146.995" y="-97"/>
			<point x="104" y="-80.3333"/>
			<point x="58.3333" y="-52.6667" type="curve"/>
			<point x="58.3333" y="-139" type="line"/>
			<point x="93.9812" y="-159.446"/>
			<point x="164.885" y="-174.333"/>
			<point x="212.333" y="-174.333" type="curve" smooth="yes"/>
			<point x="339.127" y="-174.333"/>
			<point x="421.705" y="-104.026"/>
			<point x="421.705" y="11.0656" type="curve" smooth="yes"/>
			<point x="421.705" y="70.9103"/>
			<point x="386.082" y="108.544"/>
			<point x="327" y="142.625" type="curve" smooth="yes"/>
			<point x="166" y="238.442" type="line" smooth="yes"/>
			<point x="144.088" y="251.496"/>
			<point x="135" y="263.752"/>
			<point x="135" y="285.7" type="curve" smooth="yes"/>
			<point x="135" y="354.352"/>
			<point x="200.887" y="384.22"/>
			<point x="279.154" y="385.756" type="curve"/>
			<point x="201.203" y="438.609" type="line"/>
			<point x="91.8167" y="417.667"/>
			<point x="35.0951" y="371.774"/>
		</contour>
		<contour>
			<point x="58.6667" y="575" type="curve" smooth="yes"/>
			<point x="58.6667" y="507.729"/>
			<point x="110.623" y="456.172"/>
			<point x="167.28" y="423.104" type="curve" smooth="yes"/>
			<point x="293.997" y="347.785" type="line" smooth="yes"/>
			<point x="319.219" y="333.297"/>
			<point x="322.667" y="313.174"/>
			<point x="322.667" y="296" type="curve" smooth="yes"/>
			<point x="322.667" y="226.404"/>
			<point x="227.633" y="201.415"/>
			<point x="177.647" y="201.377" type="curve"/>
			<point x="267.051" y="145.81" type="line"/>
			<point x="362.204" y="175.389"/>
			<point x="419.333" y="228.815"/>
			<point x="419.333" y="310.667" type="curve" smooth="yes"/>
			<point x="419.333" y="372.907"/>
			<point x="381.576" y="403.934"/>
			<point x="324.411" y="440.291" type="curve" smooth="yes"/>
			<point x="228.364" y="500.345" type="line" smooth="yes"/>
			<point x="191.897" y="523.63"/>
			<point x="164.333" y="548.092"/>
			<point x="164.333" y="584" type="curve" smooth="yes"/>
			<point x="164.333" y="624.333"/>
			<point x="212" y="661.333"/>
			<point x="253.333" y="661.333" type="curve" smooth="yes"/>
			<point x="297.667" y="661.333"/>
			<point x="344" y="646.667"/>
			<point x="390" y="618.333" type="curve"/>
			<point x="390" y="696.667" type="line"/>
			<point x="345.794" y="722"/>
			<point x="302.703" y="734.667"/>
			<point x="245" y="734.667" type="curve" smooth="yes"/>
			<point x="139.53" y="734.667"/>
			<point x="58.6667" y="671.807"/>
		</contour>
	</outline>
</glyph>
<glyph name="dieresis" format="2">
	<unicode hex="00A8"/>
	<advance width="299"/>
	<outline>
		<contour>
			<point x="166.667" y="630" type="line"/>
			<point x="70" y="630" type="line"/>
			<point x="70" y="731.333" type="line"/>
			<point x="166.667" y="731.333" type="line"/>
		</contour>
		<contour>
			<point x="230" y="630" type="line"/>
			<point x="133.333" y="630" type="line"/>
			<point x="133.333" y="731.333" type="line"/>
			<point x="230" y="731.333" type="line"/>
		</contour>
	</outline>
</glyph>
<glyph name="ordfeminine" format="2">
	<unicode hex="00AA"/>
	<advance width="388"/>
	<outline>
		<component base="a" xScale="0.703933" xyScale="0" yScale="0.703933" xOffset="-4.87074" yOffset="351.541"/>
		<contour>
			<point x="367.667" y="239.333" type="line"/>
			<point x="18.6667" y="239.333" type="line"/>
			<point x="18.6667" y="279.667" type="line"/>
			<point x="367.667" y="279.667" type="line"/>
		</contour>
	</outline>
</glyph>
<glyph name="guillemotleft" format="2">
  <advance width="572"/>
  <unicode hex="00AB"/>
  <outline>
    <contour>
      <point x="376.333" y="57" type="line"/>
      <point x="281" y="57" type="line"/>
      <point x="153" y="252" type="line"/>
      <point x="281" y="447" type="line"/>
      <point x="376.333" y="447" type="line"/>
      <point x="266.333" y="252" type="line"/>
    </contour>
    <contour>
      <point x="420.333" y="57" type="line"/>
      <point x="325" y="57" type="line"/>
      <point x="197" y="252" type="line"/>
      <point x="325" y="447" type="line"/>
      <point x="420.333" y="447" type="line"/>
      <point x="310.333" y="252" type="line"/>
    </contour>
  </outline>
</glyph>
<glyph name="registered" format="2">
	<unicode hex="00AE"/>
	<advance width="867"/>
	<outline>
		<contour>
			<point x="808" y="361" type="curve" smooth="yes"/>
			<point x="808" y="257"/>
			<point x="771" y="167"/>
			<point x="698" y="94" type="curve" smooth="yes"/>
			<point x="625" y="21"/>
			<point x="537" y="-16"/>
			<point x="433" y="-16" type="curve" smooth="yes"/>
			<point x="329" y="-16"/>
			<point x="241" y="21"/>
			<point x="168" y="94" type="curve" smooth="yes"/>
			<point x="95" y="167"/>
			<point x="59" y="256"/>
			<point x="59" y="360" type="curve" smooth="yes"/>
			<point x="59" y="464"/>
			<point x="95" y="552"/>
			<point x="168" y="625" type="curve" smooth="yes"/>
			<point x="241" y="698"/>
			<point x="329" y="735"/>
			<point x="433" y="735" type="curve" smooth="yes"/>
			<point x="537" y="735"/>
			<point x="625" y="699"/>
			<point x="698" y="626" type="curve" smooth="yes"/>
			<point x="771" y="553"/>
			<point x="808" y="465"/>
		</contour>
		<contour>
			<point x="739" y="356" type="curve" smooth="yes"/>
			<point x="739" y="441"/>
			<point x="709" y="514"/>
			<point x="649" y="575" type="curve" smooth="yes"/>
			<point x="589" y="636"/>
			<point x="517" y="666"/>
			<point x="432" y="666" type="curve" smooth="yes"/>
			<point x="347" y="666"/>
			<point x="275" y="636"/>
			<point x="215" y="576" type="curve" smooth="yes"/>
			<point x="155" y="516"/>
			<point x="125" y="443"/>
			<point x="125" y="358" type="curve" smooth="yes"/>
			<point x="125" y="273"/>
			<point x="155" y="200"/>
			<point x="215" y="140" type="curve" smooth="yes"/>
			<point x="275" y="80"/>
			<point x="348" y="50"/>
			<point x="433" y="50" type="curve" smooth="yes"/>
			<point x="518" y="50"/>
			<point x="591" y="80"/>
			<point x="651" y="140" type="curve" smooth="yes"/>
			<point x="711" y="200"/>
			<point x="739" y="271"/>
		</contour>
		<contour>
			<point x="619" y="145" type="curve"/>
			<point x="529" y="145" type="line"/>
			<point x="524" y="157"/>
			<point x="518" y="190"/>
			<point x="512" y="244" type="curve" smooth="yes"/>
			<point x="506" y="290"/>
			<point x="493" y="321"/>
			<point x="443" y="321" type="curve" smooth="yes"/>
			<point x="365" y="321" type="line"/>
			<point x="365" y="145" type="line"/>
			<point x="275" y="145" type="line"/>
			<point x="275" y="578" type="line"/>
			<point x="443" y="578" type="line" smooth="yes"/>
			<point x="554" y="578"/>
			<point x="610" y="539"/>
			<point x="610" y="461" type="curve" smooth="yes"/>
			<point x="610" y="416"/>
			<point x="583" y="396"/>
			<point x="557" y="378" type="curve" smooth="yes"/>
			<point x="551" y="374"/>
			<point x="526" y="359"/>
			<point x="518" y="359" type="curve"/>
			<point x="541" y="359"/>
			<point x="570" y="343"/>
			<point x="580" y="326" type="curve" smooth="yes"/>
			<point x="587" y="314"/>
			<point x="593" y="287"/>
			<point x="598" y="246" type="curve" smooth="yes"/>
			<point x="603" y="205"/>
			<point x="610" y="171"/>
		</contour>
		<contour>
			<point x="437" y="390" type="line" smooth="yes"/>
			<point x="473" y="390"/>
			<point x="520" y="414"/>
			<point x="520" y="448" type="curve" smooth="yes"/>
			<point x="520" y="487"/>
			<point x="483" y="509"/>
			<point x="443" y="509" type="curve" smooth="yes"/>
			<point x="365" y="509" type="line"/>
			<point x="365" y="390" type="line"/>
		</contour>
	</outline>
</glyph>
<glyph name="macron" format="2">
  <advance width="319"/>
  <unicode hex="00AF"/>
  <outline>
    <contour>
      <point x="320" y="623" type="line"/>
      <point x="0" y="623" type="line"/>
      <point x="0" y="702.333" type="line"/>
      <point x="320" y="702.333" type="line"/>
    </contour>
  </outline>
</glyph>
<glyph name="degree" format="2">
	<unicode hex="00B0"/>
	<advance width="319"/>
	<outline>
		<contour>
			<point x="160" y="600" type="curve" smooth="yes"/>
			<point x="206" y="600"/>
			<point x="243.333" y="604.667"/>
			<point x="243.333" y="610.667" type="curve" smooth="yes"/>
			<point x="243.333" y="616.333"/>
			<point x="206.333" y="620.667"/>
			<point x="160" y="620.667" type="curve" smooth="yes"/>
			<point x="113.667" y="620.667"/>
			<point x="76.6667" y="616.333"/>
			<point x="76.6667" y="610.667" type="curve" smooth="yes"/>
			<point x="76.6667" y="605"/>
			<point x="113.667" y="600"/>
		</contour>
		<contour>
			<point x="160" y="660" type="curve" smooth="yes"/>
			<point x="213" y="660"/>
			<point x="256.667" y="637.333"/>
			<point x="256.667" y="610.333" type="curve" smooth="yes"/>
			<point x="256.667" y="582.667"/>
			<point x="213.667" y="560.333"/>
			<point x="160" y="560.333" type="curve" smooth="yes"/>
			<point x="106.333" y="560.333"/>
			<point x="63.3333" y="582.667"/>
			<point x="63.3333" y="610.333" type="curve" smooth="yes"/>
			<point x="63.3333" y="638"/>
			<point x="106.333" y="660"/>
		</contour>
	</outline>
</glyph>
<glyph name="twosuperior" format="2">
	<unicode hex="00B2"/>
	<advance width="359"/>
	<outline>
		<contour>
			<point x="28.3333" y="417.333" type="line"/>
			<point x="76.9758" y="454.267" type="line" smooth="yes"/>
			<point x="217.484" y="561.338"/>
			<point x="242" y="587.54"/>
			<point x="242" y="625.739" type="curve" smooth="yes"/>
			<point x="242" y="663.945"/>
			<point x="221.667" y="684"/>
			<point x="183.299" y="684" type="curve" smooth="yes"/>
			<point x="144.667" y="684"/>
			<point x="124.333" y="663.921"/>
			<point x="121" y="626.333" type="curve"/>
			<point x="36" y="626.333" type="line"/>
			<point x="38.6667" y="695.514"/>
			<point x="103.333" y="743.667"/>
			<point x="179.621" y="743.667" type="curve" smooth="yes"/>
			<point x="261" y="743.667"/>
			<point x="324.667" y="707.237"/>
			<point x="324.667" y="622.431" type="curve" smooth="yes"/>
			<point x="324.667" y="570.3"/>
			<point x="296.266" y="540.393"/>
			<point x="155.284" y="433.965" type="curve" smooth="yes"/>
			<point x="123.333" y="410.667" type="line"/>
			<point x="325.667" y="410.667" type="line"/>
			<point x="325.667" y="351" type="line"/>
			<point x="28.3333" y="351" type="line"/>
		</contour>
	</outline>
</glyph>
<glyph name="threesuperior" format="2">
	<unicode hex="00B3"/>
	<advance width="369"/>
	<outline>
		<contour>
			<point x="31" y="459.667" type="curve"/>
			<point x="108.333" y="459.667" type="line"/>
			<point x="111.536" y="416.425"/>
			<point x="134.641" y="399.333"/>
			<point x="178.863" y="399.333" type="curve" smooth="yes"/>
			<point x="230.473" y="399.333"/>
			<point x="260.333" y="421.92"/>
			<point x="260.333" y="457.224" type="curve" smooth="yes"/>
			<point x="260.333" y="498.091"/>
			<point x="223.554" y="517.333"/>
			<point x="146.667" y="517.333" type="curve"/>
			<point x="146.667" y="572.333" type="line"/>
			<point x="213.517" y="572.333"/>
			<point x="241.333" y="590.782"/>
			<point x="241.333" y="629.223" type="curve" smooth="yes"/>
			<point x="241.333" y="662.966"/>
			<point x="219.068" y="680.099"/>
			<point x="180.128" y="680.099" type="curve" smooth="yes"/>
			<point x="142.742" y="680.099"/>
			<point x="120.777" y="664.075"/>
			<point x="117" y="628" type="curve"/>
			<point x="41.3333" y="628" type="line"/>
			<point x="41.3333" y="693.091"/>
			<point x="99.3441" y="738"/>
			<point x="188.506" y="738" type="curve" smooth="yes"/>
			<point x="272.141" y="738"/>
			<point x="326" y="698.135"/>
			<point x="326" y="631.369" type="curve" smooth="yes"/>
			<point x="326" y="584.668"/>
			<point x="299.671" y="554.517"/>
			<point x="246.41" y="544.979" type="curve"/>
			<point x="246.333" y="549" type="line"/>
			<point x="306.326" y="539.662"/>
			<point x="340" y="507.665"/>
			<point x="340" y="457.365" type="curve" smooth="yes"/>
			<point x="340" y="388.804"/>
			<point x="277.456" y="340.667"/>
			<point x="176.055" y="340.667" type="curve" smooth="yes"/>
			<point x="84.6679" y="340.667"/>
			<point x="33.9765" y="379.786"/>
		</contour>
	</outline>
</glyph>
<glyph name="paragraph" format="2">
	<unicode hex="00B6"/>
	<advance width="559"/>
	<outline>
		<contour>
			<point x="505" y="679.333" type="line"/>
			<point x="444" y="679.333" type="line"/>
			<point x="444" y="-160" type="line"/>
			<point x="387.333" y="-160" type="line"/>
			<point x="387.333" y="679.333" type="line"/>
			<point x="300.667" y="679.333" type="line"/>
			<point x="300.667" y="-160" type="line"/>
			<point x="244" y="-160" type="line"/>
			<point x="244" y="352" type="line"/>
			<point x="143.131" y="352"/>
			<point x="48.3333" y="407.83"/>
			<point x="48.3333" y="520.425" type="curve" smooth="yes"/>
			<point x="48.3333" y="640.51"/>
			<point x="156.171" y="722"/>
			<point x="248.333" y="722" type="curve" smooth="yes"/>
			<point x="505" y="722" type="line"/>
		</contour>
	</outline>
</glyph>
<glyph name="ordmasculine" format="2">
	<unicode hex="00BA"/>
	<advance width="416"/>
	<outline>
		<contour>
			<point x="31.6667" y="524.667" type="curve" smooth="yes"/>
			<point x="31.6667" y="641.173"/>
			<point x="99.7561" y="709.667"/>
			<point x="206.667" y="709.667" type="curve" smooth="yes"/>
			<point x="313.714" y="709.667"/>
			<point x="381.667" y="642.115"/>
			<point x="381.667" y="525.333" type="curve" smooth="yes"/>
			<point x="381.667" y="408.376"/>
			<point x="314.044" y="340.333"/>
			<point x="206.667" y="340.333" type="curve" smooth="yes"/>
			<point x="99.2891" y="340.333"/>
			<point x="31.6667" y="408.376"/>
		</contour>
		<contour>
			<point x="107" y="525" type="curve" smooth="yes"/>
			<point x="107" y="454"/>
			<point x="137.667" y="390.333"/>
			<point x="206.667" y="390.333" type="curve" smooth="yes"/>
			<point x="275.667" y="390.333"/>
			<point x="305" y="454"/>
			<point x="305" y="525" type="curve" smooth="yes"/>
			<point x="305" y="595.333"/>
			<point x="274.333" y="659.333"/>
			<point x="206" y="659.333" type="curve" smooth="yes"/>
			<point x="137.667" y="659.333"/>
			<point x="107" y="595.333"/>
		</contour>
		<contour>
			<point x="33" y="238" type="line"/>
			<point x="33" y="278.333" type="line"/>
			<point x="386" y="278.333" type="line"/>
			<point x="386" y="238" type="line"/>
		</contour>
	</outline>
</glyph>
<glyph name="onequarter" format="2">
	<unicode hex="00BC"/>
	<advance width="799"/>
	<outline>
		<component base="onesuperior"/>
		<contour>
			<point x="626.105" y="736" type="line"/>
			<point x="200.333" y="-14" type="line"/>
			<point x="121.333" y="-14" type="line"/>
			<point x="547.333" y="736" type="line"/>
		</contour>
		<contour>
			<point x="750" y="87" type="line"/>
			<point x="681.333" y="87" type="line"/>
			<point x="681.333" y="-4.66667" type="line"/>
			<point x="606.667" y="-4.66667" type="line"/>
			<point x="606.667" y="87" type="line"/>
			<point x="427.333" y="87" type="line"/>
			<point x="427.333" y="145.321" type="line"/>
			<point x="596.333" y="384" type="line"/>
			<point x="681.333" y="384" type="line"/>
			<point x="681.333" y="143.333" type="line"/>
			<point x="750" y="143.333" type="line"/>
		</contour>
		<contour>
			<point x="606.667" y="143.333" type="line"/>
			<point x="606.667" y="303" type="line"/>
			<point x="495" y="143.333" type="line"/>
		</contour>
	</outline>
</glyph>
<glyph name="threequarters" format="2">
  <advance width="799"/>
  <unicode hex="00BE"/>
  <outline>
    <contour>
      <point x="246.412" y="545.097" type="curve"/>
      <point x="246.333" y="549" type="line"/>
      <point x="302.231" y="538.857"/>
      <point x="333.333" y="509.978"/>
      <point x="333.333" y="452.266" type="curve" smooth="yes"/>
      <point x="333.333" y="383.555"/>
      <point x="274.78" y="340"/>
      <point x="182.487" y="340" type="curve" smooth="yes"/>
      <point x="107.636" y="340"/>
      <point x="33.6667" y="378.691"/>
      <point x="31" y="459.667" type="curve"/>
      <point x="108.333" y="459.667" type="line"/>
      <point x="111" y="421"/>
      <point x="147.533" y="399.333"/>
      <point x="188.924" y="399.333" type="curve" smooth="yes"/>
      <point x="226.645" y="399.333"/>
      <point x="253.667" y="419.95"/>
      <point x="253.667" y="448.102" type="curve" smooth="yes"/>
      <point x="253.667" y="503.536"/>
      <point x="211.382" y="517.333"/>
      <point x="146.667" y="517.333" type="curve"/>
      <point x="146.667" y="572.333" type="line"/>
      <point x="199.667" y="572.333"/>
      <point x="241.333" y="581.667"/>
      <point x="241.333" y="635.07" type="curve" smooth="yes"/>
      <point x="241.333" y="666.333"/>
      <point x="209.333" y="681"/>
      <point x="179.104" y="681" type="curve" smooth="yes"/>
      <point x="143.667" y="681"/>
      <point x="120.333" y="661.333"/>
      <point x="117" y="628" type="curve"/>
      <point x="41.3333" y="628" type="line"/>
      <point x="41.3333" y="703.333"/>
      <point x="107.333" y="738"/>
      <point x="186.123" y="738" type="curve" smooth="yes"/>
      <point x="261" y="738"/>
      <point x="326" y="706.333"/>
      <point x="326" y="636.593" type="curve" smooth="yes"/>
      <point x="326" y="586.207"/>
      <point x="296.972" y="556.903"/>
    </contour>
    <contour>
      <point x="670.063" y="736" type="line"/>
      <point x="244.333" y="-14" type="line"/>
      <point x="165.333" y="-14" type="line"/>
      <point x="591.333" y="736" type="line"/>
    </contour>
    <contour>
      <point x="767.667" y="87" type="line"/>
      <point x="699" y="87" type="line"/>
      <point x="699" y="-4.66667" type="line"/>
      <point x="623.667" y="-4.66667" type="line"/>
      <point x="623.667" y="87" type="line"/>
      <point x="445" y="87" type="line"/>
      <point x="445" y="145.296" type="line"/>
      <point x="614" y="384" type="line"/>
      <point x="699" y="384" type="line"/>
      <point x="699" y="143.321" type="line"/>
      <point x="767.667" y="143.321" type="line"/>
    </contour>
    <contour>
      <point x="622.333" y="142" type="line"/>
      <point x="622.333" y="301.198" type="line"/>
      <point x="510.333" y="142" type="line"/>
    </contour>
  </outline>
</glyph>
<glyph name="AE" format="2">
	<unicode hex="00C6"/>
	<advance width="984"/>
	<outline>
		<contour>
			<point x="13.3333" y="0" type="line"/>
			<point x="399" y="722" type="line"/>
			<point x="916.333" y="722" type="line"/>
			<point x="916.333" y="629.333" type="line"/>
			<point x="580" y="629.333" type="line"/>
			<point x="580" y="418.667" type="line"/>
			<point x="903" y="418.667" type="line"/>
			<point x="903" y="323.333" type="line"/>
			<point x="580" y="323.333" type="line"/>
			<point x="580" y="94.6667" type="line"/>
			<point x="926.333" y="94.6667" type="line"/>
			<point x="926.333" y="0" type="line"/>
			<point x="463.333" y="0" type="line"/>
			<point x="463.333" y="186.333" type="line"/>
			<point x="234" y="186.333" type="line"/>
			<point x="131.667" y="0" type="line"/>
		</contour>
		<contour>
			<point x="287" y="280" type="line"/>
			<point x="463.333" y="280" type="line"/>
			<point x="463.333" y="626" type="line"/>
		</contour>
	</outline>
</glyph>
<glyph name="Eth" format="2">
	<unicode hex="00D0"/>
	<advance width="722"/>
	<outline>
		<component base="D" xOffset="13.3333"/>
		<contour>
			<point x="0" y="403.667" type="line"/>
			<point x="0" y="318.333" type="line"/>
			<point x="354" y="318.333" type="line"/>
			<point x="354" y="403.667" type="line"/>
		</contour>
	</outline>
</glyph>
<glyph name="multiply" format="2">
	<unicode hex="00D7"/>
	<advance width="760"/>
	<outline>
		<contour>
			<point x="650" y="69" type="line"/>
			<point x="611" y="30" type="line"/>
			<point x="380" y="262" type="line"/>
			<point x="149" y="30" type="line"/>
			<point x="110" y="69" type="line"/>
			<point x="340" y="300" type="line"/>
			<point x="110" y="531" type="line"/>
			<point x="149" y="570" type="line"/>
			<point x="380" y="338" type="line"/>
			<point x="611" y="570" type="line"/>
			<point x="650" y="531" type="line"/>
			<point x="420" y="300" type="line"/>
		</contour>
	</outline>
</glyph>
<glyph name="Oslash" format="2">
	<unicode hex="00D8"/>
	<advance width="769"/>
	<outline>
		<component base="O"/>
		<contour>
			<point x="139.555" y="-83.6312" type="line"/>
			<point x="67.3067" y="-35.2057" type="line"/>
			<point x="630.333" y="803" type="line"/>
			<point x="701.397" y="755.667" type="line"/>
		</contour>
	</outline>
</glyph>
<glyph name="Thorn" format="2">
	<unicode hex="00DE"/>
	<advance width="633"/>
	<outline>
		<contour>
			<point x="71.6667" y="0.666667" type="line"/>
			<point x="71.6667" y="722.667" type="line"/>
			<point x="189" y="722.667" type="line"/>
			<point x="189" y="592.333" type="line"/>
			<point x="291" y="592.333" type="line" smooth="yes"/>
			<point x="451.333" y="592.333"/>
			<point x="570.667" y="546.667"/>
			<point x="570.667" y="380.333" type="curve" smooth="yes"/>
			<point x="570.667" y="217.667"/>
			<point x="455.333" y="169"/>
			<point x="291" y="169" type="curve" smooth="yes"/>
			<point x="189" y="169" type="line"/>
			<point x="189" y="0.666667" type="line"/>
		</contour>
		<contour>
			<point x="189" y="266" type="line"/>
			<point x="293" y="266" type="line" smooth="yes"/>
			<point x="393.667" y="266"/>
			<point x="456" y="288"/>
			<point x="456" y="379.667" type="curve" smooth="yes"/>
			<point x="456" y="471.667"/>
			<point x="393.333" y="496"/>
			<point x="293" y="496" type="curve" smooth="yes"/>
			<point x="189" y="496" type="line"/>
		</contour>
	</outline>
</glyph>
<glyph name="germandbls" format="2">
	<unicode hex="00DF"/>
	<advance width="563"/>
	<outline>
		<contour>
			<point x="46.3333" y="-0.218933" type="line"/>
			<point x="46.3333" y="541.069" type="line" smooth="yes"/>
			<point x="46.3333" y="662.18"/>
			<point x="129.675" y="734.333"/>
			<point x="270.894" y="734.333" type="curve" smooth="yes"/>
			<point x="391.335" y="734.333"/>
			<point x="480.333" y="686.43"/>
			<point x="480.333" y="582.936" type="curve" smooth="yes"/>
			<point x="480.333" y="520.691"/>
			<point x="448.336" y="478.864"/>
			<point x="405.818" y="450.109" type="curve" smooth="yes"/>
			<point x="375.494" y="429.731"/>
			<point x="355.333" y="405.796"/>
			<point x="355.333" y="387.578" type="curve" smooth="yes"/>
			<point x="355.333" y="362.689"/>
			<point x="398.668" y="331.181"/>
			<point x="440.965" y="310.361" type="curve" smooth="yes"/>
			<point x="520.745" y="270.899"/>
			<point x="557.667" y="225.314"/>
			<point x="557.667" y="149.552" type="curve" smooth="yes"/>
			<point x="557.667" y="49.1996"/>
			<point x="490.818" y="-13.6667"/>
			<point x="377.323" y="-13.6667" type="curve" smooth="yes"/>
			<point x="272.605" y="-13.6667"/>
			<point x="207.132" y="40.143"/>
			<point x="207" y="139.194" type="curve"/>
			<point x="307.667" y="139.194" type="line"/>
			<point x="307.667" y="84.2702"/>
			<point x="335.711" y="57.6667"/>
			<point x="392.702" y="57.6667" type="curve" smooth="yes"/>
			<point x="430" y="57.6667"/>
			<point x="452.667" y="88.7559"/>
			<point x="452.667" y="137.053" type="curve" smooth="yes"/>
			<point x="452.667" y="196.175"/>
			<point x="407.296" y="222.466"/>
			<point x="362.834" y="245.301" type="curve" smooth="yes"/>
			<point x="287.309" y="284.091"/>
			<point x="243.667" y="318.335"/>
			<point x="243.667" y="375.659" type="curve" smooth="yes"/>
			<point x="243.667" y="418.454"/>
			<point x="274.038" y="456.683"/>
			<point x="313.247" y="483.36" type="curve" smooth="yes"/>
			<point x="341.347" y="503.153"/>
			<point x="372" y="528.513"/>
			<point x="372" y="574.701" type="curve" smooth="yes"/>
			<point x="372" y="625.965"/>
			<point x="334.908" y="656.333"/>
			<point x="269.16" y="656.333" type="curve" smooth="yes"/>
			<point x="190.051" y="656.333"/>
			<point x="151.333" y="612.639"/>
			<point x="151.333" y="526.354" type="curve" smooth="yes"/>
			<point x="151.333" y="-0.218915" type="line"/>
		</contour>
	</outline>
</glyph>
<glyph name="ae" format="2">
  <advance width="900"/>
  <unicode hex="00E6"/>
  <outline>
    <contour>
      <point x="173.667" y="111.333" type="curve"/>
      <point x="104.333" y="145"/>
      <point x="84.3333" y="196.333"/>
      <point x="121.333" y="262.333" type="curve"/>
      <point x="145" y="336.333"/>
      <point x="217.333" y="367"/>
      <point x="338" y="348.333" type="curve"/>
      <point x="377.033" y="367.8"/>
      <point x="429.128" y="373.333"/>
      <point x="471.667" y="372" type="curve"/>
      <point x="518.508" y="429.333"/>
      <point x="517.263" y="441.281"/>
      <point x="461.93" y="385.643" type="curve"/>
      <point x="413.263" y="383.783"/>
      <point x="387.263" y="365.274"/>
      <point x="387.263" y="330.667" type="curve"/>
      <point x="214.667" y="330.667" type="line"/>
      <point x="214.667" y="371.584"/>
      <point x="277.157" y="365"/>
      <point x="387.667" y="365" type="curve" smooth="yes"/>
      <point x="467.333" y="365"/>
      <point x="515.333" y="350"/>
      <point x="539.333" y="311.667" type="curve"/>
      <point x="568.152" y="366.333"/>
      <point x="634.422" y="392.333"/>
      <point x="712.667" y="392.333" type="curve"/>
      <point x="801" y="354.667"/>
      <point x="826.333" y="268.667"/>
      <point x="780" y="182" type="curve"/>
      <point x="754.369" y="176.976"/>
      <point x="732.92" y="174.19"/>
      <point x="723.667" y="191" type="curve"/>
      <point x="672.899" y="172"/>
      <point x="485.475" y="154.333"/>
      <point x="408.667" y="154.333" type="curve"/>
      <point x="378.961" y="89"/>
      <point x="382.667" y="47.9981"/>
      <point x="439.333" y="80.6667" type="curve"/>
      <point x="485.333" y="124.544"/>
      <point x="550.954" y="164"/>
      <point x="598.333" y="210.667" type="curve"/>
      <point x="610.869" y="210.667"/>
      <point x="676.285" y="210.333"/>
      <point x="695.333" y="209.333" type="curve"/>
      <point x="686.667" y="164.333"/>
      <point x="632.667" y="135.333"/>
      <point x="532" y="135.333" type="curve" smooth="yes"/>
      <point x="445.204" y="135.333"/>
      <point x="381" y="161.337"/>
      <point x="369" y="204.667" type="curve"/>
      <point x="358.772" y="181.333"/>
      <point x="285.5" y="111.333"/>
    </contour>
    <contour>
      <point x="329.333" y="211.667" type="curve"/>
      <point x="314" y="200"/>
      <point x="311.333" y="190.333"/>
      <point x="307.667" y="190.333" type="curve" smooth="yes"/>
      <point x="276.332" y="190.333"/>
      <point x="212.655" y="203.35"/>
      <point x="212.655" y="175.557" type="curve" smooth="yes"/>
      <point x="212.655" y="133.501"/>
      <point x="246.655" y="114.122"/>
      <point x="284.655" y="114.667" type="curve" smooth="yes"/>
      <point x="348.988" y="115"/>
      <point x="372.667" y="159"/>
      <point x="367.667" y="230.667" type="curve"/>
      <point x="342" y="231.797"/>
      <point x="329.333" y="228.601"/>
    </contour>
    <contour>
      <point x="744.667" y="307" type="line"/>
      <point x="740" y="381.333"/>
      <point x="709.333" y="441"/>
      <point x="626.667" y="441" type="curve" smooth="yes"/>
      <point x="547.667" y="441"/>
      <point x="511.333" y="371.667"/>
      <point x="506" y="307" type="curve"/>
    </contour>
  </outline>
</glyph>
<glyph name="eth" format="2">
  <advance width="593"/>
  <unicode hex="00F0"/>
  <outline>
    <contour>
      <point x="46.6667" y="252.057" type="curve" smooth="yes"/>
      <point x="46.6667" y="87.9488"/>
      <point x="135.426" y="-14.3333"/>
      <point x="295.468" y="-14.3333" type="curve" smooth="yes"/>
      <point x="453.666" y="-14.3333"/>
      <point x="544.667" y="84.7682"/>
      <point x="544.667" y="251.646" type="curve" smooth="yes"/>
      <point x="544.667" y="474.955"/>
      <point x="413.807" y="634.223"/>
      <point x="161.375" y="734.667" type="curve"/>
      <point x="106.219" y="699.636" type="line"/>
      <point x="188.018" y="665.353"/>
      <point x="325.862" y="566.366"/>
      <point x="361.099" y="504.879" type="curve"/>
      <point x="345.09" y="509.12"/>
      <point x="315.746" y="512.667"/>
      <point x="293.497" y="512.667" type="curve" smooth="yes"/>
      <point x="125.667" y="512.667"/>
      <point x="46.6667" y="406.667"/>
    </contour>
    <contour>
      <point x="151.667" y="244.916" type="curve" smooth="yes"/>
      <point x="151.667" y="349.667"/>
      <point x="199.046" y="438.667"/>
      <point x="298.527" y="438.667" type="curve" smooth="yes"/>
      <point x="390.279" y="438.667"/>
      <point x="437" y="362.667"/>
      <point x="437" y="251.667" type="curve" smooth="yes"/>
      <point x="437" y="152"/>
      <point x="399.613" y="60"/>
      <point x="295.497" y="60" type="curve" smooth="yes"/>
      <point x="194.379" y="60"/>
      <point x="151.667" y="145"/>
    </contour>
    <contour>
      <point x="79.6667" y="566" type="line"/>
      <point x="100.667" y="519.667" type="line"/>
      <point x="480.876" y="692.336" type="line"/>
      <point x="458.794" y="738.333" type="line"/>
    </contour>
  </outline>
</glyph>
<glyph name="oslash" format="2">
	<unicode hex="00F8"/>
	<advance width="591"/>
	<outline>
		<component base="o" xOffset="-9.33333"/>
		<contour>
			<point x="82.3333" y="-81.6667" type="line"/>
			<point x="28.6667" y="-43" type="line"/>
			<point x="498.667" y="591.667" type="line"/>
			<point x="552.333" y="553" type="line"/>
		</contour>
	</outline>
</glyph>
<glyph name="thorn" format="2">
	<unicode hex="00FE"/>
	<advance width="608"/>
	<outline>
		<contour>
			<point x="483.333" y="162" type="curve"/>
			<point x="458.592" y="58"/>
			<point x="397.973" y="-3.06869"/>
			<point x="282.055" y="6.56746" type="curve"/>
			<point x="248.493" y="-5.0829"/>
			<point x="212.918" y="-43.6318"/>
			<point x="176" y="-30.6667" type="curve"/>
			<point x="131" y="-199.333" type="line"/>
			<point x="71" y="107.333" type="line"/>
			<point x="116" y="722.667" type="line"/>
			<point x="176" y="626" type="line" smooth="yes"/>
			<point x="186.219" y="609.357"/>
			<point x="202.221" y="496.823"/>
			<point x="222" y="463.333" type="curve"/>
			<point x="296.304" y="497.7"/>
			<point x="360.087" y="474.755"/>
			<point x="409.149" y="425.86" type="curve"/>
			<point x="511.306" y="376.97"/>
			<point x="532.333" y="266.667"/>
		</contour>
		<contour>
			<point x="314.742" y="440.667" type="curve" smooth="yes"/>
			<point x="218.201" y="440.667"/>
			<point x="176" y="347.088"/>
			<point x="176" y="249.296" type="curve" smooth="yes"/>
			<point x="176" y="151.815"/>
			<point x="212.309" y="57.6667"/>
			<point x="311" y="57.6667" type="curve" smooth="yes"/>
			<point x="409.409" y="57.6667"/>
			<point x="450.333" y="152.795"/>
			<point x="450.333" y="251.98" type="curve" smooth="yes"/>
			<point x="450.333" y="351.753"/>
			<point x="408.966" y="440.667"/>
		</contour>
	</outline>
</glyph>
<glyph name="dcroat" format="2">
	<unicode hex="0111"/>
	<advance width="561"/>
	<outline>
		<component base="d" xOffset="-13"/>
		<contour>
			<point x="298" y="644" type="line"/>
			<point x="298" y="569.667" type="line"/>
			<point x="573.333" y="569.667" type="line"/>
			<point x="573.333" y="644" type="line"/>
		</contour>
	</outline>
</glyph>
<glyph name="Hbar" format="2">
	<unicode hex="0126"/>
	<advance width="684"/>
	<outline>
		<component base="H" xOffset="-3.33333"/>
		<contour>
			<point x="15" y="512.667" type="line"/>
			<point x="669.333" y="512.667" type="line"/>
			<point x="669.333" y="589.333" type="line"/>
			<point x="15" y="589.333" type="line"/>
		</contour>
	</outline>
</glyph>
<glyph name="ldot" format="2">
	<unicode hex="0140"/>
	<advance width="462"/>
	<outline>
		<contour>
			<point x="263" y="92" type="line"/>
			<point x="161" y="92" type="line"/>
			<point x="161" y="617.333" type="line"/>
			<point x="263" y="617.333" type="line"/>
		</contour>
		<contour>
			<point x="301.333" y="185.333" type="line"/>
			<point x="184.333" y="185.333" type="line"/>
			<point x="184.333" y="508" type="line"/>
			<point x="301.333" y="508" type="line"/>
		</contour>
	</outline>
</glyph>
<glyph name="Lslash" format="2">
	<unicode hex="0141"/>
	<advance width="589"/>
	<outline>
		<contour>
			<point x="571.333" y="0" type="line"/>
			<point x="132.667" y="0" type="line"/>
			<point x="132.667" y="284.667" type="line"/>
			<point x="30" y="183.667" type="line"/>
			<point x="30" y="277" type="line"/>
			<point x="132.667" y="378.667" type="line"/>
			<point x="132.667" y="722" type="line"/>
			<point x="250" y="722" type="line"/>
			<point x="250" y="494" type="line"/>
			<point x="358" y="601.333" type="line"/>
			<point x="358" y="506" type="line"/>
			<point x="250" y="399.333" type="line"/>
			<point x="250" y="96.3333" type="line"/>
			<point x="571.333" y="96.3333" type="line"/>
		</contour>
	</outline>
</glyph>
<glyph name="lslash" format="2">
	<unicode hex="0142"/>
	<advance width="348"/>
	<outline>
		<contour>
			<point x="319" y="477" type="line"/>
			<point x="227" y="387" type="line"/>
			<point x="227" y="0" type="line"/>
			<point x="122" y="0" type="line"/>
			<point x="122" y="297.667" type="line"/>
			<point x="30" y="207.667" type="line"/>
			<point x="30" y="300" type="line"/>
			<point x="122" y="391" type="line"/>
			<point x="122" y="722" type="line"/>
			<point x="227" y="722" type="line"/>
			<point x="227" y="481.333" type="line"/>
			<point x="319" y="572.333" type="line"/>
		</contour>
	</outline>
</glyph>
<glyph name="napostrophe" format="2">
  <advance width="719"/>
  <unicode hex="0149"/>
  <outline>
    <component base="n" xScale="1" xOffset="126.667"/>
    <contour>
      <point x="143" y="722" type="line"/>
      <point x="119" y="433.333" type="line"/>
      <point x="46.3333" y="433.333" type="line"/>
      <point x="22.3333" y="722" type="line"/>
    </contour>
  </outline>
</glyph>
<glyph name="Eng" format="2">
  <advance width="683"/>
  <unicode hex="014A"/>
  <outline>
    <component base="N"/>
    <contour>
      <point x="648" y="20" type="line"/>
      <point x="648" y="-65.3333" type="line" smooth="yes"/>
      <point x="648" y="-146.667"/>
      <point x="585.225" y="-200"/>
      <point x="496.119" y="-200" type="curve" smooth="yes"/>
      <point x="442.667" y="-200"/>
      <point x="390" y="-181"/>
      <point x="355" y="-143" type="curve"/>
      <point x="416.346" y="-78.8021" type="line"/>
      <point x="434.784" y="-103.218"/>
      <point x="458" y="-116.667"/>
      <point x="484.64" y="-116.667" type="curve" smooth="yes"/>
      <point x="521.403" y="-116.667"/>
      <point x="545" y="-90.9872"/>
      <point x="545" y="-58.6667" type="curve" smooth="yes"/>
      <point x="545" y="20" type="line"/>
    </contour>
  </outline>
</glyph>
<glyph name="eng" format="2">
  <advance width="592"/>
  <unicode hex="014B"/>
  <outline>
    <component base="n"/>
    <contour>
      <point x="220.427" y="-143" type="curve"/>
      <point x="284.682" y="-77.4844" type="line"/>
      <point x="302.725" y="-101.401"/>
      <point x="325.265" y="-113.333"/>
      <point x="350.601" y="-113.333" type="curve" smooth="yes"/>
      <point x="388.765" y="-113.333"/>
      <point x="413.667" y="-84.3333"/>
      <point x="413.667" y="-45.3333" type="curve" smooth="yes"/>
      <point x="413.667" y="50" type="line"/>
      <point x="518.667" y="50" type="line"/>
      <point x="518.667" y="-62" type="line" smooth="yes"/>
      <point x="518.667" y="-146"/>
      <point x="454.004" y="-200"/>
      <point x="366.695" y="-200" type="curve" smooth="yes"/>
      <point x="311.11" y="-200"/>
      <point x="255.29" y="-181"/>
    </contour>
  </outline>
</glyph>
<glyph name="oe" format="2">
	<unicode hex="0153"/>
	<advance width="925"/>
	<outline>
		<contour>
			<point x="48" y="251.986" type="curve" smooth="yes"/>
			<point x="48" y="415.547"/>
			<point x="146.773" y="513.667"/>
			<point x="293.904" y="513.667" type="curve" smooth="yes"/>
			<point x="377" y="513.667"/>
			<point x="434.071" y="482.333"/>
			<point x="471.476" y="420.333" type="curve"/>
			<point x="512.062" y="480.667"/>
			<point x="578.573" y="512.777"/>
			<point x="656.752" y="512.777" type="curve" smooth="yes"/>
			<point x="809.31" y="512.777"/>
			<point x="884.874" y="414.56"/>
			<point x="878.495" y="278.346" type="curve" smooth="yes"/>
			<point x="876.333" y="232" type="line"/>
			<point x="521" y="232" type="line"/>
			<point x="521" y="144.333"/>
			<point x="557.332" y="57"/>
			<point x="652.058" y="57" type="curve" smooth="yes"/>
			<point x="718.666" y="57"/>
			<point x="759.667" y="99.3333"/>
			<point x="765.667" y="158.333" type="curve"/>
			<point x="875.667" y="158.333" type="line"/>
			<point x="861.667" y="52"/>
			<point x="776.333" y="-12"/>
			<point x="649.34" y="-12" type="curve" smooth="yes"/>
			<point x="559.333" y="-12"/>
			<point x="497.699" y="21"/>
			<point x="467.289" y="88.6667" type="curve"/>
			<point x="429.867" y="21"/>
			<point x="375" y="-12"/>
			<point x="291.942" y="-12" type="curve" smooth="yes"/>
			<point x="147.656" y="-12"/>
			<point x="48" y="87.4651"/>
		</contour>
		<contour>
			<point x="153" y="249.41" type="curve" smooth="yes"/>
			<point x="153" y="146.667"/>
			<point x="192.333" y="58"/>
			<point x="288.41" y="58" type="curve" smooth="yes"/>
			<point x="379.667" y="58"/>
			<point x="422.667" y="140.333"/>
			<point x="422.667" y="250" type="curve" smooth="yes"/>
			<point x="422.667" y="359.667"/>
			<point x="379" y="440.667"/>
			<point x="287.743" y="440.667" type="curve" smooth="yes"/>
			<point x="191.667" y="440.667"/>
			<point x="153" y="351.333"/>
		</contour>
		<contour>
			<point x="519.667" y="303.333" type="curve"/>
			<point x="765.333" y="303.333" type="line"/>
			<point x="765.333" y="396.333"/>
			<point x="727" y="442.333"/>
			<point x="655.847" y="442.333" type="curve" smooth="yes"/>
			<point x="567.301" y="442.333"/>
			<point x="519.667" y="371.136"/>
		</contour>
	</outline>
</glyph>
<glyph name="Tbar" format="2">
  <advance width="622"/>
  <unicode hex="0166"/>
  <outline>
    <component base="T"/>
    <contour>
      <point x="141" y="300.667" type="line"/>
      <point x="481.667" y="300.667" type="line"/>
      <point x="481.667" y="377.333" type="line"/>
      <point x="141" y="377.333" type="line"/>
    </contour>
  </outline>
</glyph>
<glyph name="longs" format="2">
	<unicode hex="017F"/>
	<advance width="340"/>
	<outline>
		<contour>
			<point x="106.667" y="575" type="line" smooth="yes"/>
			<point x="106.667" y="688.333"/>
			<point x="150.667" y="733"/>
			<point x="254.091" y="733" type="curve" smooth="yes"/>
			<point x="284.502" y="733"/>
			<point x="313.333" y="729"/>
			<point x="339" y="720.333" type="curve"/>
			<point x="339" y="642.667" type="line"/>
			<point x="322.025" y="652.158"/>
			<point x="302.058" y="655.333"/>
			<point x="283.242" y="655.333" type="curve" smooth="yes"/>
			<point x="228.668" y="655.333"/>
			<point x="211.667" y="629"/>
			<point x="211.667" y="572.667" type="curve" smooth="yes"/>
			<point x="211.667" y="0" type="line"/>
			<point x="106.667" y="0" type="line"/>
			<point x="106.667" y="428.333" type="line"/>
			<point x="10" y="428.333" type="line"/>
			<point x="10" y="500" type="line"/>
			<point x="106.667" y="500" type="line"/>
		</contour>
	</outline>
</glyph>
<glyph name="florin" format="2">
	<unicode hex="0192"/>
	<advance width="511"/>
	<outline>
		<contour>
			<point x="108" y="0.75" type="curve" smooth="yes"/>
			<point x="224" y="426.333" type="line"/>
			<point x="124" y="426.333" type="line"/>
			<point x="143.667" y="502.333" type="line"/>
			<point x="244" y="502.333" type="line"/>
			<point x="283.551" y="641.112"/>
			<point x="309.071" y="732"/>
			<point x="456.375" y="732" type="curve" smooth="yes"/>
			<point x="482.469" y="732"/>
			<point x="507.313" y="729.238"/>
			<point x="532.667" y="720.242" type="curve"/>
			<point x="510.333" y="640.717" type="line"/>
			<point x="494.667" y="650.35"/>
			<point x="475.333" y="654.667"/>
			<point x="454.427" y="654.667" type="curve" smooth="yes"/>
			<point x="389.251" y="654.667"/>
			<point x="367.356" y="602.957"/>
			<point x="343.333" y="501.333" type="curve"/>
			<point x="463.333" y="501.333" type="line"/>
			<point x="443.667" y="425.333" type="line"/>
			<point x="323.667" y="425.333" type="line"/>
			<point x="206.667" y="-2.92231" type="line" smooth="yes"/>
			<point x="165.552" y="-153.662"/>
			<point x="115.057" y="-211.667"/>
			<point x="-16.6667" y="-211.667" type="curve" smooth="yes"/>
			<point x="-36.3333" y="-211.667"/>
			<point x="-56.3333" y="-206.693"/>
			<point x="-75.6667" y="-196.41" type="curve"/>
			<point x="-51.6667" y="-114.648" type="line"/>
			<point x="-40" y="-126.994"/>
			<point x="-26" y="-133.667"/>
			<point x="-3.4893" y="-133.667" type="curve" smooth="yes"/>
			<point x="56.8756" y="-133.667"/>
			<point x="84.8068" y="-84.127"/>
		</contour>
	</outline>
</glyph>
<glyph name="uni01C1" format="2">
	<unicode hex="01C1"/>
	<advance width="688"/>
	<outline>
		<contour>
			<point x="316" y="-258" type="line"/>
			<point x="258.333" y="-258" type="line"/>
			<point x="258.333" y="796" type="line"/>
			<point x="316" y="796" type="line"/>
		</contour>
		<contour>
			<point x="430.667" y="-258" type="line"/>
			<point x="373" y="-258" type="line"/>
			<point x="373" y="796" type="line"/>
			<point x="430.667" y="796" type="line"/>
		</contour>
	</outline>
</glyph>
<glyph name="uni01C3" format="2">
  <advance width="369"/>
  <unicode hex="01C3"/>
  <outline>
    <contour>
      <point x="234.333" y="0" type="line"/>
      <point x="127.667" y="0" type="line"/>
      <point x="127.667" y="95" type="line"/>
      <point x="234.333" y="95" type="line"/>
    </contour>
    <contour>
      <point x="248" y="722" type="line"/>
      <point x="224.667" y="169" type="line"/>
      <point x="128.333" y="169" type="line"/>
      <point x="105" y="722" type="line"/>
    </contour>
  </outline>
</glyph>
<glyph name="uni01D6" format="2">
  <advance width="591"/>
  <unicode hex="01D6"/>
  <anchor x="294" y="586.667" name="top"/>
  <anchor x="296.667" y="870" name="top.mkmk"/>
  <outline>
    <contour>
      <point x="73.3333" y="169" type="curve" smooth="yes"/>
      <point x="73.3333" y="500" type="line"/>
      <point x="178.333" y="500" type="line"/>
      <point x="178.333" y="181" type="line" smooth="yes"/>
      <point x="178.333" y="107.667"/>
      <point x="225.667" y="57.6667"/>
      <point x="291.333" y="57.6667" type="curve" smooth="yes"/>
      <point x="362" y="57.6667"/>
      <point x="412.667" y="114"/>
      <point x="412.667" y="194.333" type="curve" smooth="yes"/>
      <point x="412.667" y="500.333" type="line"/>
      <point x="517.667" y="500.333" type="line"/>
      <point x="517.667" y="0" type="line"/>
      <point x="412.667" y="0" type="line"/>
      <point x="412.667" y="68.6667" type="line"/>
      <point x="376.744" y="13.6107"/>
      <point x="326.715" y="-12.6667"/>
      <point x="249.667" y="-12.6667" type="curve" smooth="yes"/>
      <point x="134.333" y="-12.6667"/>
      <point x="73.3333" y="52.3333"/>
    </contour>
    <contour>
      <point x="319.333" y="586.667" type="line"/>
      <point x="222.667" y="586.667" type="line"/>
      <point x="222.667" y="693.333" type="line"/>
      <point x="319.333" y="693.333" type="line"/>
    </contour>
    <contour>
      <point x="369.333" y="586.667" type="line"/>
      <point x="272.667" y="586.667" type="line"/>
      <point x="272.667" y="693.333" type="line"/>
      <point x="369.333" y="693.333" type="line"/>
    </contour>
    <contour>
      <point x="456.667" y="771.333" type="line"/>
      <point x="136.667" y="771.333" type="line"/>
      <point x="136.667" y="850.667" type="line"/>
      <point x="456.667" y="850.667" type="line"/>
    </contour>
  </outline>
</glyph>
<glyph name="uni01DD" format="2">
	<unicode hex="01DD"/>
	<advance width="568"/>
	<outline>
		<contour>
			<point x="298.889" y="248.556" type="curve" smooth="yes"/>
			<point x="298.889" y="231.778"/>
			<point x="291" y="220.667"/>
			<point x="273.889" y="220.667" type="curve" smooth="yes"/>
			<point x="259.778" y="220.667"/>
			<point x="249.333" y="227.889"/>
			<point x="249.333" y="243.667" type="curve" smooth="yes"/>
			<point x="249.333" y="249.667" type="line"/>
			<point x="293.556" y="249.667" type="line"/>
			<point x="293.556" y="264.444"/>
			<point x="283.333" y="274"/>
			<point x="271.444" y="274" type="curve" smooth="yes"/>
			<point x="261.889" y="274"/>
			<point x="255.222" y="267.556"/>
			<point x="254.556" y="259.111" type="curve"/>
			<point x="248.333" y="259.111" type="line"/>
			<point x="251.556" y="269.889"/>
			<point x="260.222" y="278.889"/>
			<point x="273.222" y="278.889" type="curve" smooth="yes"/>
			<point x="291.556" y="278.889"/>
			<point x="298.889" y="264.556"/>
		</contour>
		<contour>
			<point x="293.556" y="244.667" type="curve"/>
			<point x="254.667" y="244.667" type="line"/>
			<point x="254.667" y="238.778"/>
			<point x="257.556" y="225.667"/>
			<point x="273.222" y="225.667" type="curve" smooth="yes"/>
			<point x="283.111" y="225.667"/>
			<point x="293.556" y="230.333"/>
		</contour>
	</outline>
</glyph>
<glyph name="uni01DF" format="2">
  <advance width="569"/>
  <unicode hex="01DF"/>
  <anchor x="280.333" y="-50" name="bottom"/>
  <anchor x="425" y="10" name="ogonekLC"/>
  <anchor x="287.333" y="586.667" name="top"/>
  <anchor x="290" y="870" name="top.mkmk"/>
  <outline>
    <contour>
      <point x="54.6667" y="139.667" type="curve" smooth="yes"/>
      <point x="54.6667" y="253.667"/>
      <point x="151" y="308"/>
      <point x="314.667" y="308" type="curve" smooth="yes"/>
      <point x="341.837" y="308"/>
      <point x="357.163" y="307"/>
      <point x="384.333" y="305" type="curve"/>
      <point x="384.333" y="351.667" type="line" smooth="yes"/>
      <point x="384.333" y="410"/>
      <point x="350" y="441"/>
      <point x="285.667" y="441" type="curve" smooth="yes"/>
      <point x="224.667" y="441"/>
      <point x="187.667" y="413"/>
      <point x="187.667" y="364.667" type="curve"/>
      <point x="80.3333" y="364.667" type="line"/>
      <point x="80.3333" y="459.333"/>
      <point x="155.333" y="513.333"/>
      <point x="286.667" y="513.333" type="curve" smooth="yes"/>
      <point x="448.503" y="513.333"/>
      <point x="494.467" y="457.108"/>
      <point x="491.667" y="335" type="curve" smooth="yes"/>
      <point x="488.333" y="188.667" type="line" smooth="yes"/>
      <point x="486.127" y="91.359"/>
      <point x="496.333" y="30.3333"/>
      <point x="506" y="0" type="curve"/>
      <point x="403.667" y="0" type="line"/>
      <point x="396.667" y="21.6667"/>
      <point x="392.667" y="53"/>
      <point x="391.333" y="68" type="curve"/>
      <point x="340" y="6.66667"/>
      <point x="300.667" y="-14"/>
      <point x="237.667" y="-14" type="curve" smooth="yes"/>
      <point x="128.058" y="-14"/>
      <point x="54.6667" y="47.6162"/>
    </contour>
    <contour>
      <point x="163.333" y="144.333" type="curve" smooth="yes"/>
      <point x="163.333" y="97.9569"/>
      <point x="204.718" y="62"/>
      <point x="258.333" y="62" type="curve" smooth="yes"/>
      <point x="341.333" y="62"/>
      <point x="384.333" y="110.667"/>
      <point x="384.333" y="201.667" type="curve" smooth="yes"/>
      <point x="384.333" y="233" type="line"/>
      <point x="365.223" y="235"/>
      <point x="354.443" y="236"/>
      <point x="335.333" y="236" type="curve" smooth="yes"/>
      <point x="227.667" y="236"/>
      <point x="163.333" y="210.333"/>
    </contour>
    <contour>
      <point x="446" y="586.667" type="line"/>
      <point x="349.333" y="586.667" type="line"/>
      <point x="349.333" y="693.333" type="line"/>
      <point x="446" y="693.333" type="line"/>
    </contour>
    <contour>
      <point x="229.333" y="586.667" type="line"/>
      <point x="132.667" y="586.667" type="line"/>
      <point x="132.667" y="693.333" type="line"/>
      <point x="229.333" y="693.333" type="line"/>
    </contour>
    <contour>
      <point x="450" y="764.667" type="line"/>
      <point x="130" y="764.667" type="line"/>
      <point x="130" y="844" type="line"/>
      <point x="450" y="844" type="line"/>
    </contour>
  </outline>
</glyph>
<glyph name="uni01F1" format="2">
	<unicode hex="01F1"/>
	<advance width="1360"/>
	<outline>
		<contour>
			<point x="1316" y="0" type="line"/>
			<point x="773" y="0" type="line"/>
			<point x="773" y="125" type="line"/>
			<point x="1135" y="607" type="line"/>
			<point x="795" y="607" type="line"/>
			<point x="795" y="722" type="line"/>
			<point x="1308" y="722" type="line"/>
			<point x="1308" y="597" type="line"/>
			<point x="946" y="115" type="line"/>
			<point x="1316" y="115" type="line"/>
		</contour>
		<contour>
			<point x="674" y="361" type="curve"/>
			<point x="674" y="360" type="line"/>
			<point x="674" y="174"/>
			<point x="580" y="64"/>
			<point x="439" y="20" type="curve" smooth="yes"/>
			<point x="393" y="6"/>
			<point x="343" y="-1"/>
			<point x="289" y="-1" type="curve" smooth="yes"/>
			<point x="70" y="-1" type="line"/>
			<point x="70" y="721" type="line"/>
			<point x="289" y="721" type="line" smooth="yes"/>
			<point x="404" y="721"/>
			<point x="494" y="689"/>
			<point x="560" y="636" type="curve" smooth="yes"/>
			<point x="629" y="581"/>
			<point x="674" y="485"/>
		</contour>
		<contour>
			<point x="525" y="359" type="curve" smooth="yes"/>
			<point x="525" y="523"/>
			<point x="446" y="605"/>
			<point x="289" y="605" type="curve" smooth="yes"/>
			<point x="220" y="605" type="line"/>
			<point x="220" y="113" type="line"/>
			<point x="289" y="113" type="line" smooth="yes"/>
			<point x="446" y="113"/>
			<point x="525" y="195"/>
		</contour>
	</outline>
</glyph>
<glyph name="uni022C" format="2">
	<unicode hex="022C"/>
	<advance width="767"/>
	<outline>
		<contour>
			<point x="52" y="368" type="curve" smooth="yes"/>
			<point x="52" y="585"/>
			<point x="165" y="735.333"/>
			<point x="384.667" y="735.333" type="curve" smooth="yes"/>
			<point x="603.667" y="735.333"/>
			<point x="715.667" y="584.667"/>
			<point x="715.667" y="368" type="curve" smooth="yes"/>
			<point x="715.667" y="152.667"/>
			<point x="605.667" y="-14"/>
			<point x="384.667" y="-14" type="curve" smooth="yes"/>
			<point x="163" y="-14"/>
			<point x="52" y="153"/>
		</contour>
		<contour>
			<point x="171" y="366" type="curve" smooth="yes"/>
			<point x="171" y="200.667"/>
			<point x="230" y="82.6667"/>
			<point x="383.667" y="82.6667" type="curve" smooth="yes"/>
			<point x="544.333" y="82.6667"/>
			<point x="596.667" y="210"/>
			<point x="596.667" y="367.667" type="curve" smooth="yes"/>
			<point x="596.667" y="522.667"/>
			<point x="546" y="639.333"/>
			<point x="384.667" y="639.333" type="curve" smooth="yes"/>
			<point x="234" y="639.333"/>
			<point x="171" y="534.667"/>
		</contour>
		<contour>
			<point x="220" y="815" type="line"/>
			<point x="226" y="875"/>
			<point x="263.333" y="916"/>
			<point x="307.605" y="916" type="curve" smooth="yes"/>
			<point x="330.276" y="916"/>
			<point x="355.688" y="906.483"/>
			<point x="378.84" y="895.283" type="curve" smooth="yes"/>
			<point x="397.738" y="885.872"/>
			<point x="416.16" y="878.667"/>
			<point x="429.744" y="878.667" type="curve" smooth="yes"/>
			<point x="447.667" y="878.667"/>
			<point x="462" y="892"/>
			<point x="466.667" y="918" type="curve"/>
			<point x="520.333" y="918" type="line"/>
			<point x="515" y="861.333"/>
			<point x="481.667" y="816"/>
			<point x="434.069" y="816" type="curve" smooth="yes"/>
			<point x="410.499" y="816"/>
			<point x="385.043" y="825.985"/>
			<point x="363.382" y="836.769" type="curve" smooth="yes"/>
			<point x="343.739" y="846.55"/>
			<point x="325.592" y="853.333"/>
			<point x="311.447" y="853.333" type="curve" smooth="yes"/>
			<point x="294" y="853.333"/>
			<point x="278.333" y="841"/>
			<point x="274" y="815" type="curve"/>
		</contour>
		<contour>
			<point x="532" y="988.333" type="line"/>
			<point x="212" y="988.333" type="line"/>
			<point x="212" y="1067.67" type="line"/>
			<point x="532" y="1067.67" type="line"/>
		</contour>
	</outline>
	<anchor name="top" x="374" y="797"/>
</glyph>
<glyph name="uni022D" format="2">
  <advance width="615"/>
  <unicode hex="022D"/>
  <anchor x="302.667" y="586.667" name="top"/>
  <outline>
    <contour>
      <point x="54.6667" y="250" type="curve" smooth="yes"/>
      <point x="54.6667" y="409.333"/>
      <point x="154.667" y="512.667"/>
      <point x="308.333" y="512.667" type="curve" smooth="yes"/>
      <point x="462" y="512.667"/>
      <point x="560" y="409.333"/>
      <point x="560" y="250" type="curve" smooth="yes"/>
      <point x="560" y="90.3333"/>
      <point x="461.667" y="-12.6667"/>
      <point x="308.333" y="-12.6667" type="curve" smooth="yes"/>
      <point x="154.667" y="-12.6667"/>
      <point x="54.6667" y="90.6667"/>
    </contour>
    <contour>
      <point x="162.333" y="250" type="curve" smooth="yes"/>
      <point x="162.333" y="123"/>
      <point x="214.333" y="59.3333"/>
      <point x="307.333" y="59.3333" type="curve" smooth="yes"/>
      <point x="400.333" y="59.3333"/>
      <point x="452.333" y="123"/>
      <point x="452.333" y="250" type="curve" smooth="yes"/>
      <point x="452.333" y="377"/>
      <point x="400.333" y="440.667"/>
      <point x="307.333" y="440.667" type="curve" smooth="yes"/>
      <point x="214.333" y="440.667"/>
      <point x="162.333" y="377"/>
    </contour>
    <contour>
      <point x="148.667" y="604.667" type="line"/>
      <point x="154.667" y="664.667"/>
      <point x="192" y="705.667"/>
      <point x="236.271" y="705.667" type="curve" smooth="yes"/>
      <point x="258.943" y="705.667"/>
      <point x="284.355" y="696.15"/>
      <point x="307.506" y="684.95" type="curve" smooth="yes"/>
      <point x="326.404" y="675.539"/>
      <point x="344.827" y="668.333"/>
      <point x="358.41" y="668.333" type="curve" smooth="yes"/>
      <point x="376.333" y="668.333"/>
      <point x="390.667" y="681.667"/>
      <point x="395.333" y="707.667" type="curve"/>
      <point x="449" y="707.667" type="line"/>
      <point x="443.667" y="651"/>
      <point x="410.333" y="605.667"/>
      <point x="362.736" y="605.667" type="curve" smooth="yes"/>
      <point x="339.166" y="605.667"/>
      <point x="313.709" y="615.651"/>
      <point x="292.048" y="626.436" type="curve" smooth="yes"/>
      <point x="272.406" y="636.216"/>
      <point x="254.258" y="643"/>
      <point x="240.114" y="643" type="curve" smooth="yes"/>
      <point x="222.667" y="643"/>
      <point x="207" y="630.667"/>
      <point x="202.667" y="604.667" type="curve"/>
    </contour>
    <contour>
      <point x="460.667" y="768" type="line"/>
      <point x="140.667" y="768" type="line"/>
      <point x="140.667" y="847.333" type="line"/>
      <point x="460.667" y="847.333" type="line"/>
    </contour>
  </outline>
</glyph>
<glyph name="j.dotless" format="2">
  <advance width="274"/>
  <unicode hex="0237"/>
  <outline>
    <contour>
      <point x="53.3333" y="-204" type="line"/>
      <point x="53.3333" y="-123.667" type="line"/>
      <point x="74" y="-123.667" type="line" smooth="yes"/>
      <point x="104.333" y="-123.667"/>
      <point x="108" y="-86"/>
      <point x="108" y="-46" type="curve" smooth="yes"/>
      <point x="108" y="500" type="line"/>
      <point x="213" y="500" type="line"/>
      <point x="213" y="-76" type="line" smooth="yes"/>
      <point x="213" y="-167.333"/>
      <point x="156.333" y="-204"/>
      <point x="77.6667" y="-204" type="curve" smooth="yes"/>
    </contour>
  </outline>
</glyph>
<glyph name="uni0253" format="2">
	<unicode hex="0253"/>
	<advance width="606"/>
	<outline>
		<component base="uni0252" xOffset="13.3333"/>
		<contour>
			<point x="73.3333" y="380" type="line"/>
			<point x="73.3333" y="545" type="line" smooth="yes"/>
			<point x="73.3333" y="653.789"/>
			<point x="154.986" y="732"/>
			<point x="268.333" y="732" type="curve" smooth="yes"/>
			<point x="349.38" y="732"/>
			<point x="398.683" y="714.159"/>
			<point x="434.333" y="679.667" type="curve"/>
			<point x="374.956" y="621.249" type="line"/>
			<point x="351.6" y="640.703"/>
			<point x="318.667" y="650.667"/>
			<point x="280.348" y="650.667" type="curve" smooth="yes"/>
			<point x="198.999" y="650.667"/>
			<point x="178.333" y="591.108"/>
			<point x="178.333" y="505.724" type="curve" smooth="yes"/>
			<point x="178.333" y="380" type="line"/>
		</contour>
	</outline>
</glyph>
<glyph name="uni0255" format="2">
	<unicode hex="0255"/>
	<advance width="555"/>
	<outline>
		<contour>
			<point x="205.983" y="72.0021" type="curve"/>
			<point x="289.835" y="127.333"/>
			<point x="376.667" y="205.496"/>
			<point x="427.667" y="258.409" type="curve"/>
			<point x="471.333" y="298.699"/>
			<point x="460.681" y="309.667"/>
			<point x="414.192" y="264" type="curve"/>
			<point x="320.204" y="264"/>
			<point x="201.977" y="160.858"/>
			<point x="156.326" y="19.3333" type="curve"/>
			<point x="161.059" y="35.5107"/>
			<point x="177.697" y="44.8918"/>
			<point x="165.302" y="42.6667" type="curve"/>
			<point x="173.627" y="162.143"/>
			<point x="247.278" y="223.667"/>
			<point x="302.256" y="199.333" type="curve"/>
			<point x="323.613" y="167.695"/>
			<point x="350.256" y="129.333"/>
			<point x="381.866" y="110.699" type="curve"/>
			<point x="396.31" y="78.7238"/>
			<point x="368.953" y="67.0286"/>
			<point x="340.066" y="76.9936" type="curve"/>
			<point x="252.927" y="82.3333"/>
			<point x="230.973" y="141.683"/>
			<point x="222.832" y="212.57" type="curve"/>
			<point x="196.472" y="279.667"/>
			<point x="174.208" y="307.738"/>
			<point x="224.807" y="248" type="curve"/>
			<point x="266.282" y="249.133"/>
			<point x="279.306" y="222.636"/>
			<point x="279.592" y="183" type="curve"/>
			<point x="310.991" y="253.762"/>
			<point x="397.397" y="305.333"/>
			<point x="451.877" y="305.333" type="curve"/>
			<point x="467.841" y="380"/>
			<point x="434.288" y="408.35"/>
			<point x="361.344" y="386.764" type="curve" smooth="yes"/>
			<point x="260.446" y="358.415"/>
			<point x="177.584" y="262"/>
			<point x="136.739" y="155.128" type="curve"/>
			<point x="78.7639" y="56.057"/>
			<point x="99.4497" y="18.0376"/>
		</contour>
	</outline>
</glyph>
<glyph name="uni0257" format="2">
	<unicode hex="0257"/>
	<advance width="591"/>
	<outline>
		<contour>
			<point x="159.667" y="247" type="curve" smooth="yes"/>
			<point x="159.667" y="157"/>
			<point x="204" y="62"/>
			<point x="299.667" y="62" type="curve" smooth="yes"/>
			<point x="386.667" y="62"/>
			<point x="431" y="141"/>
			<point x="431" y="247" type="curve" smooth="yes"/>
			<point x="431" y="334.667"/>
			<point x="400.667" y="442"/>
			<point x="295.333" y="442" type="curve" smooth="yes"/>
			<point x="192.333" y="442"/>
			<point x="159.667" y="337.667"/>
		</contour>
		<contour>
			<point x="54.6667" y="252.667" type="curve" smooth="yes"/>
			<point x="54.6667" y="414"/>
			<point x="149.333" y="513.333"/>
			<point x="280" y="513.333" type="curve" smooth="yes"/>
			<point x="355" y="513.333"/>
			<point x="399.667" y="484"/>
			<point x="431" y="441.667" type="curve"/>
			<point x="431" y="500" type="line"/>
			<point x="536" y="500" type="line"/>
			<point x="536" y="-0.333333" type="line"/>
			<point x="431" y="-0.333333" type="line"/>
			<point x="431" y="60.6667" type="line"/>
			<point x="404.333" y="29.6667"/>
			<point x="346.333" y="-13.3333"/>
			<point x="285.333" y="-13.3333" type="curve" smooth="yes"/>
			<point x="134.667" y="-13.3333"/>
			<point x="54.6667" y="103.333"/>
		</contour>
		<contour>
			<point x="431" y="380" type="line"/>
			<point x="431" y="545" type="line" smooth="yes"/>
			<point x="431" y="653.789"/>
			<point x="512.653" y="732"/>
			<point x="626" y="732" type="curve" smooth="yes"/>
			<point x="707.046" y="732"/>
			<point x="756.35" y="714.159"/>
			<point x="792" y="679.667" type="curve"/>
			<point x="732.622" y="621.249" type="line"/>
			<point x="709.266" y="640.703"/>
			<point x="676.333" y="650.667"/>
			<point x="638.015" y="650.667" type="curve" smooth="yes"/>
			<point x="556.666" y="650.667"/>
			<point x="536" y="591.108"/>
			<point x="536" y="505.724" type="curve" smooth="yes"/>
			<point x="536" y="380" type="line"/>
		</contour>
	</outline>
</glyph>
<glyph name="uni025A" format="2">
	<unicode hex="025A"/>
	<advance width="766"/>
	<outline>
		<contour>
			<point x="162.988" y="153.333" type="line"/>
			<point x="559.839" y="343" type="line"/>
			<point x="559.839" y="301.21" type="line" smooth="yes"/>
			<point x="559.839" y="236.794"/>
			<point x="604.851" y="204.02"/>
			<point x="671.831" y="204.02" type="curve" smooth="yes"/>
			<point x="731.001" y="204.02"/>
			<point x="765" y="256.845"/>
			<point x="765" y="319.333" type="curve"/>
			<point x="713.182" y="319.333" type="line"/>
			<point x="713.182" y="281.792"/>
			<point x="702.738" y="258.042"/>
			<point x="674.667" y="257.956" type="curve" smooth="yes"/>
			<point x="642.244" y="257.856"/>
			<point x="630" y="272.027"/>
			<point x="630" y="303" type="curve" smooth="yes"/>
			<point x="630" y="452" type="line"/>
			<point x="54.6667" y="178" type="line"/>
		</contour>
		<contour>
			<point x="485" y="241" type="curve" smooth="yes"/>
			<point x="485" y="401.333"/>
			<point x="407" y="512.667"/>
			<point x="255.333" y="512.667" type="curve" smooth="yes"/>
			<point x="139" y="512.667"/>
			<point x="62.6667" y="455.667"/>
			<point x="57.3333" y="335.333" type="curve"/>
			<point x="164.667" y="335.333" type="line"/>
			<point x="169.667" y="394.333"/>
			<point x="197" y="440.667"/>
			<point x="260.667" y="440.667" type="curve" smooth="yes"/>
			<point x="357.667" y="440.667"/>
			<point x="376.667" y="335"/>
			<point x="376.667" y="246.667" type="curve" smooth="yes"/>
			<point x="376.667" y="132"/>
			<point x="347.667" y="58.6667"/>
			<point x="262.333" y="58.6667" type="curve" smooth="yes"/>
			<point x="195.667" y="58.6667"/>
			<point x="163" y="82.3333"/>
			<point x="163" y="153.333" type="curve"/>
			<point x="54.6667" y="178" type="line"/>
			<point x="58.6667" y="62.3333"/>
			<point x="136.333" y="-12.6667"/>
			<point x="261.667" y="-12.6667" type="curve" smooth="yes"/>
			<point x="404" y="-12.6667"/>
			<point x="485" y="77.6667"/>
		</contour>
	</outline>
</glyph>
<glyph name="uni025F" format="2">
  <advance width="339"/>
  <unicode hex="025F"/>
  <outline>
    <contour>
      <point x="-30.2167" y="-150.775" type="curve"/>
      <point x="35.4915" y="-83.951" type="line"/>
      <point x="53.8015" y="-105.76"/>
      <point x="69.0926" y="-115.219"/>
      <point x="92.2185" y="-115.381" type="curve" smooth="yes"/>
      <point x="121.96" y="-115.669"/>
      <point x="135.333" y="-98.1544"/>
      <point x="135.333" y="-63.6667" type="curve" smooth="yes"/>
      <point x="135.333" y="500" type="line"/>
      <point x="240.333" y="500" type="line"/>
      <point x="240.333" y="-76" type="line" smooth="yes"/>
      <point x="240.333" y="-155.804"/>
      <point x="190.793" y="-206.826"/>
      <point x="106.718" y="-206.834" type="curve" smooth="yes"/>
      <point x="52.0392" y="-206.841"/>
      <point x="8.82007" y="-189.328"/>
    </contour>
    <contour>
      <point x="42.3333" y="215.333" type="line"/>
      <point x="42.3333" y="284.333" type="line"/>
      <point x="329" y="284.333" type="line"/>
      <point x="329" y="215.333" type="line"/>
    </contour>
  </outline>
</glyph>
<glyph name="uni0262" format="2">
	<unicode hex="0262"/>
	<advance width="564"/>
	<outline>
		<contour>
			<point x="36" y="251.117" type="curve" smooth="yes"/>
			<point x="36" y="409.956"/>
			<point x="135.255" y="512.667"/>
			<point x="300.484" y="512.667" type="curve" smooth="yes"/>
			<point x="417.27" y="512.667"/>
			<point x="497.335" y="447.075"/>
			<point x="497.335" y="359.081" type="curve"/>
			<point x="392.854" y="359.081" type="line"/>
			<point x="392.854" y="401.526"/>
			<point x="358.6" y="435.155"/>
			<point x="294.938" y="435.155" type="curve" smooth="yes"/>
			<point x="201.433" y="435.155"/>
			<point x="140.844" y="362.85"/>
			<point x="140.844" y="252.298" type="curve" smooth="yes"/>
			<point x="140.844" y="126.434"/>
			<point x="199.525" y="60.6317"/>
			<point x="304.723" y="60.6317" type="curve" smooth="yes"/>
			<point x="341.173" y="60.6317"/>
			<point x="376.742" y="65.6225"/>
			<point x="410.879" y="75.3306" type="curve"/>
			<point x="410.879" y="197.655" type="line"/>
			<point x="303.983" y="197.655" type="line"/>
			<point x="303.983" y="266.105" type="line"/>
			<point x="493.125" y="266.105" type="line"/>
			<point x="493.125" y="21.171" type="line"/>
			<point x="431.079" y="-1.87953"/>
			<point x="371.949" y="-12.6786"/>
			<point x="313.551" y="-12.6786" type="curve" smooth="yes"/>
			<point x="129.68" y="-12.6786"/>
			<point x="36" y="76.8771"/>
		</contour>
	</outline>
</glyph>
<glyph name="uni0264" format="2">
  <advance width="579"/>
  <unicode hex="0264"/>
  <outline>
    <contour>
      <point x="316.688" y="96.2273" type="line"/>
      <point x="307.169" y="120.92"/>
      <point x="288.224" y="151.287"/>
      <point x="274.299" y="170.313" type="curve"/>
      <point x="298.467" y="169.914" type="line"/>
      <point x="284.834" y="151.147"/>
      <point x="267.354" y="124.369"/>
      <point x="256.354" y="96.2272" type="curve"/>
      <point x="256.354" y="87.1717" type="line" smooth="yes"/>
      <point x="256.354" y="64.0555"/>
      <point x="268.354" y="52.3333"/>
      <point x="285.021" y="52.3333" type="curve" smooth="yes"/>
      <point x="302.354" y="52.3333"/>
      <point x="316.688" y="63.0606"/>
      <point x="316.688" y="87.1818" type="curve" smooth="yes"/>
    </contour>
    <contour>
      <point x="576.354" y="440.847" type="curve" smooth="yes"/>
      <point x="576.354" y="427.934"/>
      <point x="571.688" y="418.571"/>
      <point x="563.185" y="418.571" type="curve" smooth="yes"/>
      <point x="556.949" y="418.571"/>
      <point x="550.32" y="423.109"/>
      <point x="546.026" y="427.171" type="curve" smooth="yes"/>
      <point x="539.811" y="433.05"/>
      <point x="530.364" y="438"/>
      <point x="519.61" y="438" type="curve" smooth="yes"/>
      <point x="494.354" y="438"/>
      <point x="454.802" y="417.284"/>
      <point x="420.688" y="364.576" type="curve" smooth="yes"/>
      <point x="344.006" y="247.073" type="line"/>
      <point x="385.006" y="168.679"/>
      <point x="409.021" y="114.288"/>
      <point x="409.021" y="80.5404" type="curve" smooth="yes"/>
      <point x="409.021" y="34.6866"/>
      <point x="357.688" y="-12.6667"/>
      <point x="283.652" y="-12.6667" type="curve" smooth="yes"/>
      <point x="215.354" y="-12.6667"/>
      <point x="167.021" y="26.7463"/>
      <point x="167.021" y="90.197" type="curve" smooth="yes"/>
      <point x="167.021" y="116.328"/>
      <point x="187.688" y="160.567"/>
      <point x="232.688" y="245.996" type="curve"/>
      <point x="155.354" y="364.576" type="line" smooth="yes"/>
      <point x="123.956" y="413.425"/>
      <point x="83.6877" y="438"/>
      <point x="60.3897" y="438" type="curve" smooth="yes"/>
      <point x="50.0168" y="438"/>
      <point x="37.8735" y="431.346"/>
      <point x="30.8344" y="425.701" type="curve" smooth="yes"/>
      <point x="26.2476" y="421.977"/>
      <point x="20.38" y="418.571"/>
      <point x="14.1412" y="418.571" type="curve" smooth="yes"/>
      <point x="3.68766" y="418.571"/>
      <point x="-0.312337" y="427.596"/>
      <point x="-0.312337" y="440.104" type="curve" smooth="yes"/>
      <point x="-0.312337" y="469.31"/>
      <point x="53.5495" y="512.667"/>
      <point x="92.5243" y="512.667" type="curve" smooth="yes"/>
      <point x="141.021" y="512.667"/>
      <point x="207.021" y="449.667"/>
      <point x="288.021" y="324.045" type="curve"/>
      <point x="366.021" y="449.667"/>
      <point x="432.021" y="512.667"/>
      <point x="481.026" y="512.667" type="curve" smooth="yes"/>
      <point x="520.313" y="512.667"/>
      <point x="576.354" y="468.843"/>
    </contour>
  </outline>
</glyph>
<glyph name="uni0265" format="2">
	<unicode hex="0265"/>
	<advance width="591"/>
	<outline>
		<contour>
			<point x="246.816" y="-13" type="curve" smooth="yes"/>
			<point x="131" y="-13"/>
			<point x="73.3333" y="50.3333"/>
			<point x="73.3333" y="180" type="curve" smooth="yes"/>
			<point x="73.3333" y="500" type="line"/>
			<point x="178.333" y="500" type="line"/>
			<point x="178.333" y="190.667" type="line" smooth="yes"/>
			<point x="178.333" y="112.333"/>
			<point x="213.667" y="59"/>
			<point x="278.574" y="59" type="curve" smooth="yes"/>
			<point x="345.667" y="59"/>
			<point x="412.333" y="118.333"/>
			<point x="412.333" y="203" type="curve" smooth="yes"/>
			<point x="412.333" y="500" type="line"/>
			<point x="517.333" y="500" type="line"/>
			<point x="517.333" y="-200" type="line"/>
			<point x="412.333" y="-200" type="line"/>
			<point x="412.333" y="61" type="line"/>
			<point x="379.884" y="15.0862"/>
			<point x="323.359" y="-13"/>
		</contour>
	</outline>
</glyph>
<glyph name="uni0266" format="2">
  <advance width="573"/>
  <unicode hex="0266"/>
  <outline>
    <contour>
      <point x="343.667" y="512.667" type="curve" smooth="yes"/>
      <point x="459.667" y="512.667"/>
      <point x="517.333" y="449.333"/>
      <point x="517.333" y="319.667" type="curve" smooth="yes"/>
      <point x="517.333" y="-0.333333" type="line"/>
      <point x="412.333" y="-0.333333" type="line"/>
      <point x="412.333" y="309" type="line" smooth="yes"/>
      <point x="412.333" y="387.333"/>
      <point x="377" y="440.667"/>
      <point x="312.333" y="440.667" type="curve" smooth="yes"/>
      <point x="245" y="440.667"/>
      <point x="178.333" y="381.333"/>
      <point x="178.333" y="296.667" type="curve" smooth="yes"/>
      <point x="178.333" y="-0.333333" type="line"/>
      <point x="73.3333" y="-0.333333" type="line"/>
      <point x="73.3333" y="462" type="line"/>
      <point x="178.333" y="462" type="line"/>
      <point x="178.333" y="438.667" type="line"/>
      <point x="210.783" y="484.58"/>
      <point x="267.307" y="512.667"/>
    </contour>
    <contour>
      <point x="73.3333" y="380" type="line"/>
      <point x="73.3333" y="545" type="line" smooth="yes"/>
      <point x="73.3333" y="653.789"/>
      <point x="154.986" y="732"/>
      <point x="268.333" y="732" type="curve" smooth="yes"/>
      <point x="349.38" y="732"/>
      <point x="398.683" y="714.159"/>
      <point x="434.333" y="679.667" type="curve"/>
      <point x="374.956" y="621.249" type="line"/>
      <point x="351.6" y="640.703"/>
      <point x="318.667" y="650.667"/>
      <point x="280.348" y="650.667" type="curve" smooth="yes"/>
      <point x="198.999" y="650.667"/>
      <point x="178.333" y="591.108"/>
      <point x="178.333" y="505.724" type="curve" smooth="yes"/>
      <point x="178.333" y="380" type="line"/>
    </contour>
  </outline>
</glyph>
<glyph name="uni0268" format="2">
	<unicode hex="0268"/>
	<advance width="320"/>
	<outline>
		<component base="i" xOffset="24.6667"/>
		<contour>
			<point x="295" y="215.333" type="line"/>
			<point x="25" y="215.333" type="line"/>
			<point x="25" y="284.333" type="line"/>
			<point x="295" y="284.333" type="line"/>
		</contour>
	</outline>
</glyph>
<glyph name="uni026A" format="2">
	<unicode hex="026A"/>
	<advance width="367"/>
	<outline>
		<contour>
			<point x="310" y="0" type="line"/>
			<point x="57" y="0" type="line"/>
			<point x="57" y="81" type="line"/>
			<point x="132" y="81" type="line"/>
			<point x="132" y="415" type="line"/>
			<point x="57" y="415" type="line"/>
			<point x="57" y="500" type="line"/>
			<point x="310" y="500" type="line"/>
			<point x="310" y="415" type="line"/>
			<point x="237" y="415" type="line"/>
			<point x="237" y="81" type="line"/>
			<point x="310" y="81" type="line"/>
		</contour>
	</outline>
</glyph>
<glyph name="uni026B" format="2">
  <advance width="466"/>
  <unicode hex="026B"/>
  <outline>
    <component base="l" xScale="1" xOffset="108.338"/>
    <contour>
      <point x="33.7782" y="360.343" type="line"/>
      <point x="39.7782" y="420.343"/>
      <point x="77.1116" y="461.343"/>
      <point x="121.383" y="461.343" type="curve" smooth="yes"/>
      <point x="142.45" y="461.343"/>
      <point x="164.665" y="454.05"/>
      <point x="186.671" y="443.121" type="curve" smooth="yes"/>
      <point x="199.855" y="436.343" type="line"/>
      <point x="200.114" y="370.247" type="line"/>
      <point x="186.39" y="379.498" type="line" smooth="yes"/>
      <point x="170.027" y="390.619"/>
      <point x="146.037" y="398.677"/>
      <point x="125.226" y="398.677" type="curve" smooth="yes"/>
      <point x="107.778" y="398.677"/>
      <point x="92.1116" y="386.343"/>
      <point x="87.7783" y="360.343" type="curve"/>
    </contour>
    <contour>
      <point x="262.958" y="413.492" type="line"/>
      <point x="281.609" y="405.319" type="line" smooth="yes"/>
      <point x="307.103" y="394.311"/>
      <point x="322.142" y="388.677"/>
      <point x="335.725" y="388.677" type="curve" smooth="yes"/>
      <point x="353.648" y="388.677"/>
      <point x="367.982" y="402.01"/>
      <point x="372.648" y="428.01" type="curve"/>
      <point x="426.315" y="428.01" type="line"/>
      <point x="420.982" y="371.343"/>
      <point x="387.648" y="326.01"/>
      <point x="340.051" y="326.01" type="curve" smooth="yes"/>
      <point x="318.868" y="326.01"/>
      <point x="300.101" y="331.54"/>
      <point x="274.008" y="343.963" type="curve" smooth="yes"/>
      <point x="263.25" y="349.091" type="line"/>
    </contour>
  </outline>
</glyph>
<glyph name="uni026C" format="2">
	<unicode hex="026C"/>
	<advance width="522"/>
	<outline>
		<component base="l" xOffset="144.779"/>
		<contour>
			<point x="255.08" y="336.162" type="line"/>
			<point x="166.881" y="345.895"/>
			<point x="131.467" y="375.819"/>
			<point x="131.467" y="411.528" type="curve" smooth="yes"/>
			<point x="131.467" y="439.927"/>
			<point x="153.867" y="457.661"/>
			<point x="188.139" y="457.661" type="curve" smooth="yes"/>
			<point x="203.707" y="457.661"/>
			<point x="219.909" y="454.002"/>
			<point x="237.941" y="446.685" type="curve"/>
			<point x="234.289" y="501.37" type="line"/>
			<point x="207.668" y="514.41"/>
			<point x="181.644" y="520.93"/>
			<point x="153.505" y="520.93" type="curve" smooth="yes"/>
			<point x="80.8369" y="520.93"/>
			<point x="35.3167" y="477.446"/>
			<point x="35.3167" y="416.088" type="curve" smooth="yes"/>
			<point x="35.3167" y="327.393"/>
			<point x="130.437" y="285.02"/>
			<point x="253.205" y="277.248" type="curve"/>
		</contour>
		<contour>
			<point x="306.65" y="277.967" type="line"/>
			<point x="372.105" y="283.388"/>
			<point x="421.499" y="303.704"/>
			<point x="472.326" y="341.994" type="curve"/>
			<point x="429.937" y="386.364" type="line"/>
			<point x="388.829" y="357.631"/>
			<point x="343.257" y="339.136"/>
			<point x="303.477" y="337.254" type="curve"/>
		</contour>
	</outline>
</glyph>
<glyph name="uni026D" format="2">
  <advance width="282"/>
  <unicode hex="026D"/>
  <outline>
    <component base="l"/>
    <contour>
      <point x="299.333" y="-199.87" type="line"/>
      <point x="235.225" y="-199.87" type="line" smooth="yes"/>
      <point x="119.406" y="-199.87"/>
      <point x="73.3333" y="-151.188"/>
      <point x="73.3333" y="-36.4259" type="curve" smooth="yes"/>
      <point x="73.3333" y="40" type="line"/>
      <point x="178.333" y="40" type="line"/>
      <point x="178.333" y="-33" type="line" smooth="yes"/>
      <point x="178.333" y="-96.4839"/>
      <point x="196.643" y="-118.759"/>
      <point x="256.944" y="-118.759" type="curve" smooth="yes"/>
      <point x="299.333" y="-118.759" type="line"/>
    </contour>
  </outline>
</glyph>
<glyph name="uni0270" format="2">
  <advance width="896"/>
  <unicode hex="0270"/>
  <outline>
    <contour>
      <point x="66.6667" y="500.667" type="line"/>
      <point x="171.667" y="500.667" type="line"/>
      <point x="171.667" y="178.667" type="line" smooth="yes"/>
      <point x="171.667" y="99.4726"/>
      <point x="210.333" y="62"/>
      <point x="264.269" y="62" type="curve" smooth="yes"/>
      <point x="332.333" y="62"/>
      <point x="390.333" y="122"/>
      <point x="390.333" y="178.667" type="curve" smooth="yes"/>
      <point x="390.333" y="500.667" type="line"/>
      <point x="495.333" y="500.667" type="line"/>
      <point x="495.333" y="178.667" type="line" smooth="yes"/>
      <point x="495.333" y="111.667"/>
      <point x="536" y="62"/>
      <point x="593.584" y="62" type="curve" smooth="yes"/>
      <point x="656.667" y="62"/>
      <point x="716.667" y="122"/>
      <point x="716.667" y="178.667" type="curve" smooth="yes"/>
      <point x="716.667" y="500.667" type="line"/>
      <point x="821.667" y="500.667" type="line"/>
      <point x="821.667" y="-198" type="line"/>
      <point x="716.667" y="-198" type="line"/>
      <point x="716.667" y="59" type="line"/>
      <point x="678" y="11"/>
      <point x="631.667" y="-12.6667"/>
      <point x="578" y="-12.6667" type="curve" smooth="yes"/>
      <point x="496" y="-12.6667"/>
      <point x="450" y="9"/>
      <point x="412" y="70.3333" type="curve"/>
      <point x="370.333" y="14.3333"/>
      <point x="316" y="-13.3333"/>
      <point x="249.357" y="-13.3333" type="curve" smooth="yes"/>
      <point x="129" y="-13.3333"/>
      <point x="66.6667" y="50.6667"/>
      <point x="66.6667" y="175.333" type="curve" smooth="yes"/>
    </contour>
  </outline>
</glyph>
<glyph name="uni0271" format="2">
	<unicode hex="0271"/>
	<advance width="896"/>
	<outline>
		<contour>
			<point x="66.6667" y="0" type="line"/>
			<point x="66.6667" y="499.725" type="line"/>
			<point x="171.667" y="499.725" type="line"/>
			<point x="171.667" y="429.667" type="line"/>
			<point x="211.667" y="485.095"/>
			<point x="262.333" y="513.333"/>
			<point x="326.364" y="513.333" type="curve" smooth="yes"/>
			<point x="402.873" y="513.333"/>
			<point x="446.667" y="493.598"/>
			<point x="487.667" y="423.667" type="curve"/>
			<point x="529.333" y="483.72"/>
			<point x="577.667" y="514"/>
			<point x="651.333" y="514" type="curve" smooth="yes"/>
			<point x="774.772" y="514"/>
			<point x="831.667" y="445.354"/>
			<point x="831.667" y="325.667" type="curve" smooth="yes"/>
			<point x="831.667" y="-61" type="line" smooth="yes"/>
			<point x="831.667" y="-146"/>
			<point x="771.277" y="-200"/>
			<point x="674.892" y="-200" type="curve" smooth="yes"/>
			<point x="619" y="-200"/>
			<point x="572" y="-181"/>
			<point x="538" y="-143" type="curve"/>
			<point x="602.667" y="-76" type="line"/>
			<point x="619.667" y="-99.3333"/>
			<point x="643.333" y="-112.667"/>
			<point x="669.478" y="-112.667" type="curve" smooth="yes"/>
			<point x="703.333" y="-112.667"/>
			<point x="726.667" y="-90.3333"/>
			<point x="726.667" y="-55" type="curve" smooth="yes"/>
			<point x="726.667" y="322" type="line" smooth="yes"/>
			<point x="726.667" y="396.527"/>
			<point x="684.667" y="442.667"/>
			<point x="626.704" y="442.667" type="curve" smooth="yes"/>
			<point x="554.333" y="442.667"/>
			<point x="502" y="371"/>
			<point x="502" y="312" type="curve" smooth="yes"/>
			<point x="502" y="0" type="line"/>
			<point x="397" y="0" type="line"/>
			<point x="397" y="322" type="line" smooth="yes"/>
			<point x="397" y="385.333"/>
			<point x="358" y="441.667"/>
			<point x="295.333" y="441.667" type="curve" smooth="yes"/>
			<point x="223" y="441.667"/>
			<point x="171.667" y="368.333"/>
			<point x="171.667" y="311.667" type="curve" smooth="yes"/>
			<point x="171.667" y="0" type="line"/>
		</contour>
	</outline>
</glyph>
<glyph name="uni0272" format="2">
  <advance width="619"/>
  <unicode hex="0272"/>
  <outline>
    <component base="n"/>
    <contour>
      <point x="-43.6667" y="-124.895" type="line"/>
      <point x="3.33847" y="-124.895" type="line" smooth="yes"/>
      <point x="53.5089" y="-124.895"/>
      <point x="73.3333" y="-102.186"/>
      <point x="73.3333" y="-47.6667" type="curve" smooth="yes"/>
      <point x="73.3333" y="50" type="line"/>
      <point x="178.333" y="50" type="line"/>
      <point x="178.333" y="-51.3333" type="line" smooth="yes"/>
      <point x="178.333" y="-156.431"/>
      <point x="132.196" y="-199.908"/>
      <point x="17.9284" y="-199.908" type="curve" smooth="yes"/>
      <point x="-43.6667" y="-199.908" type="line"/>
    </contour>
  </outline>
</glyph>
<glyph name="uni0273" format="2">
	<unicode hex="0273"/>
	<advance width="620"/>
	<outline>
		<component base="n"/>
		<contour>
			<point x="413.667" y="50" type="line"/>
			<point x="518.667" y="50" type="line"/>
			<point x="518.667" y="-47.6667" type="line" smooth="yes"/>
			<point x="518.667" y="-102.186"/>
			<point x="538.491" y="-124.895"/>
			<point x="588.662" y="-124.895" type="curve" smooth="yes"/>
			<point x="635.667" y="-124.895" type="line"/>
			<point x="635.667" y="-199.908" type="line"/>
			<point x="574.072" y="-199.908" type="line" smooth="yes"/>
			<point x="459.804" y="-199.908"/>
			<point x="413.667" y="-156.431"/>
			<point x="413.667" y="-51.3333" type="curve" smooth="yes"/>
		</contour>
	</outline>
</glyph>
<glyph name="uni0276" format="2">
	<unicode hex="0276"/>
	<advance width="744"/>
	<outline>
		<contour>
			<point x="44" y="247.667" type="curve" smooth="yes"/>
			<point x="44" y="99"/>
			<point x="129.667" y="-10"/>
			<point x="292.333" y="-10" type="curve" smooth="yes"/>
			<point x="321.667" y="-10"/>
			<point x="348.667" y="-7.33333"/>
			<point x="371" y="0" type="curve"/>
			<point x="701.667" y="0" type="line"/>
			<point x="701.667" y="76.3333" type="line"/>
			<point x="485.667" y="76.3333" type="line"/>
			<point x="485.667" y="216.667" type="line"/>
			<point x="685.333" y="216.667" type="line"/>
			<point x="685.333" y="291.667" type="line"/>
			<point x="485.667" y="291.667" type="line"/>
			<point x="485.667" y="425" type="line"/>
			<point x="699.333" y="425" type="line"/>
			<point x="699.333" y="500" type="line"/>
			<point x="374" y="500" type="line"/>
			<point x="349" y="506"/>
			<point x="320" y="510"/>
			<point x="292.333" y="510" type="curve" smooth="yes"/>
			<point x="129.667" y="510"/>
			<point x="44" y="396"/>
		</contour>
		<contour>
			<point x="150.667" y="247.333" type="curve" smooth="yes"/>
			<point x="150.667" y="340.333"/>
			<point x="185.667" y="439.667"/>
			<point x="292.333" y="439.667" type="curve" smooth="yes"/>
			<point x="328" y="439.667"/>
			<point x="357.333" y="433"/>
			<point x="380.667" y="419.667" type="curve"/>
			<point x="380.667" y="84.3333" type="line"/>
			<point x="358.667" y="67.3333"/>
			<point x="328.667" y="60"/>
			<point x="292.333" y="60" type="curve" smooth="yes"/>
			<point x="199.333" y="60"/>
			<point x="150.667" y="132"/>
		</contour>
	</outline>
</glyph>
<glyph name="uni0279" format="2">
	<unicode hex="0279"/>
	<advance width="377"/>
	<outline>
		<contour>
			<point x="198.333" y="500" type="line"/>
			<point x="198.333" y="228" type="line" smooth="yes"/>
			<point x="198.333" y="133.333"/>
			<point x="134.667" y="87"/>
			<point x="20" y="87" type="curve"/>
			<point x="20" y="-4.66667" type="line"/>
			<point x="127.333" y="-4.66667"/>
			<point x="167" y="12.6667"/>
			<point x="198.333" y="71" type="curve"/>
			<point x="198.333" y="0" type="line"/>
			<point x="303.333" y="0" type="line"/>
			<point x="303.333" y="500" type="line"/>
		</contour>
	</outline>
</glyph>
<glyph name="uni027C" format="2">
	<unicode hex="027C"/>
	<advance width="363"/>
	<outline>
		<contour>
			<point x="178.333" y="-200" type="line"/>
			<point x="178.333" y="272" type="line" smooth="yes"/>
			<point x="178.333" y="366.667"/>
			<point x="242" y="413"/>
			<point x="356.667" y="413" type="curve"/>
			<point x="356.667" y="504.667" type="line"/>
			<point x="249.333" y="504.667"/>
			<point x="209.667" y="487.333"/>
			<point x="178.333" y="429" type="curve"/>
			<point x="178.333" y="500" type="line"/>
			<point x="73.3333" y="500" type="line"/>
			<point x="73.3333" y="-200" type="line"/>
		</contour>
	</outline>
</glyph>
<glyph name="uni027D" format="2">
  <advance width="363"/>
  <unicode hex="027D"/>
  <outline>
    <contour>
      <point x="299.333" y="-119" type="line"/>
      <point x="257.333" y="-119" type="line" smooth="yes"/>
      <point x="196.333" y="-119"/>
      <point x="178.333" y="-97"/>
      <point x="178.333" y="-33" type="curve" smooth="yes"/>
      <point x="178.333" y="272" type="line" smooth="yes"/>
      <point x="178.333" y="366.667"/>
      <point x="242" y="413"/>
      <point x="356.667" y="413" type="curve"/>
      <point x="356.667" y="504.667" type="line"/>
      <point x="249.333" y="504.667"/>
      <point x="209.667" y="487.333"/>
      <point x="178.333" y="429" type="curve"/>
      <point x="178.333" y="500" type="line"/>
      <point x="73.3333" y="500" type="line"/>
      <point x="73.3333" y="-36.6667" type="line" smooth="yes"/>
      <point x="73.3333" y="-151.667"/>
      <point x="119.667" y="-200"/>
      <point x="235.667" y="-200" type="curve" smooth="yes"/>
      <point x="299.333" y="-200" type="line"/>
    </contour>
  </outline>
</glyph>
<glyph name="uni027E" format="2">
	<unicode hex="027E"/>
	<advance width="465"/>
	<outline>
		<contour>
			<point x="406.902" y="460.554" type="curve"/>
			<point x="352.333" y="406.333" type="line"/>
			<point x="341.333" y="425.333"/>
			<point x="316.333" y="435.333"/>
			<point x="267.333" y="435.333" type="curve" smooth="yes"/>
			<point x="211.333" y="435.333"/>
			<point x="178.333" y="396.333"/>
			<point x="178.333" y="321.333" type="curve" smooth="yes"/>
			<point x="178.333" y="0.333333" type="line"/>
			<point x="73.3333" y="0.333333" type="line"/>
			<point x="73.3333" y="321.333" type="line" smooth="yes"/>
			<point x="73.3333" y="456.418"/>
			<point x="136.333" y="512.667"/>
			<point x="269.034" y="512.667" type="curve" smooth="yes"/>
			<point x="338.905" y="512.667"/>
			<point x="383.281" y="493.801"/>
		</contour>
	</outline>
</glyph>
<glyph name="uni0282" format="2">
  <advance width="503"/>
  <unicode hex="0282"/>
  <outline>
    <component base="s"/>
    <contour>
      <point x="106" y="-86.3333" type="line" smooth="yes"/>
      <point x="106" y="-119"/>
      <point x="134" y="-143.667"/>
      <point x="175.025" y="-143.667" type="curve" smooth="yes"/>
      <point x="210.333" y="-143.667"/>
      <point x="236" y="-124.667"/>
      <point x="236" y="-84.6667" type="curve"/>
      <point x="336.333" y="-84.6667" type="line"/>
      <point x="336.333" y="-172.667"/>
      <point x="289" y="-200"/>
      <point x="190" y="-200" type="curve" smooth="yes"/>
      <point x="111" y="-200"/>
      <point x="54.6667" y="-167.602"/>
      <point x="54.6667" y="-100" type="curve" smooth="yes"/>
      <point x="54.6667" y="147.333" type="line"/>
      <point x="106" y="147.333" type="line"/>
    </contour>
  </outline>
</glyph>
<glyph name="uni0283" format="2">
  <advance width="381"/>
  <unicode hex="0283"/>
  <outline>
    <contour>
      <point x="20" y="-182.632" type="curve"/>
      <point x="66" y="-108" type="line"/>
      <point x="79" y="-119"/>
      <point x="96.6667" y="-124.667"/>
      <point x="118.922" y="-124.667" type="curve" smooth="yes"/>
      <point x="163.128" y="-124.667"/>
      <point x="176" y="-101.684"/>
      <point x="176" y="-45.251" type="curve" smooth="yes"/>
      <point x="176" y="-4"/>
      <point x="161.998" y="117"/>
      <point x="135" y="317" type="curve" smooth="yes"/>
      <point x="117.998" y="443"/>
      <point x="109" y="528"/>
      <point x="109" y="571.771" type="curve" smooth="yes"/>
      <point x="109" y="685"/>
      <point x="171" y="735"/>
      <point x="286.369" y="735" type="curve" smooth="yes"/>
      <point x="319" y="735"/>
      <point x="347" y="728.638"/>
      <point x="361" y="719.638" type="curve"/>
      <point x="316.049" y="646.3" type="line"/>
      <point x="302.049" y="654.3"/>
      <point x="286.049" y="658.3"/>
      <point x="269.141" y="658.3" type="curve" smooth="yes"/>
      <point x="226.315" y="658.3"/>
      <point x="209.667" y="631.811"/>
      <point x="209.667" y="573.915" type="curve" smooth="yes"/>
      <point x="209.667" y="529"/>
      <point x="219.713" y="441.007"/>
      <point x="239.47" y="303.377" type="curve" smooth="yes"/>
      <point x="263.713" y="133.007"/>
      <point x="275.667" y="22"/>
      <point x="275.667" y="-31.689" type="curve" smooth="yes"/>
      <point x="275.667" y="-150"/>
      <point x="216.333" y="-200"/>
      <point x="106.93" y="-200" type="curve" smooth="yes"/>
      <point x="72.3333" y="-200"/>
      <point x="39.0673" y="-195.309"/>
    </contour>
  </outline>
</glyph>
<glyph name="uni0288" format="2">
	<unicode hex="0288"/>
	<advance width="370"/>
	<outline>
		<contour>
			<point x="224.333" y="-48.3333" type="line" smooth="yes"/>
			<point x="224.333" y="-95"/>
			<point x="241.667" y="-124.333"/>
			<point x="283" y="-124.333" type="curve" smooth="yes"/>
			<point x="302.333" y="-124.333"/>
			<point x="322" y="-121.333"/>
			<point x="340.333" y="-115.333" type="curve"/>
			<point x="340.333" y="-186.333" type="line"/>
			<point x="311.333" y="-196"/>
			<point x="280" y="-200"/>
			<point x="248.333" y="-200" type="curve" smooth="yes"/>
			<point x="162.333" y="-200"/>
			<point x="119.333" y="-150.667"/>
			<point x="119.333" y="-59" type="curve" smooth="yes"/>
			<point x="119.333" y="428.333" type="line"/>
			<point x="26" y="428.333" type="line"/>
			<point x="26" y="500" type="line"/>
			<point x="119.333" y="500" type="line"/>
			<point x="119.333" y="591.667" type="line"/>
			<point x="224.333" y="639.667" type="line"/>
			<point x="224.333" y="500" type="line"/>
			<point x="337.333" y="500" type="line"/>
			<point x="337.333" y="428.333" type="line"/>
			<point x="224.333" y="428.333" type="line"/>
		</contour>
	</outline>
</glyph>
<glyph name="uni028A" format="2">
  <advance width="593"/>
  <unicode hex="028A"/>
  <outline>
    <contour>
      <point x="568.667" y="425.167" type="line"/>
      <point x="512.667" y="425.167" type="line" smooth="yes"/>
      <point x="497.658" y="425.167"/>
      <point x="490.667" y="421.667"/>
      <point x="490.667" y="412.667" type="curve" smooth="yes"/>
      <point x="490.667" y="405.667"/>
      <point x="494.9" y="395.894"/>
      <point x="504.567" y="385.719" type="curve" smooth="yes"/>
      <point x="532.904" y="355.89"/>
      <point x="547.667" y="300"/>
      <point x="547.667" y="239.74" type="curve" smooth="yes"/>
      <point x="547.667" y="80"/>
      <point x="452" y="-12.6667"/>
      <point x="292" y="-12.6667" type="curve" smooth="yes"/>
      <point x="132" y="-12.6667"/>
      <point x="43.3333" y="80"/>
      <point x="43.3333" y="238.052" type="curve" smooth="yes"/>
      <point x="43.3333" y="301.333"/>
      <point x="59.394" y="352.611"/>
      <point x="91.3333" y="387.667" type="curve" smooth="yes"/>
      <point x="100.394" y="397.612"/>
      <point x="105.333" y="405.667"/>
      <point x="105.333" y="412.667" type="curve" smooth="yes"/>
      <point x="105.333" y="421.667"/>
      <point x="97.3333" y="425.667"/>
      <point x="82.3333" y="425.667" type="curve" smooth="yes"/>
      <point x="27.3333" y="425.667" type="line"/>
      <point x="27.3333" y="500" type="line"/>
      <point x="221.667" y="500" type="line"/>
      <point x="185.667" y="451"/>
      <point x="154.333" y="334"/>
      <point x="154.333" y="241.692" type="curve" smooth="yes"/>
      <point x="154.333" y="130"/>
      <point x="208.667" y="64.6667"/>
      <point x="295.003" y="64.6667" type="curve" smooth="yes"/>
      <point x="375.333" y="64.6667"/>
      <point x="436" y="121"/>
      <point x="436" y="242.039" type="curve" smooth="yes"/>
      <point x="436" y="333"/>
      <point x="406.333" y="456"/>
      <point x="373.333" y="500" type="curve"/>
      <point x="568.667" y="500" type="line"/>
    </contour>
  </outline>
</glyph>
<glyph name="uni028B" format="2">
	<unicode hex="028B"/>
	<advance width="580"/>
	<outline>
		<contour>
			<point x="272" y="-12" type="curve" smooth="yes"/>
			<point x="141" y="-12"/>
			<point x="65" y="56"/>
			<point x="65" y="175" type="curve" smooth="yes"/>
			<point x="65" y="500" type="line"/>
			<point x="170" y="500" type="line"/>
			<point x="170" y="172.333" type="line" smooth="yes"/>
			<point x="170" y="106.333"/>
			<point x="227" y="58"/>
			<point x="297.718" y="58" type="curve" smooth="yes"/>
			<point x="370.643" y="58"/>
			<point x="433" y="110.485"/>
			<point x="433" y="193" type="curve" smooth="yes"/>
			<point x="433" y="288"/>
			<point x="405" y="376"/>
			<point x="350" y="458" type="curve"/>
			<point x="443" y="516" type="line"/>
			<point x="492" y="474"/>
			<point x="535" y="356"/>
			<point x="535" y="250" type="curve" smooth="yes"/>
			<point x="535" y="91.1118"/>
			<point x="431.427" y="-12"/>
		</contour>
	</outline>
</glyph>
<glyph name="uni0290" format="2">
  <advance width="622"/>
  <unicode hex="0290"/>
  <outline>
    <component base="z"/>
    <contour>
      <point x="439.333" y="-86.3333" type="line" smooth="yes"/>
      <point x="439.333" y="-119"/>
      <point x="467.333" y="-143.667"/>
      <point x="508.358" y="-143.667" type="curve" smooth="yes"/>
      <point x="543.667" y="-143.667"/>
      <point x="569.333" y="-124.667"/>
      <point x="569.333" y="-84.6667" type="curve"/>
      <point x="669.667" y="-84.6667" type="line"/>
      <point x="669.667" y="-172.667"/>
      <point x="622.333" y="-200"/>
      <point x="523.333" y="-200" type="curve" smooth="yes"/>
      <point x="444.333" y="-200"/>
      <point x="388" y="-167.602"/>
      <point x="388" y="-100" type="curve" smooth="yes"/>
      <point x="388" y="75.0217" type="line"/>
      <point x="439.333" y="75.0217" type="line"/>
    </contour>
  </outline>
</glyph>
<glyph name="uni0292" format="2">
	<unicode hex="0292"/>
	<advance width="511"/>
	<outline>
		<contour>
			<point x="468.667" y="18.216" type="curve" smooth="yes"/>
			<point x="468.667" y="-108.493"/>
			<point x="374.209" y="-200"/>
			<point x="243.349" y="-200" type="curve" smooth="yes"/>
			<point x="100.484" y="-200"/>
			<point x="22" y="-140.456"/>
			<point x="22" y="-32" type="curve"/>
			<point x="122" y="-32" type="line"/>
			<point x="122" y="-93.3374"/>
			<point x="161.117" y="-121.667"/>
			<point x="243.623" y="-121.667" type="curve" smooth="yes"/>
			<point x="314.379" y="-121.667"/>
			<point x="363.667" y="-64.8049"/>
			<point x="363.667" y="16.0943" type="curve" smooth="yes"/>
			<point x="363.667" y="129.084"/>
			<point x="286.415" y="187"/>
			<point x="135.817" y="187" type="curve"/>
			<point x="135.817" y="224" type="line"/>
			<point x="323.282" y="425.667" type="line"/>
			<point x="50.3145" y="425.667" type="line"/>
			<point x="50.3145" y="500" type="line"/>
			<point x="436.974" y="500" type="line"/>
			<point x="436.974" y="418.936" type="line"/>
			<point x="272.863" y="241" type="line"/>
			<point x="401.186" y="216.211"/>
			<point x="468.667" y="139.448"/>
		</contour>
	</outline>
	<anchor name="top" x="243.333" y="600"/>
</glyph>
<glyph name="uni0294" format="2">
	<unicode hex="0294"/>
	<advance width="489"/>
	<outline>
		<contour>
			<point x="145.333" y="0" type="line"/>
			<point x="145.333" y="418.667" type="line"/>
			<point x="264" y="428.667"/>
			<point x="323" y="472"/>
			<point x="323" y="548.928" type="curve" smooth="yes"/>
			<point x="323" y="609"/>
			<point x="265.667" y="645"/>
			<point x="170.733" y="645" type="curve" smooth="yes"/>
			<point x="136" y="645"/>
			<point x="100" y="640"/>
			<point x="64" y="630" type="curve"/>
			<point x="64" y="714.667" type="line"/>
			<point x="119" y="726.667"/>
			<point x="166.667" y="732.667"/>
			<point x="202.859" y="732.667" type="curve" smooth="yes"/>
			<point x="331.667" y="732.667"/>
			<point x="434.667" y="658"/>
			<point x="434.667" y="546.486" type="curve" smooth="yes"/>
			<point x="434.667" y="464"/>
			<point x="378" y="404"/>
			<point x="255" y="369" type="curve"/>
			<point x="255" y="0" type="line"/>
		</contour>
	</outline>
</glyph>
<glyph name="uni0298" format="2">
	<unicode hex="0298"/>
	<advance width="872"/>
	<outline>
		<contour>
			<point x="508.068" y="364.274" type="curve" smooth="yes"/>
			<point x="508.068" y="320.731"/>
			<point x="478.339" y="288.603"/>
			<point x="435.004" y="288.603" type="curve" smooth="yes"/>
			<point x="392.731" y="288.603"/>
			<point x="361.932" y="320.73"/>
			<point x="361.932" y="364.274" type="curve" smooth="yes"/>
			<point x="361.932" y="407.618"/>
			<point x="391.521" y="436.397"/>
			<point x="435" y="436.397" type="curve" smooth="yes"/>
			<point x="478.479" y="436.397"/>
			<point x="508.068" y="407.618"/>
		</contour>
		<contour>
			<point x="732.678" y="360.97" type="curve" smooth="yes"/>
			<point x="732.678" y="533.352"/>
			<point x="608.352" y="657.678"/>
			<point x="435" y="657.678" type="curve" smooth="yes"/>
			<point x="261.648" y="657.678"/>
			<point x="137.322" y="533.352"/>
			<point x="137.322" y="360.97" type="curve" smooth="yes"/>
			<point x="137.322" y="187.587"/>
			<point x="262.587" y="62.3216"/>
			<point x="435" y="62.3216" type="curve" smooth="yes"/>
			<point x="607.413" y="62.3216"/>
			<point x="732.678" y="187.587"/>
		</contour>
		<contour>
			<point x="823.533" y="358.886" type="curve" smooth="yes"/>
			<point x="823.533" y="134.823"/>
			<point x="659.216" y="-28.5333"/>
			<point x="433.97" y="-28.5333" type="curve" smooth="yes"/>
			<point x="208.718" y="-28.5333"/>
			<point x="46.4667" y="133.718"/>
			<point x="46.4667" y="358.886" type="curve" smooth="yes"/>
			<point x="46.4667" y="585.252"/>
			<point x="208.788" y="748.533"/>
			<point x="433.97" y="748.533" type="curve" smooth="yes"/>
			<point x="659.284" y="748.533"/>
			<point x="823.533" y="584.284"/>
		</contour>
	</outline>
</glyph>
<glyph name="uni029D" format="2">
  <advance width="414"/>
  <unicode hex="029D"/>
  <outline>
    <contour>
      <point x="203.333" y="0" type="line"/>
      <point x="203.333" y="500" type="line"/>
      <point x="308.333" y="500" type="line"/>
      <point x="308.333" y="0" type="line"/>
    </contour>
    <contour>
      <point x="390" y="60.3333" type="line"/>
      <point x="390" y="7.33333" type="line"/>
      <point x="308.333" y="7.33333" type="line"/>
      <point x="308.333" y="-67.8965" type="line" smooth="yes"/>
      <point x="308.333" y="-152.9"/>
      <point x="256.745" y="-200"/>
      <point x="162.189" y="-200" type="curve" smooth="yes"/>
      <point x="67.2814" y="-200"/>
      <point x="13" y="-152.809"/>
      <point x="13" y="-68.0568" type="curve" smooth="yes"/>
      <point x="13" y="10.9577"/>
      <point x="60.1446" y="60.3333"/>
      <point x="139" y="60.3333" type="curve" smooth="yes"/>
      <point x="203.333" y="60.3333" type="line"/>
      <point x="203.333" y="99.3005" type="line"/>
      <point x="308.333" y="99.3005" type="line"/>
      <point x="308.333" y="60.3333" type="line"/>
    </contour>
    <contour>
      <point x="203.333" y="-65.3413" type="curve" smooth="yes"/>
      <point x="203.333" y="7.33333" type="line"/>
      <point x="154.667" y="7.33333" type="line" smooth="yes"/>
      <point x="118.842" y="7.33333"/>
      <point x="98.6667" y="-19.8888"/>
      <point x="98.6667" y="-60.061" type="curve" smooth="yes"/>
      <point x="98.6667" y="-101.608"/>
      <point x="120.328" y="-121"/>
      <point x="158.237" y="-121" type="curve" smooth="yes"/>
      <point x="191.502" y="-121"/>
      <point x="203.333" y="-106.559"/>
    </contour>
    <contour>
      <point x="195.333" y="617.333" type="line"/>
      <point x="195.333" y="722" type="line"/>
      <point x="317.667" y="722" type="line"/>
      <point x="317.667" y="617.333" type="line"/>
    </contour>
  </outline>
</glyph>
<glyph name="uni02A0" format="2">
  <advance width="630"/>
  <unicode hex="02A0"/>
  <outline>
    <contour>
      <point x="435.925" y="358.027" type="line"/>
      <point x="435.925" y="458.096" type="line" smooth="yes"/>
      <point x="435.925" y="550.23"/>
      <point x="480.275" y="600.414"/>
      <point x="570.907" y="600.414" type="curve" smooth="yes"/>
      <point x="599.236" y="600.414"/>
      <point x="624.901" y="595.452"/>
      <point x="639.901" y="585.528" type="curve"/>
      <point x="639.901" y="513.171" type="line"/>
      <point x="624.901" y="522.338"/>
      <point x="608.907" y="526.417"/>
      <point x="588.655" y="526.417" type="curve" smooth="yes"/>
      <point x="557.782" y="526.417"/>
      <point x="542.23" y="515.455"/>
      <point x="542.23" y="463.598" type="curve" smooth="yes"/>
      <point x="542.23" y="358.027" type="line"/>
    </contour>
    <contour>
      <point x="54.6667" y="248.417" type="curve" smooth="yes"/>
      <point x="54.6667" y="403.484"/>
      <point x="126.509" y="512.667"/>
      <point x="280.355" y="512.667" type="curve" smooth="yes"/>
      <point x="348.878" y="512.667"/>
      <point x="401.333" y="483.589"/>
      <point x="436.029" y="433.71" type="curve"/>
      <point x="436.029" y="445.392" type="line"/>
      <point x="542.333" y="445.392" type="line"/>
      <point x="542.333" y="-200" type="line"/>
      <point x="434.667" y="-200" type="line"/>
      <point x="434.667" y="49.9967" type="line"/>
      <point x="389.91" y="8.39419"/>
      <point x="330.579" y="-12.6667"/>
      <point x="277.936" y="-12.6667" type="curve" smooth="yes"/>
      <point x="123.856" y="-12.6667"/>
      <point x="54.6667" y="96.1926"/>
    </contour>
    <contour>
      <point x="162.667" y="250.988" type="curve" smooth="yes"/>
      <point x="162.667" y="155.352"/>
      <point x="201.233" y="58.6667"/>
      <point x="300.493" y="58.6667" type="curve" smooth="yes"/>
      <point x="398.107" y="58.6667"/>
      <point x="436.333" y="153.705"/>
      <point x="436.333" y="248.201" type="curve" smooth="yes"/>
      <point x="436.333" y="350.628"/>
      <point x="391.774" y="439"/>
      <point x="298.025" y="439" type="curve" smooth="yes"/>
      <point x="202.233" y="439"/>
      <point x="162.667" y="347.982"/>
    </contour>
  </outline>
</glyph>
<glyph name="hfishhookturned" format="2">
  <advance width="627"/>
  <unicode hex="02AE"/>
  <outline>
    <contour>
      <point x="247" y="-13" type="curve" smooth="yes"/>
      <point x="131" y="-13"/>
      <point x="73.3333" y="50.3333"/>
      <point x="73.3333" y="180" type="curve" smooth="yes"/>
      <point x="73.3333" y="500" type="line"/>
      <point x="178.333" y="500" type="line"/>
      <point x="178.333" y="190.667" type="line" smooth="yes"/>
      <point x="178.333" y="112.333"/>
      <point x="213.667" y="59"/>
      <point x="278.333" y="59" type="curve" smooth="yes"/>
      <point x="345.667" y="59"/>
      <point x="412.333" y="118.333"/>
      <point x="412.333" y="203" type="curve" smooth="yes"/>
      <point x="412.333" y="500" type="line"/>
      <point x="517.333" y="500" type="line"/>
      <point x="517.333" y="-200" type="line"/>
      <point x="412.333" y="-200" type="line"/>
      <point x="412.333" y="61" type="line"/>
      <point x="379.884" y="15.0862"/>
      <point x="323.359" y="-13"/>
    </contour>
    <contour>
      <point x="178.333" y="380" type="line"/>
      <point x="73.3333" y="380" type="line"/>
      <point x="73.3333" y="505.724" type="line" smooth="yes"/>
      <point x="73.3333" y="591.108"/>
      <point x="52.6676" y="650.667"/>
      <point x="-28.6814" y="650.667" type="curve" smooth="yes"/>
      <point x="-67" y="650.667"/>
      <point x="-99.9329" y="640.703"/>
      <point x="-123.289" y="621.249" type="curve"/>
      <point x="-182.667" y="679.667" type="line"/>
      <point x="-147.016" y="714.159"/>
      <point x="-97.713" y="732"/>
      <point x="-16.6667" y="732" type="curve" smooth="yes"/>
      <point x="96.6806" y="732"/>
      <point x="178.333" y="653.789"/>
      <point x="178.333" y="545" type="curve" smooth="yes"/>
    </contour>
  </outline>
</glyph>
<glyph name="uni02AF" format="2">
	<unicode hex="02AF"/>
	<advance width="1"/>
	<outline>
		<contour>
			<point x="247" y="-13" type="curve" smooth="yes"/>
			<point x="323.359" y="-13"/>
			<point x="379.884" y="15.0862"/>
			<point x="412.333" y="61" type="curve"/>
			<point x="412.333" y="30" type="line"/>
			<point x="517.333" y="30" type="line"/>
			<point x="517.333" y="500" type="line"/>
			<point x="412.333" y="500" type="line"/>
			<point x="412.333" y="203" type="line" smooth="yes"/>
			<point x="412.333" y="118.333"/>
			<point x="345.667" y="59"/>
			<point x="278.333" y="59" type="curve" smooth="yes"/>
			<point x="213.667" y="59"/>
			<point x="178.333" y="112.333"/>
			<point x="178.333" y="190.667" type="curve" smooth="yes"/>
			<point x="178.333" y="500" type="line"/>
			<point x="73.3333" y="500" type="line"/>
			<point x="73.3333" y="180" type="line" smooth="yes"/>
			<point x="73.3333" y="50.3333"/>
			<point x="131" y="-13"/>
		</contour>
		<contour>
			<point x="178.333" y="545" type="line" smooth="yes"/>
			<point x="178.333" y="653.789"/>
			<point x="96.6806" y="732"/>
			<point x="-16.6667" y="732" type="curve" smooth="yes"/>
			<point x="-97.713" y="732"/>
			<point x="-147.016" y="714.159"/>
			<point x="-182.667" y="679.667" type="curve"/>
			<point x="-123.289" y="621.249" type="line"/>
			<point x="-99.9329" y="640.703"/>
			<point x="-67" y="650.667"/>
			<point x="-28.6814" y="650.667" type="curve" smooth="yes"/>
			<point x="52.6676" y="650.667"/>
			<point x="73.3333" y="591.108"/>
			<point x="73.3333" y="505.724" type="curve" smooth="yes"/>
			<point x="73.3333" y="380" type="line"/>
			<point x="178.333" y="380" type="line"/>
		</contour>
		<contour>
			<point x="412.333" y="134" type="line"/>
			<point x="412.333" y="-60" type="line" smooth="yes"/>
			<point x="412.333" y="-142.764"/>
			<point x="479.138" y="-199"/>
			<point x="573.333" y="-199" type="curve" smooth="yes"/>
			<point x="630.333" y="-199"/>
			<point x="676.333" y="-180"/>
			<point x="711.333" y="-142" type="curve"/>
			<point x="648.101" y="-78.7172" type="line"/>
			<point x="630.377" y="-102.093"/>
			<point x="608.333" y="-115.667"/>
			<point x="579.333" y="-115.667" type="curve" smooth="yes"/>
			<point x="545.333" y="-115.667"/>
			<point x="517.333" y="-89.6667"/>
			<point x="517.333" y="-47.6667" type="curve" smooth="yes"/>
			<point x="517.333" y="134" type="line"/>
		</contour>
	</outline>
</glyph>
<glyph name="uni02B0" format="2">
  <advance width="466"/>
  <unicode hex="02B0"/>
  <outline>
    <contour>
      <point x="50.1656" y="350.148" type="line"/>
      <point x="50.1656" y="855.286" type="line"/>
      <point x="123.667" y="855.286" type="line"/>
      <point x="123.667" y="657.517" type="line"/>
      <point x="150.936" y="692.732"/>
      <point x="184.017" y="709.418"/>
      <point x="235.034" y="709.418" type="curve" smooth="yes"/>
      <point x="322.702" y="709.418"/>
      <point x="360.235" y="664.451"/>
      <point x="360.235" y="574.15" type="curve" smooth="yes"/>
      <point x="360.235" y="350.148" type="line"/>
      <point x="286.734" y="350.148" type="line"/>
      <point x="286.734" y="566.817" type="line" smooth="yes"/>
      <point x="286.734" y="624.917"/>
      <point x="259.068" y="660.517"/>
      <point x="217.734" y="660.517" type="curve" smooth="yes"/>
      <point x="165.267" y="660.517"/>
      <point x="123.667" y="626.103"/>
      <point x="123.667" y="562.253" type="curve" smooth="yes"/>
      <point x="123.667" y="350.148" type="line"/>
    </contour>
  </outline>
</glyph>
<glyph name="uni02BC" format="2">
	<unicode hex="02BC"/>
	<advance width="234"/>
	<outline>
		<contour>
			<point x="177.333" y="722" type="line"/>
			<point x="153.333" y="433.333" type="line"/>
			<point x="80.6667" y="433.333" type="line"/>
			<point x="56.6667" y="722" type="line"/>
		</contour>
	</outline>
</glyph>
<glyph name="circumflex" format="2">
  <advance width="299"/>
  <unicode hex="02C6"/>
  <anchor x="150" y="575" name="_top"/>
  <outline>
    <contour>
      <point x="300" y="600" type="line"/>
      <point x="236.667" y="600" type="line"/>
      <point x="150" y="710" type="line"/>
      <point x="63.3333" y="600" type="line"/>
      <point x="0" y="600" type="line"/>
      <point x="90" y="773.333" type="line"/>
      <point x="210" y="773.333" type="line"/>
    </contour>
  </outline>
</glyph>
<glyph name="uni02D1" format="2">
	<unicode hex="02D1"/>
	<advance width="372"/>
	<outline>
		<contour>
			<point x="267.543" y="500" type="line"/>
			<point x="214.297" y="314.18" type="line"/>
			<point x="157.79" y="314.18" type="line"/>
			<point x="103.457" y="500" type="line"/>
		</contour>
	</outline>
</glyph>
<glyph name="breve" format="2">
  <advance width="294"/>
  <unicode hex="02D8"/>
  <outline>
    <contour>
      <point x="145.333" y="668.667" type="curve" smooth="yes"/>
      <point x="187.333" y="668.667"/>
      <point x="233.667" y="697.333"/>
      <point x="238.333" y="728" type="curve"/>
      <point x="293" y="728" type="line"/>
      <point x="283.667" y="658.333"/>
      <point x="225.667" y="600"/>
      <point x="145.667" y="600" type="curve" smooth="yes"/>
      <point x="64.3333" y="600"/>
      <point x="7" y="655.333"/>
      <point x="-1" y="728" type="curve"/>
      <point x="53.6667" y="728" type="line"/>
      <point x="58.3333" y="698"/>
      <point x="104" y="668.667"/>
    </contour>
  </outline>
</glyph>
<glyph name="dotaccent" format="2">
  <advance width="99"/>
  <unicode hex="02D9"/>
  <anchor x="50" y="575" name="_top"/>
  <outline>
    <contour>
      <point x="100" y="600" type="line"/>
      <point x="0" y="600" type="line"/>
      <point x="0" y="710" type="line"/>
      <point x="100" y="710" type="line"/>
    </contour>
  </outline>
</glyph>
<glyph name="ring" format="2">
	<unicode hex="02DA"/>
	<advance width="226"/>
	<outline>
		<contour>
			<point x="113.333" y="826.667" type="curve" smooth="yes"/>
			<point x="175.667" y="826.667"/>
			<point x="226.667" y="776"/>
			<point x="226.667" y="713.333" type="curve" smooth="yes"/>
			<point x="226.667" y="651.667"/>
			<point x="175" y="600"/>
			<point x="113.333" y="600" type="curve" smooth="yes"/>
			<point x="50.6667" y="600"/>
			<point x="0" y="651"/>
			<point x="0" y="713.333" type="curve" smooth="yes"/>
			<point x="0" y="776"/>
			<point x="50.6667" y="826.667"/>
		</contour>
		<contour>
			<point x="113.333" y="646.667" type="curve" smooth="yes"/>
			<point x="150" y="646.667"/>
			<point x="180" y="676.667"/>
			<point x="180" y="713.333" type="curve" smooth="yes"/>
			<point x="180" y="750.333"/>
			<point x="150.333" y="780"/>
			<point x="113.333" y="780" type="curve" smooth="yes"/>
			<point x="76.6667" y="780"/>
			<point x="46" y="750"/>
			<point x="46" y="713.333" type="curve" smooth="yes"/>
			<point x="46" y="676.333"/>
			<point x="76.3333" y="646.667"/>
		</contour>
	</outline>
</glyph>
<glyph name="tilde" format="2">
  <advance width="301"/>
  <unicode hex="02DC"/>
  <anchor x="150.667" y="600" name="_top"/>
  <outline>
    <contour>
      <point x="0" y="618" type="line"/>
      <point x="6" y="678"/>
      <point x="43.3333" y="719"/>
      <point x="90.5807" y="719" type="curve" smooth="yes"/>
      <point x="107.834" y="719"/>
      <point x="130.103" y="713.544"/>
      <point x="150.818" y="702.086" type="curve"/>
      <point x="150.801" y="636.206" type="line"/>
      <point x="132.37" y="648.087"/>
      <point x="111.119" y="656.333"/>
      <point x="93.9534" y="656.333" type="curve" smooth="yes"/>
      <point x="74" y="656.333"/>
      <point x="58.3333" y="644"/>
      <point x="54" y="618" type="curve"/>
    </contour>
    <contour>
      <point x="301.403" y="720.393" type="line"/>
      <point x="295.403" y="660.393"/>
      <point x="258.07" y="619.393"/>
      <point x="210.822" y="619.393" type="curve" smooth="yes"/>
      <point x="193.569" y="619.393"/>
      <point x="171.3" y="624.849"/>
      <point x="150.585" y="636.307" type="curve"/>
      <point x="150.603" y="702.187" type="line"/>
      <point x="169.033" y="690.305"/>
      <point x="190.284" y="682.059"/>
      <point x="207.45" y="682.059" type="curve" smooth="yes"/>
      <point x="227.403" y="682.059"/>
      <point x="243.07" y="694.393"/>
      <point x="247.403" y="720.393" type="curve"/>
    </contour>
  </outline>
  <guideline angle="90" x="160" y="0"/>
</glyph>
<glyph name="hungarumlaut" format="2">
	<unicode hex="02DD"/>
	<advance width="370"/>
	<outline>
		<contour>
			<point x="195.667" y="777.333" type="line"/>
			<point x="74.6667" y="599.667" type="line"/>
			<point x="8.66667" y="599.667" type="line"/>
			<point x="85.6667" y="777.333" type="line"/>
		</contour>
		<contour>
			<point x="359" y="777.667" type="line"/>
			<point x="238" y="599.667" type="line"/>
			<point x="172" y="599.667" type="line"/>
			<point x="249" y="777.667" type="line"/>
		</contour>
	</outline>
</glyph>
<glyph name="uni02DE" format="2">
	<unicode hex="02DE"/>
	<advance width="207"/>
	<outline>
		<contour>
			<point x="200.667" y="319" type="line"/>
			<point x="200.667" y="257"/>
			<point x="155.939" y="213"/>
			<point x="99.4222" y="213" type="curve" smooth="yes"/>
			<point x="27.6163" y="213"/>
			<point x="-4.98314" y="245.064"/>
			<point x="-4.98314" y="313.271" type="curve" smooth="yes"/>
			<point x="-4.98314" y="357.667" type="line"/>
			<point x="-91.6667" y="314.333" type="line"/>
			<point x="-110" y="377" type="line"/>
			<point x="60" y="462" type="line"/>
			<point x="60" y="303" type="line" smooth="yes"/>
			<point x="60" y="278.425"/>
			<point x="69.4542" y="263"/>
			<point x="93.9048" y="263" type="curve" smooth="yes"/>
			<point x="125.228" y="263"/>
			<point x="135.667" y="287"/>
			<point x="135.667" y="319" type="curve"/>
		</contour>
	</outline>
</glyph>
<glyph name="uni02E0" format="2">
	<unicode hex="02E0"/>
	<advance width="381"/>
	<outline>
		<contour>
			<point x="162.919" y="276.463" type="curve" smooth="yes"/>
			<point x="162.919" y="258.258"/>
			<point x="171.46" y="249.463"/>
			<point x="190.252" y="249.463" type="curve" smooth="yes"/>
			<point x="209.033" y="249.463"/>
			<point x="218.252" y="258.797"/>
			<point x="218.252" y="277.35" type="curve" smooth="yes"/>
			<point x="218.252" y="292.797"/>
			<point x="207.347" y="317.13"/>
			<point x="190.252" y="337.13" type="curve"/>
			<point x="174.471" y="317.463"/>
			<point x="162.919" y="291.463"/>
		</contour>
		<contour>
			<point x="97.9188" y="268.807" type="curve" smooth="yes"/>
			<point x="97.9188" y="298.13"/>
			<point x="115.438" y="340.463"/>
			<point x="147.809" y="389.797" type="curve"/>
			<point x="12.1629" y="696" type="line"/>
			<point x="96.4963" y="696" type="line"/>
			<point x="192.9" y="458.797" type="line"/>
			<point x="188.9" y="458.797" type="line"/>
			<point x="284.496" y="696" type="line"/>
			<point x="368.83" y="696" type="line"/>
			<point x="231.919" y="389.797" type="line"/>
			<point x="263.919" y="340.463"/>
			<point x="282.585" y="298.13"/>
			<point x="282.585" y="268.207" type="curve" smooth="yes"/>
			<point x="282.585" y="222.463"/>
			<point x="238.919" y="191.463"/>
			<point x="190.576" y="191.463" type="curve" smooth="yes"/>
			<point x="141.708" y="191.463"/>
			<point x="97.9188" y="222.463"/>
		</contour>
	</outline>
</glyph>
<glyph name="uni02E4" format="2">
	<unicode hex="02E4"/>
	<advance width="391"/>
	<outline>
		<contour>
			<point x="309" y="628.333" type="line"/>
			<point x="283.052" y="635.599"/>
			<point x="257.095" y="639.333"/>
			<point x="232.523" y="639.333" type="curve" smooth="yes"/>
			<point x="169.255" y="639.333"/>
			<point x="131" y="614.382"/>
			<point x="131" y="573.03" type="curve" smooth="yes"/>
			<point x="131" y="517.855"/>
			<point x="169.763" y="489.259"/>
			<point x="254.667" y="483" type="curve"/>
			<point x="254.667" y="185" type="line"/>
			<point x="174.333" y="185" type="line"/>
			<point x="174.333" y="443" type="line"/>
			<point x="89.873" y="461.921"/>
			<point x="47.6667" y="504.345"/>
			<point x="47.6667" y="570.139" type="curve" smooth="yes"/>
			<point x="47.6667" y="645.711"/>
			<point x="114.478" y="700"/>
			<point x="208.118" y="700" type="curve" smooth="yes"/>
			<point x="235.227" y="700"/>
			<point x="274.912" y="695.37"/>
			<point x="309" y="688" type="curve"/>
		</contour>
	</outline>
</glyph>
<glyph name="uni02E5" format="2">
	<unicode hex="02E5"/>
	<advance width="374"/>
	<outline>
		<contour>
			<point x="310.667" y="0" type="line"/>
			<point x="223" y="0" type="line"/>
			<point x="223" y="647.667" type="line"/>
			<point x="21" y="647.667" type="line"/>
			<point x="21" y="722" type="line"/>
			<point x="310.667" y="722" type="line"/>
		</contour>
	</outline>
</glyph>
<glyph name="uni02E6" format="2">
  <advance width="374"/>
  <unicode hex="02E6"/>
  <outline>
    <contour>
      <point x="310.667" y="0" type="line"/>
      <point x="223" y="0" type="line"/>
      <point x="223" y="490" type="line"/>
      <point x="20" y="490" type="line"/>
      <point x="20" y="564.333" type="line"/>
      <point x="223" y="564.333" type="line"/>
      <point x="223" y="722" type="line"/>
      <point x="310.667" y="722" type="line"/>
    </contour>
  </outline>
</glyph>
<glyph name="uni02E7" format="2">
	<unicode hex="02E7"/>
	<advance width="374"/>
	<outline>
		<contour>
			<point x="310.667" y="0" type="line"/>
			<point x="223" y="0" type="line"/>
			<point x="223" y="325.667" type="line"/>
			<point x="20" y="325.667" type="line"/>
			<point x="20" y="400" type="line"/>
			<point x="223" y="400" type="line"/>
			<point x="223" y="722" type="line"/>
			<point x="310.667" y="722" type="line"/>
		</contour>
	</outline>
</glyph>
<glyph name="uni02E8" format="2">
	<unicode hex="02E8"/>
	<advance width="374"/>
	<outline>
		<contour>
			<point x="310.667" y="0" type="line"/>
			<point x="223" y="0" type="line"/>
			<point x="223" y="161" type="line"/>
			<point x="20" y="161" type="line"/>
			<point x="20" y="235.333" type="line"/>
			<point x="223" y="235.333" type="line"/>
			<point x="223" y="722" type="line"/>
			<point x="310.667" y="722" type="line"/>
		</contour>
	</outline>
</glyph>
<glyph name="acutecomb" format="2">
	<unicode hex="0301"/>
	<advance width="1"/>
	<outline>
		<contour>
			<point x="-144" y="774" type="line"/>
			<point x="-287.667" y="600" type="line"/>
			<point x="-351.667" y="600" type="line"/>
			<point x="-254.667" y="774" type="line"/>
		</contour>
	</outline>
	<anchor name="_top" x="-321.667" y="600"/>
	<anchor name="_top.mkmk" x="-330" y="600"/>
</glyph>
<glyph name="uni0302" format="2">
	<unicode hex="0302"/>
	<advance width="1"/>
	<outline>
		<contour>
			<point x="-152" y="600" type="line"/>
			<point x="-215.333" y="600" type="line"/>
			<point x="-302" y="710" type="line"/>
			<point x="-388.667" y="600" type="line"/>
			<point x="-452" y="600" type="line"/>
			<point x="-362" y="773.333" type="line"/>
			<point x="-242" y="773.333" type="line"/>
		</contour>
	</outline>
	<anchor name="_top" x="-304.667" y="600"/>
	<anchor name="top.mkmk" x="-302" y="800"/>
</glyph>
<glyph name="uni0305" format="2">
	<unicode hex="0305"/>
	<outline>
		<contour>
			<point x="-24.6667" y="600" type="line"/>
			<point x="-428.333" y="600" type="line"/>
			<point x="-485" y="703" type="line"/>
			<point x="-58" y="703" type="line"/>
		</contour>
	</outline>
	<anchor name="_top" x="-255" y="575"/>
</glyph>
<glyph name="uni0306" format="2">
	<unicode hex="0306"/>
	<advance width="1"/>
	<outline>
		<contour>
			<point x="-204.333" y="704.667" type="curve"/>
			<point x="-195" y="660.667"/>
			<point x="-218.667" y="640"/>
			<point x="-264.667" y="650" type="curve"/>
			<point x="-308.459" y="650"/>
			<point x="-336.649" y="684"/>
			<point x="-338.667" y="728" type="curve"/>
			<point x="-336.006" y="700.333"/>
			<point x="-333.263" y="678"/>
			<point x="-357.333" y="678" type="curve"/>
			<point x="-386" y="657.333"/>
			<point x="-372" y="662.667"/>
			<point x="-350.667" y="692.667" type="curve"/>
			<point x="-323.464" y="692.667"/>
			<point x="-277.476" y="707.333"/>
			<point x="-270.667" y="728" type="curve"/>
			<point x="-266.886" y="718"/>
			<point x="-227.301" y="704.667"/>
		</contour>
	</outline>
	<anchor name="_top" x="-299.333" y="600"/>
</glyph>
<glyph name="uni0307" format="2">
  <advance width="1"/>
  <unicode hex="0307"/>
  <anchor x="-290.667" y="600" name="_top"/>
  <outline>
    <contour>
      <point x="-340.333" y="600" type="line"/>
      <point x="-340.333" y="706.667" type="line"/>
      <point x="-243.667" y="706.667" type="line"/>
      <point x="-243.667" y="600" type="line"/>
    </contour>
  </outline>
</glyph>
<glyph name="uni0308" format="2">
	<unicode hex="0308"/>
	<advance width="1"/>
	<outline>
		<contour>
			<point x="-261.333" y="600" type="line"/>
			<point x="-358" y="600" type="line"/>
			<point x="-358" y="706.667" type="line"/>
			<point x="-261.333" y="706.667" type="line"/>
		</contour>
		<contour>
			<point x="-211.333" y="600" type="line"/>
			<point x="-308" y="600" type="line"/>
			<point x="-308" y="706.667" type="line"/>
			<point x="-211.333" y="706.667" type="line"/>
		</contour>
	</outline>
	<anchor name="_top" x="-286.667" y="600"/>
</glyph>
